<svg width="1105" height="1524" viewBox="0 0 1105 1524" fill="none" xmlns="http://www.w3.org/2000/svg">
<g filter="url(#filter0_d)">
<g filter="url(#filter1_d)">
<path d="M546.137 1445.78H468.498C446.368 1127.3 441.957 976.863 468.498 514.121C495.039 51.3781 582.047 27.3277 541.312 568.132C500.576 1108.94 515.789 1144.89 546.137 1445.78Z" fill="#75BF2A"/>
</g>
<path d="M845.828 1515.5H156.159C162.459 1453.38 180.386 1433.49 241.634 1428.4C289.27 1356.87 327.338 1326.62 402.578 1389.37C469.626 1295.12 503.271 1306.63 576.355 1389.37C634.781 1371.56 665.575 1371.21 705.328 1444.87C795.156 1437.11 823.621 1454.89 845.828 1515.5Z" fill="#7E4533"/>
<path d="M491.098 706.815L506.322 649.954C506.322 649.954 497.187 691.02 652.26 602.57C807.332 514.121 752.741 602.57 652.26 649.954C551.778 697.338 491.098 706.815 491.098 706.815Z" fill="#75BF2A"/>
<path d="M501.103 357.303L489.452 320.258C489.452 320.258 496.442 347.012 377.773 289.387C259.105 231.762 300.88 289.387 377.773 320.258C454.667 351.129 501.103 357.303 501.103 357.303Z" fill="#75BF2A"/>
<path d="M493.708 656.495L482.057 526.205C482.057 526.205 457.74 622.249 339.071 419.577C220.402 216.904 269.355 375.536 346.248 484.111C423.141 592.685 493.708 656.495 493.708 656.495Z" fill="#75BF2A"/>
<path d="M501.103 467.865L510.572 430.82C510.572 430.82 504.89 457.574 601.341 399.949C697.792 342.324 663.838 399.949 601.341 430.82C538.844 461.691 501.103 467.865 501.103 467.865Z" fill="#75BF2A"/>
<path d="M466.738 985.025L456.679 845.158C456.679 845.158 462.714 946.173 360.252 728.602C257.789 511.031 293.859 728.602 360.252 845.158C426.644 961.714 466.738 985.025 466.738 985.025Z" fill="#75BF2A"/>
<path d="M861.146 510.908C908.025 533.665 1083.9 657.559 1078.64 679.453C1073.38 701.346 905.164 706.338 821.007 677.925C736.85 649.513 670.305 597.086 728.484 541.706C786.663 486.327 814.267 488.152 861.146 510.908Z" fill="#269200"/>
<path d="M730.778 574.178C729.832 574.749 729.528 575.979 730.099 576.924C730.67 577.87 731.9 578.173 732.845 577.602L730.778 574.178ZM1034.28 672.105C1035.38 672.023 1036.21 671.063 1036.12 669.961C1036.04 668.86 1035.08 668.034 1033.98 668.117L1034.28 672.105ZM732.845 577.602C761.813 560.111 786.252 557.891 808.788 564.045C831.476 570.242 852.422 584.967 874.284 601.835C917.786 635.403 964.624 677.337 1034.28 672.105L1033.98 668.117C966.16 673.21 920.624 632.54 876.728 598.669C854.89 581.818 833.381 566.615 809.842 560.187C786.153 553.717 760.594 556.175 730.778 574.178L732.845 577.602Z" fill="#75BF2A"/>
<path d="M542.532 580.286C506.422 612.772 379.906 771.092 389.646 790.577C399.385 810.062 549.111 775.477 616.829 728.929C684.547 682.381 731.125 617.228 666.862 578.426C602.598 539.623 578.642 547.801 542.532 580.286Z" fill="#269200"/>
<path d="M672.518 609.637C673.558 609.98 674.113 611.113 673.756 612.168C673.4 613.223 672.268 613.8 671.227 613.456L672.518 609.637ZM427.104 773.315C426.018 773.511 424.994 772.785 424.817 771.693C424.639 770.601 425.375 769.557 426.461 769.361L427.104 773.315ZM671.227 613.456C641.625 603.693 619.609 607.305 601.217 618.347C582.668 629.482 567.616 648.273 552.226 669.349C521.642 711.234 489.971 761.964 427.104 773.315L426.461 769.361C487.411 758.357 518.112 709.345 549.032 667C564.394 645.961 579.877 626.515 599.219 614.904C618.716 603.198 641.947 599.554 672.518 609.637L671.227 613.456Z" fill="#75BF2A"/>
<path d="M775.729 361.526C803.46 396.327 894.783 563.493 883.6 582.82C872.418 602.146 744.311 559.61 690.422 508.957C636.534 458.303 603.812 389.78 665.83 353.506C727.848 317.232 747.998 326.725 775.729 361.526Z" fill="#269200"/>
<path d="M656.441 384.997C655.398 385.318 654.823 386.442 655.159 387.507C655.494 388.573 656.612 389.176 657.656 388.855L656.441 384.997ZM852.745 563.379C853.809 563.667 854.886 563.028 855.15 561.953C855.413 560.878 854.765 559.773 853.701 559.486L852.745 563.379ZM657.656 388.855C685.087 380.412 703.941 385.176 718.634 397.181C733.53 409.352 744.378 429.13 755.259 451.335C766.066 473.388 776.87 497.751 791.66 518.333C806.501 538.985 825.475 556.016 852.745 563.379L853.701 559.486C827.592 552.436 809.332 536.145 794.853 515.997C780.324 495.779 769.722 471.865 758.807 449.593C747.967 427.472 736.777 406.878 721.089 394.059C705.197 381.075 684.92 376.232 656.441 384.997L657.656 388.855Z" fill="#75BF2A"/>
<path d="M526.083 428.687C509.52 467.509 466.431 635.33 480.38 645.044C494.33 654.757 596.612 565.324 632.498 502.79C668.383 440.256 681.942 373.564 620.033 373.615C558.123 373.666 542.646 389.864 526.083 428.687Z" fill="#269200"/>
<path d="M634.555 393.128C635.615 392.889 636.658 393.585 636.884 394.684C637.111 395.783 636.434 396.867 635.374 397.107L634.555 393.128ZM503.369 616.852C502.51 617.541 501.277 617.38 500.616 616.491C499.955 615.603 500.116 614.324 500.975 613.635L503.369 616.852ZM635.374 397.107C609.614 402.918 594.077 415.007 583.791 430.851C573.429 446.811 568.293 466.72 563.664 488.423C554.457 531.592 547.385 581.562 503.369 616.852L500.975 613.635C543.639 579.429 550.529 531.165 559.83 487.559C564.456 465.874 569.711 445.26 580.536 428.587C591.435 411.799 607.88 399.145 634.555 393.128L635.374 397.107Z" fill="#75BF2A"/>
<path d="M468.651 400.868C510.345 423.395 666.771 546.037 662.091 567.71C657.411 589.382 507.801 594.324 432.951 566.198C358.101 538.072 298.915 486.175 350.659 431.355C402.404 376.535 426.956 378.341 468.651 400.868Z" fill="#269200"/>
<path d="M352.504 463.534C351.587 464.15 351.343 465.393 351.959 466.31C352.575 467.227 353.818 467.47 354.735 466.854L352.504 463.534ZM622.67 560.456C623.771 560.364 624.589 559.397 624.497 558.296C624.405 557.196 623.438 556.378 622.337 556.47L622.67 560.456ZM354.735 466.854C380.44 449.58 402.057 447.42 421.97 453.473C442.075 459.584 460.665 474.119 480.119 490.827C518.753 524.006 560.525 565.651 622.67 560.456L622.337 556.47C562.212 561.496 521.825 521.371 482.725 487.793C463.314 471.122 444.143 456.032 423.134 449.646C401.933 443.201 379.081 445.673 352.504 463.534L354.735 466.854Z" fill="#75BF2A"/>
<path d="M201.6 287.026C175.805 300.473 79.0314 373.683 81.9267 386.62C84.822 399.558 177.379 402.507 223.686 385.718C269.992 368.929 306.607 337.949 274.595 305.225C242.583 272.501 227.394 273.579 201.6 287.026Z" fill="#269200"/>
<path d="M273.852 323.747C274.779 324.348 275.043 325.586 274.442 326.513C273.841 327.44 272.602 327.704 271.676 327.103L273.852 323.747ZM106.256 383.094C105.155 383.005 104.335 382.041 104.424 380.94C104.512 379.839 105.477 379.018 106.578 379.107L106.256 383.094ZM271.676 327.103C255.936 316.897 242.778 315.657 230.681 319.205C218.407 322.805 207.015 331.383 194.974 341.36C171.149 361.103 145.056 386.224 106.256 383.094L106.578 379.107C143.421 382.079 168.156 358.388 192.422 338.28C204.426 328.333 216.394 319.226 229.555 315.366C242.893 311.454 257.246 312.979 273.852 323.747L271.676 327.103Z" fill="#75BF2A"/>
<path d="M350.145 335.259C366.535 343.216 428.028 386.534 426.188 394.189C424.349 401.843 365.535 403.589 336.111 393.655C306.686 383.721 283.42 365.39 303.761 346.027C324.103 326.665 333.754 327.303 350.145 335.259Z" fill="#269200"/>
<path d="M303.891 356.268C302.945 356.839 302.642 358.068 303.213 359.014C303.784 359.959 305.013 360.263 305.959 359.692L303.891 356.268ZM410.776 392.917C411.877 392.835 412.703 391.875 412.621 390.773C412.538 389.672 411.578 388.846 410.476 388.929L410.776 392.917ZM305.959 359.692C315.811 353.743 323.991 353.044 331.496 355.093C339.152 357.184 346.292 362.177 353.944 368.081C369.026 379.719 385.825 394.791 410.776 392.917L410.476 388.929C387.361 390.665 371.863 376.856 356.387 364.914C348.76 359.029 341.056 353.558 332.55 351.235C323.892 348.87 314.591 349.807 303.891 356.268L305.959 359.692Z" fill="#75BF2A"/>
<path d="M350.145 335.259C366.535 343.216 428.028 386.534 426.188 394.189C424.349 401.843 365.535 403.589 336.111 393.655C306.686 383.721 283.42 365.39 303.761 346.027C324.103 326.665 333.754 327.303 350.145 335.259Z" fill="#269200"/>
<path d="M303.891 356.268C302.945 356.839 302.642 358.068 303.213 359.014C303.784 359.959 305.013 360.263 305.959 359.692L303.891 356.268ZM410.776 392.917C411.877 392.835 412.703 391.875 412.621 390.773C412.538 389.672 411.578 388.846 410.476 388.929L410.776 392.917ZM305.959 359.692C315.811 353.743 323.991 353.044 331.496 355.093C339.152 357.184 346.292 362.177 353.944 368.081C369.026 379.719 385.825 394.791 410.776 392.917L410.476 388.929C387.361 390.665 371.863 376.856 356.387 364.914C348.76 359.029 341.056 353.558 332.55 351.235C323.892 348.87 314.591 349.807 303.891 356.268L305.959 359.692Z" fill="#75BF2A"/>
<path d="M350.145 335.259C366.535 343.216 428.028 386.534 426.188 394.189C424.349 401.843 365.535 403.589 336.111 393.655C306.686 383.721 283.42 365.39 303.761 346.027C324.103 326.665 333.754 327.303 350.145 335.259Z" fill="#269200"/>
<path d="M303.891 356.268C302.945 356.839 302.642 358.068 303.213 359.014C303.784 359.959 305.013 360.263 305.959 359.692L303.891 356.268ZM410.776 392.917C411.877 392.835 412.703 391.875 412.621 390.773C412.538 389.672 411.578 388.846 410.476 388.929L410.776 392.917ZM305.959 359.692C315.811 353.743 323.991 353.044 331.496 355.093C339.152 357.184 346.292 362.177 353.944 368.081C369.026 379.719 385.825 394.791 410.776 392.917L410.476 388.929C387.361 390.665 371.863 376.856 356.387 364.914C348.76 359.029 341.056 353.558 332.55 351.235C323.892 348.87 314.591 349.807 303.891 356.268L305.959 359.692Z" fill="#75BF2A"/>
<path d="M488.61 742.231C520.992 772.792 636.126 929.151 628.461 952.19C620.795 975.229 490.314 959.379 430.131 917.984C369.949 876.589 327.301 811.42 381.277 758.813C435.252 706.206 456.229 711.67 488.61 742.231Z" fill="#269200"/>
<path d="M377.161 794.526C376.221 795.095 375.928 796.326 376.505 797.275C377.083 798.224 378.312 798.532 379.252 797.962L377.161 794.526ZM595.601 938.453C596.703 938.516 597.637 937.672 597.688 936.567C597.74 935.463 596.888 934.516 595.787 934.452L595.601 938.453ZM379.252 797.962C391.847 790.33 402.844 786.753 412.645 786.214C422.42 785.676 431.142 788.152 439.23 792.855C455.538 802.338 469.196 820.812 483.294 841.88C497.286 862.791 511.646 886.149 529.245 904.592C546.901 923.095 568.007 936.866 595.601 938.453L595.787 934.452C569.548 932.944 549.342 919.89 532.114 901.837C514.829 883.722 500.732 860.79 486.601 839.671C472.576 818.712 458.445 799.419 441.204 789.393C432.517 784.342 423.024 781.627 412.383 782.213C401.768 782.797 390.147 786.658 377.161 794.526L379.252 797.962Z" fill="#75BF2A"/>
<path d="M357.07 570.085C393.138 579.163 536.81 643.992 538.067 662.503C539.324 681.015 428.708 717.659 366.659 711.299C304.611 704.94 249.046 675.978 275.661 620.443C302.277 564.908 321.003 561.007 357.07 570.085Z" fill="#269200"/>
<path d="M283.74 645.869C283.051 646.745 283.185 648.008 284.041 648.69C284.896 649.373 286.149 649.216 286.839 648.341L283.74 645.869ZM507.178 665.554C508.208 665.15 508.733 663.984 508.349 662.95C507.966 661.916 506.82 661.406 505.79 661.81L507.178 665.554ZM286.839 648.341C302.165 628.888 317.675 622.532 333.668 623.064C349.894 623.603 366.875 631.225 385.077 640.469C403.139 649.642 422.339 660.377 442.563 666.571C462.866 672.789 484.382 674.498 507.178 665.554L505.79 661.81C484.063 670.334 463.502 668.764 443.774 662.722C423.967 656.656 405.183 646.151 386.911 636.871C368.778 627.662 351.073 619.618 333.864 619.046C316.421 618.466 299.746 625.555 283.74 645.869L286.839 648.341Z" fill="#75BF2A"/>
<path d="M177.488 658.419C152.36 689.236 69.6378 833.755 79.7891 848.638C89.9404 863.522 206.087 817.95 254.927 771.959C303.766 725.968 333.401 667.124 277.142 642.631C220.883 618.138 202.616 627.601 177.488 658.419Z" fill="#269200"/>
<path d="M285.513 667.268C286.586 667.467 287.282 668.517 287.067 669.614C286.852 670.711 285.808 671.439 284.735 671.24L285.513 667.268ZM107.915 830.495C106.87 830.847 105.759 830.274 105.433 829.216C105.107 828.158 105.69 827.016 106.735 826.664L107.915 830.495ZM284.735 671.24C259.885 666.636 242.756 672.108 229.404 683.198C215.905 694.41 206.09 711.496 196.241 730.574C176.704 768.42 157.252 813.9 107.915 830.495L106.735 826.664C154.192 810.702 172.931 767.123 192.741 728.747C202.565 709.715 212.712 691.9 226.934 680.088C241.303 668.153 259.654 662.477 285.513 667.268L284.735 671.24Z" fill="#75BF2A"/>
<path d="M244.334 382.324C217.85 397.457 118.491 479.844 121.464 494.403C124.436 508.962 219.467 512.281 267.01 493.388C314.553 474.494 352.147 439.631 319.28 402.804C286.413 365.978 270.818 367.191 244.334 382.324Z" fill="#269200"/>
<path d="M318.559 423.906C319.459 424.546 319.67 425.795 319.031 426.695C318.391 427.595 317.142 427.806 316.242 427.166L318.559 423.906ZM146.433 490.184C145.333 490.086 144.52 489.115 144.617 488.015C144.714 486.915 145.685 486.102 146.786 486.199L146.433 490.184ZM316.242 427.166C300.077 415.678 286.603 414.302 274.228 418.281C261.636 422.328 249.937 431.981 237.567 443.217C225.31 454.349 212.444 466.988 197.797 476.345C183.078 485.748 166.41 491.95 146.433 490.184L146.786 486.199C165.641 487.866 181.435 482.051 195.643 472.974C209.922 463.852 222.446 451.547 234.877 440.256C247.194 429.069 259.48 418.82 273.003 414.473C286.743 410.056 301.514 411.792 318.559 423.906L316.242 427.166Z" fill="#75BF2A"/>
<path d="M660.013 133.538C703.135 151.046 864.917 246.365 860.077 263.209C855.236 280.054 700.503 283.894 623.09 262.034C545.678 240.175 484.465 199.84 537.982 157.233C591.498 114.626 616.891 116.03 660.013 133.538Z" fill="#269200"/>
<path d="M540.141 181.748C539.155 182.246 538.76 183.449 539.258 184.435C539.756 185.421 540.959 185.817 541.945 185.319L540.141 181.748ZM819.259 258.019C820.362 257.95 821.199 257 821.13 255.898C821.061 254.795 820.111 253.958 819.008 254.027L819.259 258.019ZM541.945 185.319C568.589 171.863 591.109 170.139 611.891 174.886C632.775 179.656 652.04 190.986 672.137 203.957C712.188 229.805 755.252 262.04 819.259 258.019L819.008 254.027C756.559 257.95 714.65 226.633 674.306 200.596C654.207 187.624 634.419 175.929 612.781 170.986C591.041 166.02 567.571 167.896 540.141 181.748L541.945 185.319Z" fill="#75BF2A"/>
<path d="M397.565 84.2089C351.435 89.3077 172.317 135.777 173.653 152.558C174.989 169.339 326.898 212.547 407.755 212.223C488.612 211.9 557.256 190.378 513.147 137.351C469.039 84.3239 443.694 79.1102 397.565 84.2089Z" fill="#269200"/>
<path d="M505.966 159.275C506.833 159.984 506.993 161.255 506.324 162.114C505.654 162.973 504.409 163.095 503.541 162.386L505.966 159.275ZM214.979 158.343C213.926 158.003 213.315 156.867 213.616 155.807C213.916 154.746 215.014 154.162 216.067 154.502L214.979 158.343ZM503.541 162.386C479.976 143.125 458.066 135.742 436.543 134.793C414.932 133.839 393.589 139.36 371.112 146.173C326.287 159.761 277.256 178.439 214.979 158.343L216.067 154.502C276.958 174.151 324.759 155.978 369.866 142.306C392.355 135.489 414.253 129.778 436.587 130.763C459.009 131.753 481.748 139.481 505.966 159.275L503.541 162.386Z" fill="#75BF2A"/>
<path d="M463.242 294.645C479.632 302.602 541.125 345.92 539.285 353.574C537.445 361.229 478.632 362.975 449.208 353.04C419.783 343.106 396.517 324.776 416.858 305.413C437.199 286.05 446.851 286.689 463.242 294.645Z" fill="#269200"/>
<path d="M416.988 315.654C416.042 316.225 415.738 317.454 416.309 318.399C416.88 319.345 418.11 319.649 419.055 319.078L416.988 315.654ZM523.873 352.303C524.974 352.22 525.8 351.26 525.717 350.159C525.635 349.057 524.675 348.232 523.573 348.314L523.873 352.303ZM419.055 319.078C428.908 313.129 437.088 312.429 444.593 314.479C452.249 316.57 459.389 321.563 467.04 327.467C482.122 339.104 498.922 354.177 523.873 352.303L523.573 348.314C500.458 350.05 484.96 336.241 469.484 324.3C461.857 318.415 454.153 312.944 445.647 310.62C436.989 308.256 427.688 309.193 416.988 315.654L419.055 319.078Z" fill="#75BF2A"/>
<path d="M261.529 233.936C241.691 241.203 167.264 280.767 169.49 287.758C171.717 294.749 242.901 296.343 278.515 287.27C314.128 278.197 342.289 261.455 317.669 243.771C293.049 226.086 281.367 226.669 261.529 233.936Z" fill="#269200"/>
<path d="M317.089 252.867C318.094 253.325 318.538 254.511 318.08 255.517C317.622 256.522 316.436 256.965 315.431 256.507L317.089 252.867ZM188.212 286.772C187.109 286.709 186.266 285.765 186.328 284.662C186.391 283.559 187.336 282.716 188.438 282.778L188.212 286.772ZM315.431 256.507C303.363 251.009 293.215 250.321 283.865 252.248C274.433 254.191 265.697 258.815 256.458 264.195C238.088 274.891 218.008 288.461 188.212 286.772L188.438 282.778C216.819 284.387 235.83 271.578 254.445 260.739C263.698 255.351 272.928 250.418 283.058 248.33C293.271 246.225 304.28 247.031 317.089 252.867L315.431 256.507Z" fill="#75BF2A"/>
<path d="M324.239 208.914C340.474 200.621 411.513 177.932 416.12 184.209C420.727 190.486 385.258 239.188 359.384 256.795C333.51 274.402 305.172 281.773 303.33 253.197C301.488 224.62 308.004 217.206 324.239 208.914Z" fill="#269200"/>
<path d="M311.104 259.413C310.943 260.524 311.684 261.565 312.757 261.739C313.83 261.914 314.83 261.156 314.99 260.045L311.104 259.413ZM405.552 195.926C406.164 195.004 405.935 193.736 405.04 193.094C404.144 192.452 402.921 192.68 402.309 193.602L405.552 195.926ZM314.99 260.045C316.68 248.33 321.284 241.236 327.551 236.418C333.929 231.514 342.164 228.854 351.385 226.354C369.592 221.417 391.389 217.248 405.552 195.926L402.309 193.602C389.126 213.448 369.001 217.363 350.362 222.417C341.161 224.912 332.242 227.724 325.193 233.144C318.032 238.649 312.933 246.73 311.104 259.413L314.99 260.045Z" fill="#75BF2A"/>
<ellipse cx="549.412" cy="142.201" rx="13" ry="47.5" transform="rotate(24.1439 549.412 142.201)" fill="#FF0000"/>
<ellipse cx="568.361" cy="162.001" rx="13" ry="47.5" transform="rotate(63.9376 568.361 162.001)" fill="#F99494"/>
<ellipse cx="513.317" cy="142.054" rx="13" ry="47.5" transform="rotate(-26.5865 513.317 142.054)" fill="#FA3535"/>
<ellipse cx="537.471" cy="139.858" rx="13" ry="47.5" transform="rotate(8.74758 537.471 139.858)" fill="#FF1616"/>
<ellipse cx="561.24" cy="146.128" rx="13" ry="47.5" transform="rotate(39.8848 561.24 146.128)" fill="#FF5555"/>
<ellipse cx="556.128" cy="159.868" rx="13" ry="37" transform="rotate(51.0886 556.128 159.868)" fill="#DD2828"/>
<ellipse cx="525.093" cy="138.554" rx="13" ry="47.5" transform="rotate(-8.06351 525.093 138.554)" fill="#FF8888"/>
<ellipse cx="532.151" cy="153.125" rx="13" ry="32" transform="rotate(0.560116 532.151 153.125)" fill="#D35151"/>
<ellipse cx="521.554" cy="174.66" rx="15.9989" ry="5.5" transform="rotate(48.0649 521.554 174.66)" fill="#75BF2A"/>
<ellipse cx="525.67" cy="171.468" rx="15.9989" ry="5.5" transform="rotate(75.3773 525.67 171.468)" fill="#75BF2A"/>
<ellipse cx="530.98" cy="170.54" rx="15.9989" ry="5.5" transform="rotate(97.8345 530.98 170.54)" fill="#75BF2A"/>
<ellipse cx="536.432" cy="172.338" rx="15.9989" ry="5.5" transform="rotate(117.705 536.432 172.338)" fill="#75BF2A"/>
<ellipse cx="541.067" cy="176.328" rx="15.9989" ry="5.5" transform="rotate(-19.7427 541.067 176.328)" fill="#75BF2A"/>
<ellipse cx="543.008" cy="181.915" rx="15.9989" ry="5.5" transform="rotate(-9.03634 543.008 181.915)" fill="#75BF2A"/>
<ellipse cx="327.999" cy="235.499" rx="13" ry="47.5" fill="#FF0000"/>
<ellipse cx="353.389" cy="245.816" rx="13" ry="47.5" transform="rotate(39.7936 353.389 245.816)" fill="#F99494"/>
<ellipse cx="295.001" cy="250.129" rx="13" ry="47.5" transform="rotate(-50.7305 295.001 250.129)" fill="#FA3535"/>
<ellipse cx="316.143" cy="238.246" rx="13" ry="47.5" transform="rotate(-15.3964 316.143 238.246)" fill="#FF1616"/>
<ellipse cx="340.398" cy="234.244" rx="13" ry="47.5" transform="rotate(15.7409 340.398 234.244)" fill="#FF5555"/>
<ellipse cx="341.353" cy="248.873" rx="13" ry="37" transform="rotate(26.9447 341.353 248.873)" fill="#DD2828"/>
<ellipse cx="304.315" cy="242.118" rx="13" ry="47.5" transform="rotate(-32.2075 304.315 242.118)" fill="#FF8888"/>
<ellipse cx="316.716" cy="252.527" rx="13" ry="32" transform="rotate(-23.5838 316.716 252.527)" fill="#D35151"/>
<ellipse cx="315.854" cy="276.514" rx="15.9989" ry="5.5" transform="rotate(23.921 315.854 276.514)" fill="#75BF2A"/>
<ellipse cx="318.306" cy="271.917" rx="15.9989" ry="5.5" transform="rotate(51.2333 318.306 271.917)" fill="#75BF2A"/>
<ellipse cx="322.771" cy="268.899" rx="15.9989" ry="5.5" transform="rotate(73.6906 322.771 268.899)" fill="#75BF2A"/>
<ellipse cx="328.483" cy="268.309" rx="15.9989" ry="5.5" transform="rotate(93.5615 328.483 268.309)" fill="#75BF2A"/>
<ellipse cx="334.342" cy="270.054" rx="15.9989" ry="5.5" transform="rotate(-43.8867 334.342 270.054)" fill="#75BF2A"/>
<ellipse cx="338.399" cy="274.358" rx="15.9989" ry="5.5" transform="rotate(-33.1803 338.399 274.358)" fill="#75BF2A"/>
<ellipse cx="625.572" cy="356.937" rx="13" ry="47.5" transform="rotate(-17.4943 625.572 356.937)" fill="#FF0000"/>
<ellipse cx="652.89" cy="359.145" rx="13" ry="47.5" transform="rotate(22.2993 652.89 359.145)" fill="#F99494"/>
<ellipse cx="598.499" cy="380.81" rx="13" ry="47.5" transform="rotate(-68.2248 598.499 380.81)" fill="#FA3535"/>
<ellipse cx="615.09" cy="363.121" rx="13" ry="47.5" transform="rotate(-32.8907 615.09 363.121)" fill="#FF1616"/>
<ellipse cx="637.021" cy="352.014" rx="13" ry="47.5" transform="rotate(-1.75343 637.021 352.014)" fill="#FF5555"/>
<ellipse cx="642.329" cy="365.678" rx="13" ry="37" transform="rotate(9.45034 642.329 365.678)" fill="#DD2828"/>
<ellipse cx="604.974" cy="370.37" rx="13" ry="47.5" transform="rotate(-49.7018 604.974 370.37)" fill="#FF8888"/>
<ellipse cx="619.93" cy="376.57" rx="13" ry="32" transform="rotate(-41.0782 619.93 376.57)" fill="#D35151"/>
<ellipse cx="626.318" cy="399.706" rx="15.9989" ry="5.5" transform="rotate(6.42662 626.318 399.706)" fill="#75BF2A"/>
<ellipse cx="627.274" cy="394.585" rx="15.9989" ry="5.5" transform="rotate(33.739 627.274 394.585)" fill="#75BF2A"/>
<ellipse cx="630.626" cy="390.364" rx="15.9989" ry="5.5" transform="rotate(56.1963 630.626 390.364)" fill="#75BF2A"/>
<ellipse cx="635.896" cy="388.084" rx="15.9989" ry="5.5" transform="rotate(76.0672 635.896 388.084)" fill="#75BF2A"/>
<ellipse cx="642.01" cy="387.987" rx="15.9989" ry="5.5" transform="rotate(-61.381 642.01 387.987)" fill="#75BF2A"/>
<ellipse cx="647.173" cy="390.873" rx="15.9989" ry="5.5" transform="rotate(-50.6746 647.173 390.873)" fill="#75BF2A"/>
<ellipse cx="301.999" cy="628.499" rx="13" ry="47.5" fill="#FF0000"/>
<ellipse cx="327.389" cy="638.816" rx="13" ry="47.5" transform="rotate(39.7936 327.389 638.816)" fill="#F99494"/>
<ellipse cx="269.001" cy="643.129" rx="13" ry="47.5" transform="rotate(-50.7305 269.001 643.129)" fill="#FA3535"/>
<ellipse cx="290.143" cy="631.246" rx="13" ry="47.5" transform="rotate(-15.3964 290.143 631.246)" fill="#FF1616"/>
<ellipse cx="314.398" cy="627.244" rx="13" ry="47.5" transform="rotate(15.7409 314.398 627.244)" fill="#FF5555"/>
<ellipse cx="315.353" cy="641.873" rx="13" ry="37" transform="rotate(26.9447 315.353 641.873)" fill="#DD2828"/>
<ellipse cx="278.315" cy="635.119" rx="13" ry="47.5" transform="rotate(-32.2075 278.315 635.119)" fill="#FF8888"/>
<ellipse cx="290.716" cy="645.527" rx="13" ry="32" transform="rotate(-23.5838 290.716 645.527)" fill="#D35151"/>
<ellipse cx="289.854" cy="669.514" rx="15.9989" ry="5.5" transform="rotate(23.921 289.854 669.514)" fill="#75BF2A"/>
<ellipse cx="292.306" cy="664.917" rx="15.9989" ry="5.5" transform="rotate(51.2333 292.306 664.917)" fill="#75BF2A"/>
<ellipse cx="296.771" cy="661.899" rx="15.9989" ry="5.5" transform="rotate(73.6906 296.771 661.899)" fill="#75BF2A"/>
<ellipse cx="302.483" cy="661.309" rx="15.9989" ry="5.5" transform="rotate(93.5615 302.483 661.309)" fill="#75BF2A"/>
<ellipse cx="308.342" cy="663.054" rx="15.9989" ry="5.5" transform="rotate(-43.8867 308.342 663.054)" fill="#75BF2A"/>
<ellipse cx="312.399" cy="667.358" rx="15.9989" ry="5.5" transform="rotate(-33.1803 312.399 667.358)" fill="#75BF2A"/>
</g>
<defs>
<filter id="filter0_d" x="74.9307" y="82.6753" width="1007.82" height="1440.82" filterUnits="userSpaceOnUse" color-interpolation-filters="sRGB">
<feFlood flood-opacity="0" result="BackgroundImageFix"/>
<feColorMatrix in="SourceAlpha" type="matrix" values="0 0 0 0 0 0 0 0 0 0 0 0 0 0 0 0 0 0 127 0"/>
<feOffset dy="4"/>
<feGaussianBlur stdDeviation="2"/>
<feColorMatrix type="matrix" values="0 0 0 0 0 0 0 0 0 0 0 0 0 0 0 0 0 0 0.25 0"/>
<feBlend mode="normal" in2="BackgroundImageFix" result="effect1_dropShadow"/>
<feBlend mode="normal" in="SourceGraphic" in2="effect1_dropShadow" result="shape"/>
</filter>
<filter id="filter1_d" x="446.209" y="164.712" width="109.787" height="1289.06" filterUnits="userSpaceOnUse" color-interpolation-filters="sRGB">
<feFlood flood-opacity="0" result="BackgroundImageFix"/>
<feColorMatrix in="SourceAlpha" type="matrix" values="0 0 0 0 0 0 0 0 0 0 0 0 0 0 0 0 0 0 127 0"/>
<feOffset dy="4"/>
<feGaussianBlur stdDeviation="2"/>
<feColorMatrix type="matrix" values="0 0 0 0 0 0 0 0 0 0 0 0 0 0 0 0 0 0 0.25 0"/>
<feBlend mode="normal" in2="BackgroundImageFix" result="effect1_dropShadow"/>
<feBlend mode="normal" in="SourceGraphic" in2="effect1_dropShadow" result="shape"/>
</filter>
</defs>
</svg>
