<svg width="1105" height="1415" viewBox="0 0 1105 1415" fill="none" xmlns="http://www.w3.org/2000/svg">
<g filter="url(#filter0_d)">
<path d="M546.137 1344.78H468.498C446.368 1026.3 441.957 875.863 468.498 413.121C495.039 -49.6219 582.047 -73.6723 541.312 467.132C500.576 1007.94 515.789 1043.89 546.137 1344.78Z" fill="#75BF2A"/>
</g>
<path d="M845.828 1414.5H156.159C162.459 1352.38 180.386 1332.49 241.634 1327.4C289.27 1255.87 327.338 1225.62 402.578 1288.37C469.626 1194.12 503.271 1205.63 576.355 1288.37C634.781 1270.56 665.575 1270.21 705.328 1343.87C795.156 1336.11 823.621 1353.89 845.828 1414.5Z" fill="#7E4533"/>
<path d="M491.098 605.815L506.322 548.954C506.322 548.954 497.187 590.02 652.26 501.57C807.332 413.121 752.741 501.57 652.26 548.954C551.778 596.338 491.098 605.815 491.098 605.815Z" fill="#75BF2A"/>
<path d="M501.103 256.303L489.452 219.258C489.452 219.258 496.442 246.012 377.773 188.387C259.105 130.762 300.88 188.387 377.773 219.258C454.667 250.129 501.103 256.303 501.103 256.303Z" fill="#75BF2A"/>
<path d="M493.708 555.495L482.057 425.205C482.057 425.205 457.74 521.249 339.071 318.577C220.402 115.904 269.355 274.536 346.248 383.111C423.141 491.685 493.708 555.495 493.708 555.495Z" fill="#75BF2A"/>
<path d="M501.103 366.865L510.572 329.82C510.572 329.82 504.89 356.574 601.341 298.949C697.792 241.324 663.838 298.949 601.341 329.82C538.844 360.691 501.103 366.865 501.103 366.865Z" fill="#75BF2A"/>
<path d="M466.738 884.025L456.679 744.158C456.679 744.158 462.714 845.173 360.252 627.602C257.789 410.031 293.859 627.602 360.252 744.158C426.644 860.714 466.738 884.025 466.738 884.025Z" fill="#75BF2A"/>
<path d="M861.146 409.908C908.025 432.665 1083.9 556.559 1078.64 578.453C1073.38 600.346 905.164 605.338 821.007 576.925C736.85 548.513 670.305 496.086 728.484 440.706C786.663 385.327 814.267 387.152 861.146 409.908Z" fill="#269200"/>
<path d="M730.778 473.178C729.833 473.749 729.529 474.979 730.1 475.924C730.671 476.87 731.9 477.173 732.846 476.602L730.778 473.178ZM1034.28 571.105C1035.38 571.023 1036.21 570.063 1036.12 568.961C1036.04 567.86 1035.08 567.034 1033.98 567.117L1034.28 571.105ZM732.846 476.602C761.814 459.111 786.252 456.891 808.789 463.045C831.477 469.242 852.423 483.967 874.284 500.835C917.787 534.403 964.625 576.337 1034.28 571.105L1033.98 567.117C966.161 572.21 920.624 531.54 876.728 497.669C854.89 480.818 833.381 465.615 809.843 459.187C786.153 452.717 760.594 455.175 730.778 473.178L732.846 476.602Z" fill="#75BF2A"/>
<path d="M542.532 479.286C506.422 511.772 379.906 670.092 389.645 689.577C399.385 709.062 549.11 674.477 616.828 627.929C684.547 581.381 731.125 516.228 666.861 477.426C602.598 438.623 578.642 446.801 542.532 479.286Z" fill="#269200"/>
<path d="M672.518 508.637C673.559 508.98 674.113 510.113 673.757 511.168C673.4 512.223 672.268 512.8 671.227 512.456L672.518 508.637ZM427.104 672.315C426.019 672.511 424.995 671.785 424.817 670.693C424.64 669.601 425.376 668.557 426.461 668.361L427.104 672.315ZM671.227 512.456C641.625 502.693 619.61 506.305 601.217 517.347C582.669 528.482 567.616 547.273 552.227 568.349C521.642 610.234 489.972 660.964 427.104 672.315L426.461 668.361C487.411 657.357 518.112 608.345 549.032 566C564.395 544.961 579.877 525.515 599.219 513.904C618.717 502.198 641.947 498.554 672.518 508.637L671.227 512.456Z" fill="#75BF2A"/>
<path d="M775.729 260.526C803.46 295.327 894.783 462.493 883.6 481.82C872.418 501.146 744.311 458.61 690.422 407.957C636.534 357.303 603.812 288.78 665.83 252.506C727.848 216.232 747.998 225.725 775.729 260.526Z" fill="#269200"/>
<path d="M656.441 283.997C655.397 284.318 654.823 285.442 655.158 286.507C655.494 287.573 656.612 288.176 657.655 287.855L656.441 283.997ZM852.745 462.379C853.809 462.667 854.885 462.028 855.149 460.953C855.413 459.878 854.764 458.773 853.7 458.486L852.745 462.379ZM657.655 287.855C685.086 279.412 703.94 284.176 718.633 296.181C733.53 308.352 744.377 328.13 755.259 350.335C766.066 372.388 776.869 396.751 791.66 417.333C806.501 437.985 825.475 455.016 852.745 462.379L853.7 458.486C827.591 451.436 809.331 435.145 794.852 414.997C780.323 394.779 769.721 370.865 758.807 348.593C747.967 326.472 736.776 305.878 721.088 293.059C705.196 280.075 684.919 275.232 656.441 283.997L657.655 287.855Z" fill="#75BF2A"/>
<path d="M526.084 327.687C509.521 366.509 466.431 534.33 480.381 544.044C494.331 553.757 596.613 464.324 632.498 401.79C668.384 339.256 681.943 272.564 620.033 272.615C558.124 272.666 542.646 288.864 526.084 327.687Z" fill="#269200"/>
<path d="M634.555 292.128C635.615 291.889 636.658 292.585 636.884 293.684C637.111 294.783 636.434 295.867 635.374 296.107L634.555 292.128ZM503.369 515.852C502.51 516.541 501.277 516.38 500.616 515.491C499.955 514.603 500.116 513.324 500.975 512.635L503.369 515.852ZM635.374 296.107C609.614 301.918 594.077 314.007 583.791 329.851C573.429 345.811 568.293 365.72 563.664 387.423C554.457 430.592 547.385 480.562 503.369 515.852L500.975 512.635C543.639 478.429 550.529 430.165 559.83 386.559C564.456 364.874 569.711 344.26 580.536 327.587C591.435 310.799 607.88 298.145 634.555 292.128L635.374 296.107Z" fill="#75BF2A"/>
<path d="M468.651 299.868C510.345 322.395 666.771 445.037 662.091 466.71C657.411 488.382 507.801 493.324 432.951 465.198C358.101 437.072 298.915 385.175 350.659 330.355C402.404 275.535 426.956 277.341 468.651 299.868Z" fill="#269200"/>
<path d="M352.504 362.534C351.587 363.15 351.344 364.393 351.96 365.31C352.576 366.227 353.818 366.47 354.735 365.854L352.504 362.534ZM622.671 459.456C623.772 459.364 624.589 458.397 624.497 457.296C624.405 456.196 623.438 455.378 622.338 455.47L622.671 459.456ZM354.735 365.854C380.44 348.58 402.057 346.42 421.971 352.473C442.075 358.584 460.665 373.119 480.12 389.827C518.754 423.006 560.526 464.651 622.671 459.456L622.338 455.47C562.212 460.496 521.825 420.371 482.726 386.793C463.314 370.122 444.144 355.032 423.134 348.646C401.933 342.201 379.082 344.673 352.504 362.534L354.735 365.854Z" fill="#75BF2A"/>
<path d="M201.6 186.026C175.806 199.473 79.0319 272.683 81.9272 285.62C84.8225 298.558 177.38 301.507 223.686 284.718C269.992 267.929 306.608 236.949 274.596 204.225C242.584 171.501 227.395 172.579 201.6 186.026Z" fill="#269200"/>
<path d="M273.852 222.747C274.779 223.348 275.043 224.586 274.442 225.513C273.841 226.44 272.603 226.704 271.676 226.103L273.852 222.747ZM106.257 282.094C105.156 282.005 104.335 281.041 104.424 279.94C104.513 278.839 105.477 278.018 106.578 278.107L106.257 282.094ZM271.676 226.103C255.936 215.897 242.779 214.657 230.681 218.205C218.407 221.805 207.015 230.383 194.974 240.36C171.15 260.103 145.057 285.224 106.257 282.094L106.578 278.107C143.422 281.079 168.157 257.388 192.422 237.28C204.426 227.333 216.394 218.226 229.556 214.366C242.894 210.454 257.247 211.979 273.852 222.747L271.676 226.103Z" fill="#75BF2A"/>
<path d="M350.145 234.259C366.535 242.216 428.028 285.534 426.188 293.189C424.349 300.843 365.535 302.589 336.111 292.655C306.686 282.721 283.42 264.39 303.761 245.027C324.103 225.665 333.754 226.303 350.145 234.259Z" fill="#269200"/>
<path d="M303.891 255.268C302.945 255.839 302.642 257.068 303.213 258.014C303.784 258.959 305.013 259.263 305.959 258.692L303.891 255.268ZM410.776 291.917C411.877 291.835 412.703 290.875 412.621 289.773C412.538 288.672 411.578 287.846 410.476 287.929L410.776 291.917ZM305.959 258.692C315.811 252.743 323.991 252.044 331.496 254.093C339.152 256.184 346.292 261.177 353.944 267.081C369.026 278.719 385.825 293.791 410.776 291.917L410.476 287.929C387.361 289.665 371.863 275.856 356.387 263.914C348.76 258.029 341.056 252.558 332.55 250.235C323.892 247.87 314.591 248.807 303.891 255.268L305.959 258.692Z" fill="#75BF2A"/>
<path d="M350.145 234.259C366.535 242.216 428.028 285.534 426.188 293.189C424.349 300.843 365.535 302.589 336.111 292.655C306.686 282.721 283.42 264.39 303.761 245.027C324.103 225.665 333.754 226.303 350.145 234.259Z" fill="#269200"/>
<path d="M303.891 255.268C302.945 255.839 302.642 257.068 303.213 258.014C303.784 258.959 305.013 259.263 305.959 258.692L303.891 255.268ZM410.776 291.917C411.877 291.835 412.703 290.875 412.621 289.773C412.538 288.672 411.578 287.846 410.476 287.929L410.776 291.917ZM305.959 258.692C315.811 252.743 323.991 252.044 331.496 254.093C339.152 256.184 346.292 261.177 353.944 267.081C369.026 278.719 385.825 293.791 410.776 291.917L410.476 287.929C387.361 289.665 371.863 275.856 356.387 263.914C348.76 258.029 341.056 252.558 332.55 250.235C323.892 247.87 314.591 248.807 303.891 255.268L305.959 258.692Z" fill="#75BF2A"/>
<path d="M350.145 234.259C366.535 242.216 428.028 285.534 426.188 293.189C424.349 300.843 365.535 302.589 336.111 292.655C306.686 282.721 283.42 264.39 303.761 245.027C324.103 225.665 333.754 226.303 350.145 234.259Z" fill="#269200"/>
<path d="M303.891 255.268C302.945 255.839 302.642 257.068 303.213 258.014C303.784 258.959 305.013 259.263 305.959 258.692L303.891 255.268ZM410.776 291.917C411.877 291.835 412.703 290.875 412.621 289.773C412.538 288.672 411.578 287.846 410.476 287.929L410.776 291.917ZM305.959 258.692C315.811 252.743 323.991 252.044 331.496 254.093C339.152 256.184 346.292 261.177 353.944 267.081C369.026 278.719 385.825 293.791 410.776 291.917L410.476 287.929C387.361 289.665 371.863 275.856 356.387 263.914C348.76 258.029 341.056 252.558 332.55 250.235C323.892 247.87 314.591 248.807 303.891 255.268L305.959 258.692Z" fill="#75BF2A"/>
<path d="M488.611 641.231C520.992 671.792 636.127 828.151 628.461 851.19C620.795 874.229 490.314 858.379 430.132 816.984C369.95 775.589 327.302 710.42 381.277 657.813C435.253 605.206 456.229 610.67 488.611 641.231Z" fill="#269200"/>
<path d="M377.161 693.526C376.221 694.095 375.928 695.326 376.505 696.275C377.083 697.224 378.312 697.532 379.252 696.962L377.161 693.526ZM595.601 837.453C596.703 837.516 597.637 836.672 597.688 835.567C597.74 834.463 596.888 833.516 595.787 833.452L595.601 837.453ZM379.252 696.962C391.847 689.33 402.844 685.753 412.645 685.214C422.42 684.676 431.142 687.152 439.23 691.855C455.538 701.338 469.196 719.812 483.294 740.88C497.286 761.791 511.646 785.149 529.245 803.592C546.901 822.095 568.007 835.866 595.601 837.453L595.787 833.452C569.548 831.944 549.342 818.89 532.114 800.837C514.829 782.722 500.732 759.79 486.601 738.671C472.576 717.712 458.445 698.419 441.204 688.393C432.517 683.342 423.024 680.627 412.383 681.213C401.768 681.797 390.147 685.658 377.161 693.526L379.252 696.962Z" fill="#75BF2A"/>
<path d="M357.071 469.085C393.138 478.163 536.811 542.992 538.067 561.503C539.324 580.015 428.708 616.659 366.66 610.299C304.611 603.94 249.046 574.978 275.662 519.443C302.277 463.908 321.004 460.007 357.071 469.085Z" fill="#269200"/>
<path d="M283.74 544.869C283.051 545.745 283.185 547.008 284.041 547.69C284.896 548.373 286.149 548.216 286.839 547.341L283.74 544.869ZM507.178 564.554C508.208 564.15 508.733 562.984 508.349 561.95C507.966 560.916 506.82 560.406 505.79 560.81L507.178 564.554ZM286.839 547.341C302.165 527.888 317.675 521.532 333.668 522.064C349.894 522.603 366.875 530.225 385.077 539.469C403.139 548.642 422.339 559.377 442.563 565.571C462.866 571.789 484.382 573.498 507.178 564.554L505.79 560.81C484.063 569.334 463.502 567.764 443.774 561.722C423.967 555.656 405.183 545.151 386.911 535.871C368.778 526.662 351.073 518.618 333.864 518.046C316.421 517.466 299.746 524.555 283.74 544.869L286.839 547.341Z" fill="#75BF2A"/>
<path d="M177.488 557.419C152.36 588.236 69.6378 732.755 79.7891 747.638C89.9404 762.522 206.087 716.95 254.927 670.959C303.766 624.968 333.401 566.124 277.142 541.631C220.883 517.138 202.616 526.601 177.488 557.419Z" fill="#269200"/>
<path d="M285.513 566.268C286.586 566.467 287.282 567.517 287.067 568.614C286.852 569.711 285.808 570.439 284.735 570.24L285.513 566.268ZM107.915 729.495C106.87 729.847 105.759 729.274 105.433 728.216C105.107 727.158 105.69 726.016 106.735 725.664L107.915 729.495ZM284.735 570.24C259.885 565.636 242.756 571.108 229.404 582.198C215.905 593.41 206.09 610.496 196.241 629.574C176.704 667.42 157.252 712.9 107.915 729.495L106.735 725.664C154.192 709.702 172.931 666.123 192.741 627.747C202.565 608.715 212.712 590.9 226.934 579.088C241.303 567.153 259.654 561.477 285.513 566.268L284.735 570.24Z" fill="#75BF2A"/>
<path d="M244.334 281.324C217.851 296.457 118.492 378.844 121.464 393.403C124.437 407.962 219.467 411.281 267.01 392.388C314.554 373.494 352.148 338.631 319.28 301.804C286.413 264.978 270.818 266.191 244.334 281.324Z" fill="#269200"/>
<path d="M318.559 322.906C319.459 323.546 319.67 324.795 319.031 325.695C318.391 326.595 317.142 326.806 316.242 326.166L318.559 322.906ZM146.433 389.184C145.333 389.086 144.52 388.115 144.617 387.015C144.714 385.915 145.685 385.102 146.786 385.199L146.433 389.184ZM316.242 326.166C300.077 314.678 286.603 313.302 274.228 317.281C261.636 321.328 249.937 330.981 237.567 342.217C225.31 353.349 212.444 365.988 197.797 375.345C183.078 384.748 166.41 390.95 146.433 389.184L146.786 385.199C165.641 386.866 181.435 381.051 195.643 371.974C209.922 362.852 222.446 350.547 234.877 339.256C247.194 328.069 259.48 317.82 273.003 313.473C286.743 309.056 301.514 310.792 318.559 322.906L316.242 326.166Z" fill="#75BF2A"/>
<path d="M660.013 32.5382C703.135 50.0461 864.917 145.365 860.077 162.209C855.236 179.054 700.503 182.894 623.09 161.034C545.678 139.175 484.465 98.8397 537.982 56.2329C591.498 13.626 616.891 15.0302 660.013 32.5382Z" fill="#269200"/>
<path d="M540.142 80.7482C539.156 81.2462 538.76 82.4491 539.258 83.4351C539.756 84.4211 540.959 84.8167 541.945 84.3188L540.142 80.7482ZM819.26 157.019C820.362 156.95 821.2 156 821.13 154.898C821.061 153.795 820.111 152.958 819.009 153.027L819.26 157.019ZM541.945 84.3188C568.589 70.8631 591.11 69.1391 611.891 73.886C632.775 78.6563 652.04 89.9864 672.138 102.957C712.189 128.805 755.252 161.04 819.26 157.019L819.009 153.027C756.56 156.95 714.651 125.633 674.307 99.596C654.207 86.6241 634.42 74.9289 612.782 69.9864C591.041 65.0204 567.571 66.8961 540.142 80.7482L541.945 84.3188Z" fill="#75BF2A"/>
<path d="M463.242 193.645C479.632 201.602 541.125 244.92 539.285 252.574C537.445 260.229 478.632 261.975 449.208 252.04C419.783 242.106 396.517 223.776 416.858 204.413C437.199 185.05 446.851 185.689 463.242 193.645Z" fill="#269200"/>
<path d="M416.988 214.654C416.042 215.225 415.738 216.454 416.309 217.399C416.88 218.345 418.11 218.649 419.055 218.078L416.988 214.654ZM523.873 251.303C524.974 251.22 525.8 250.26 525.717 249.159C525.635 248.057 524.675 247.232 523.573 247.314L523.873 251.303ZM419.055 218.078C428.908 212.129 437.088 211.429 444.593 213.479C452.249 215.57 459.389 220.563 467.04 226.467C482.122 238.104 498.922 253.177 523.873 251.303L523.573 247.314C500.458 249.05 484.96 235.241 469.484 223.3C461.857 217.415 454.153 211.944 445.647 209.62C436.989 207.256 427.688 208.193 416.988 214.654L419.055 218.078Z" fill="#75BF2A"/>
<path d="M261.529 132.936C241.691 140.203 167.264 179.767 169.49 186.758C171.717 193.749 242.901 195.343 278.515 186.27C314.128 177.197 342.289 160.455 317.669 142.771C293.049 125.086 281.367 125.669 261.529 132.936Z" fill="#269200"/>
<path d="M317.089 151.867C318.094 152.325 318.538 153.511 318.08 154.517C317.622 155.522 316.436 155.965 315.431 155.507L317.089 151.867ZM188.212 185.772C187.109 185.709 186.266 184.765 186.328 183.662C186.391 182.559 187.336 181.716 188.438 181.778L188.212 185.772ZM315.431 155.507C303.363 150.009 293.215 149.321 283.865 151.248C274.433 153.191 265.697 157.815 256.458 163.195C238.088 173.891 218.008 187.461 188.212 185.772L188.438 181.778C216.819 183.387 235.83 170.578 254.445 159.739C263.698 154.351 272.928 149.418 283.058 147.33C293.271 145.225 304.28 146.031 317.089 151.867L315.431 155.507Z" fill="#75BF2A"/>
<path d="M324.239 107.914C340.474 99.6211 411.513 76.9324 416.119 83.209C420.726 89.4856 385.257 138.188 359.383 155.795C333.509 173.402 305.171 180.773 303.329 152.197C301.488 123.62 308.004 116.206 324.239 107.914Z" fill="#269200"/>
<path d="M311.104 158.413C310.944 159.524 311.684 160.565 312.757 160.739C313.83 160.914 314.83 160.156 314.99 159.045L311.104 158.413ZM405.552 94.9263C406.165 94.0039 405.936 92.7358 405.04 92.094C404.145 91.4523 402.922 91.6798 402.309 92.6022L405.552 94.9263ZM314.99 159.045C316.68 147.33 321.284 140.236 327.551 135.418C333.929 130.514 342.165 127.854 351.386 125.354C369.593 120.417 391.389 116.248 405.552 94.9263L402.309 92.6022C389.127 112.448 369.002 116.363 350.363 121.417C341.161 123.912 332.243 126.724 325.193 132.144C318.032 137.649 312.934 145.73 311.104 158.413L314.99 159.045Z" fill="#75BF2A"/>
<path d="M378.984 29.1057C335.805 46.1211 175.138 137.929 180.827 153.773C186.516 169.616 344.439 171.482 422.383 149.97C500.326 128.457 560.925 89.6902 504.456 50.0832C447.987 10.4763 422.163 12.0903 378.984 29.1057Z" fill="#269200"/>
<path d="M503.275 73.1231C504.298 73.5796 504.786 74.7641 504.365 75.7686C503.944 76.7731 502.774 77.2173 501.752 76.7607L503.275 73.1231ZM222.225 148.519C221.119 148.468 220.233 147.532 220.244 146.43C220.256 145.328 221.162 144.476 222.268 144.528L222.225 148.519ZM501.752 76.7607C473.961 64.3524 450.881 62.9729 429.862 67.6997C408.757 72.4458 389.609 83.3701 369.704 95.8383C330.01 120.703 287.592 151.584 222.225 148.519L222.268 144.528C286.18 147.524 327.544 117.454 367.488 92.4323C387.403 79.9574 407.038 68.7048 428.848 63.8C450.746 58.8758 474.715 60.3711 503.275 73.1231L501.752 76.7607Z" fill="#75BF2A"/>
<ellipse cx="497.5" cy="175.441" rx="68.5" ry="88" fill="#F5A477"/>
<path d="M517.192 71.4402C518.213 73.5306 519.674 73.94 523.192 73.8439C516.207 80.351 514.21 86.1504 513 99.2835L507 96.8798C506.31 85.5721 507.93 79.8277 517.192 71.4402Z" fill="#A75A5A"/>
<ellipse cx="516.583" cy="175.761" rx="68.5" ry="88" transform="rotate(7.63412 516.583 175.761)" fill="#F49082"/>
<ellipse cx="282.499" cy="253.441" rx="68.5" ry="88" fill="#F5A477"/>
<path d="M302.191 149.44C303.212 151.531 304.674 151.94 308.191 151.844C301.206 158.351 299.209 164.15 297.999 177.283L291.999 174.88C291.309 163.572 292.929 157.828 302.191 149.44Z" fill="#A75A5A"/>
<ellipse cx="301.582" cy="253.761" rx="68.5" ry="88" transform="rotate(7.63412 301.582 253.761)" fill="#F49082"/>
<ellipse rx="64.334" ry="88" transform="matrix(-1 0 0 1 316.666 680.441)" fill="#F5A477"/>
<path d="M298.172 576.44C297.213 578.531 295.84 578.94 292.537 578.844C299.097 585.351 300.972 591.15 302.109 604.283L307.744 601.88C308.392 590.572 306.871 584.828 298.172 576.44Z" fill="#A75A5A"/>
<ellipse rx="64.4099" ry="87.9084" transform="matrix(-0.989969 0.141283 0.124897 0.99217 298.744 680.761)" fill="#F49082"/>
<ellipse cx="620.5" cy="384.441" rx="68.5" ry="88" fill="#F5A477"/>
<path d="M640.192 280.44C641.213 282.531 642.674 282.94 646.192 282.844C639.207 289.351 637.21 295.15 636 308.283L630 305.88C629.31 294.572 630.93 288.828 640.192 280.44Z" fill="#A75A5A"/>
<ellipse cx="639.583" cy="384.761" rx="68.5" ry="88" transform="rotate(7.63412 639.583 384.761)" fill="#F49082"/>
<defs>
<filter id="filter0_d" x="446.209" y="63.7124" width="109.787" height="1289.06" filterUnits="userSpaceOnUse" color-interpolation-filters="sRGB">
<feFlood flood-opacity="0" result="BackgroundImageFix"/>
<feColorMatrix in="SourceAlpha" type="matrix" values="0 0 0 0 0 0 0 0 0 0 0 0 0 0 0 0 0 0 127 0"/>
<feOffset dy="4"/>
<feGaussianBlur stdDeviation="2"/>
<feColorMatrix type="matrix" values="0 0 0 0 0 0 0 0 0 0 0 0 0 0 0 0 0 0 0.25 0"/>
<feBlend mode="normal" in2="BackgroundImageFix" result="effect1_dropShadow"/>
<feBlend mode="normal" in="SourceGraphic" in2="effect1_dropShadow" result="shape"/>
</filter>
</defs>
</svg>
