<svg width="999" height="1367" viewBox="0 0 999 1367" fill="none" xmlns="http://www.w3.org/2000/svg">
<ellipse cx="270.73" cy="885.395" rx="123.182" ry="60.1419" transform="rotate(-10 270.73 885.395)" fill="#C15F27"/>
<path d="M475.914 368.46C470.031 829.758 394.097 684.376 323.748 876.496L334.796 919.519C334.796 919.519 552.073 881.854 532.654 384.542C532.654 135.034 481.798 -92.8382 475.914 368.46Z" fill="#8CE92F"/>
<path d="M435.7 1130.46C433.387 756.535 368.069 995.077 340.415 839.347C340.415 839.347 472.68 765.384 465.046 1168.5C465.046 1370.75 438.013 1504.38 435.7 1130.46Z" fill="#8CE92F"/>
<path d="M364.852 1054.07C366.597 912.928 389.115 957.41 409.978 898.627L406.701 885.464C406.701 885.464 342.267 896.988 348.026 1049.15C348.026 1125.49 363.108 1195.21 364.852 1054.07Z" fill="#8CE92F"/>
<path d="M521.453 1086.08C520.155 953.934 444.396 959.379 429.542 949.959L431.98 937.635C431.98 937.635 538.261 939.011 533.975 1081.47C533.975 1152.94 522.752 1218.22 521.453 1086.08Z" fill="#8CE92F"/>
<path d="M550.827 331.102C475.871 238.468 383.082 311.899 363.155 317.696C343.228 323.493 334.17 322.044 354.268 304.032C374.365 286.019 513.027 198.648 575.697 311.935C613.999 363.697 625.782 423.736 550.827 331.102Z" fill="#8CE92F"/>
<ellipse cx="274.476" cy="899.699" rx="123.182" ry="60.1419" fill="#9F5841"/>
<path d="M700.282 252.817C744.485 295.411 898.653 508.295 886.286 537.207C873.918 566.118 689.057 532.695 605.935 473.374C522.814 414.054 466.163 325.858 546.353 263.476C626.543 201.094 656.079 210.224 700.282 252.817Z" fill="#269200"/>
<path d="M557.977 279.154C556.877 279.053 555.903 279.862 555.802 280.962C555.7 282.062 556.509 283.036 557.609 283.137L557.977 279.154ZM840.367 515.652C841.463 515.786 842.461 515.006 842.595 513.91C842.729 512.814 841.949 511.816 840.852 511.682L840.367 515.652ZM557.609 283.137C601.295 287.174 631.049 302.399 653.55 323.193C676.117 344.048 691.479 370.58 706.249 397.468C735.69 451.064 762.723 506.157 840.367 515.652L840.852 511.682C765.525 502.47 739.369 449.453 709.755 395.542C694.998 368.676 679.365 341.604 656.265 320.256C633.098 298.847 602.512 283.269 557.977 279.154L557.609 283.137Z" fill="#75BF2A"/>
<path d="M281.198 246.447C233.032 281.935 59.8923 460.206 70.1015 484.867C80.3108 509.528 270.166 483.707 359.078 434.573C447.99 385.44 512.409 311.486 436.205 257.555C360.001 203.623 329.364 210.959 281.198 246.447Z" fill="#269200"/>
<path d="M432.378 269.392C433.482 269.423 434.352 270.342 434.322 271.446C434.292 272.551 433.372 273.421 432.268 273.391L432.378 269.392ZM118.407 467.532C117.307 467.629 116.336 466.816 116.239 465.716C116.142 464.615 116.956 463.645 118.056 463.548L118.407 467.532ZM432.268 273.391C356.463 271.305 317.597 315.629 277.815 362.997C238.115 410.267 197.529 460.558 118.407 467.532L118.056 463.548C195.322 456.737 234.93 407.84 274.752 360.424C314.492 313.107 354.478 267.249 432.378 269.392L432.268 273.391Z" fill="#75BF2A"/>
<path d="M683.553 41.1935C744.07 66.1069 971.112 201.744 964.32 225.713C957.527 249.681 740.377 255.146 631.737 224.04C523.097 192.935 437.193 135.539 512.297 74.9105C587.401 14.282 623.036 16.2801 683.553 41.1935Z" fill="#269200"/>
<path d="M515.683 110.555C514.7 111.059 514.311 112.264 514.815 113.247C515.318 114.23 516.523 114.619 517.506 114.115L515.683 110.555ZM906.99 217.482C908.093 217.412 908.929 216.461 908.859 215.359C908.789 214.257 907.838 213.42 906.736 213.49L906.99 217.482ZM517.506 114.115C555.054 94.8888 586.844 92.4061 616.195 99.204C645.651 106.026 672.792 122.222 700.998 140.68C757.26 177.497 817.467 223.184 906.99 217.482L906.736 213.49C818.791 219.092 759.75 174.346 703.188 137.332C674.981 118.875 647.315 102.306 617.097 95.3071C586.774 88.2839 554.021 90.9235 515.683 110.555L517.506 114.115Z" fill="#75BF2A"/>
<path d="M357.55 57.5918C313.023 77.5225 145.972 186.032 150.97 205.207C155.968 224.382 315.741 228.754 395.675 203.869C475.609 178.985 538.815 133.068 483.556 84.5654C428.296 36.0626 402.077 37.6611 357.55 57.5918Z" fill="#269200"/>
<path d="M481.367 112.757C482.333 113.295 482.679 114.512 482.142 115.478C481.605 116.443 480.387 116.789 479.422 116.252L481.367 112.757ZM193.108 199.021C192.006 198.944 191.174 197.989 191.251 196.887C191.327 195.785 192.282 194.954 193.384 195.03L193.108 199.021ZM479.422 116.252C451.915 100.938 428.691 98.9854 407.268 104.38C385.718 109.807 365.829 122.701 345.07 137.471C303.736 166.88 259.248 203.601 193.108 199.021L193.384 195.03C257.819 199.493 301.072 163.867 342.751 134.212C363.499 119.449 383.934 106.131 406.291 100.501C428.775 94.8395 453.039 96.9851 481.367 112.757L479.422 116.252Z" fill="#75BF2A"/>
</svg>
