<svg width="751" height="574" viewBox="0 0 751 574" fill="none" xmlns="http://www.w3.org/2000/svg">
<ellipse cx="181.83" cy="462.259" rx="170" ry="83" transform="rotate(-10 181.83 462.259)" fill="#C15F27"/>
<path d="M434.358 222.888C428.5 469.5 325.044 383.181 255 485.889L266 508.889C266 508.889 482.334 488.753 463 222.888C463 89.4998 440.216 -23.7242 434.358 222.888Z" fill="#8CE92F"/>
<ellipse cx="187" cy="482" rx="170" ry="83" fill="#9F5841"/>
<path d="M340 9.17532C298 17.1753 133 76.1753 133 93.6753C133 111.175 267 147.675 340 142.675C413 137.675 476.5 111.175 440.5 58.1753C404.5 5.17527 382 1.17537 340 9.17532Z" fill="#269200"/>
<path d="M435.935 78.9546C436.816 79.6212 436.99 80.8755 436.323 81.7563C435.657 82.6371 434.403 82.8109 433.522 82.1443L435.935 78.9546ZM194.555 102.643C193.482 102.382 192.823 101.301 193.083 100.228C193.344 99.1542 194.425 98.4953 195.499 98.7558L194.555 102.643ZM433.522 82.1443C413.62 67.0842 395.407 62.4027 377.68 63.3442C359.845 64.2914 342.36 70.9316 323.898 78.8446C287.137 94.6002 246.812 115.328 194.555 102.643L195.499 98.7558C246.219 111.068 285.232 91.0649 322.322 75.1681C340.785 67.2548 358.853 60.3385 377.468 59.3498C396.192 58.3553 415.325 63.3585 435.935 78.9546L433.522 82.1443Z" fill="#75BF2A"/>
<path d="M554.957 29.1529C592.638 46.7841 734.006 142.775 729.776 159.737C725.547 176.7 590.338 180.567 522.694 158.554C455.05 136.54 401.561 95.9213 448.325 53.0145C495.088 10.1076 517.277 11.5217 554.957 29.1529Z" fill="#269200"/>
<path d="M449.994 77.7713C449.039 78.3269 448.716 79.5513 449.271 80.5059C449.827 81.4606 451.051 81.784 452.006 81.2284L449.994 77.7713ZM694.144 154.495C695.246 154.415 696.075 153.457 695.995 152.355C695.915 151.254 694.957 150.425 693.856 150.505L694.144 154.495ZM452.006 81.2284C475.213 67.7219 494.765 66.0175 512.788 70.762C530.95 75.5433 547.735 86.9104 565.306 99.9795C600.246 125.967 638.007 158.559 694.144 154.495L693.856 150.505C639.493 154.441 603.004 123.033 567.694 96.77C550.14 83.7142 532.8 71.8938 513.806 66.8938C494.673 61.8571 474.037 63.7778 449.994 77.7713L452.006 81.2284Z" fill="#75BF2A"/>
</svg>
