<svg width="1105" height="1446" viewBox="0 0 1105 1446" fill="none" xmlns="http://www.w3.org/2000/svg">
<g filter="url(#filter0_d)">
<path d="M546.138 1375.78H468.499C446.369 1057.31 441.958 906.866 468.499 444.124C495.04 -18.619 582.048 -42.6694 541.313 498.135C500.577 1038.94 515.79 1074.89 546.138 1375.78Z" fill="#75BF2A"/>
</g>
<path d="M845.828 1445.5H156.159C162.459 1383.39 180.386 1363.49 241.634 1358.4C289.27 1286.87 327.338 1256.62 402.578 1319.37C469.626 1225.12 503.271 1236.63 576.355 1319.37C634.781 1301.57 665.575 1301.21 705.328 1374.88C795.156 1367.11 823.621 1384.89 845.828 1445.5Z" fill="#7E4533"/>
<path d="M491.099 636.818L506.323 579.957C506.323 579.957 497.188 621.023 652.261 532.573C807.333 444.124 752.742 532.573 652.261 579.957C551.779 627.341 491.099 636.818 491.099 636.818Z" fill="#75BF2A"/>
<path d="M501.104 287.306L489.453 250.261C489.453 250.261 496.443 277.015 377.774 219.39C259.106 161.765 300.881 219.39 377.774 250.261C454.668 281.131 501.104 287.306 501.104 287.306Z" fill="#75BF2A"/>
<path d="M493.709 586.498L482.058 456.208C482.058 456.208 457.741 552.252 339.072 349.579C220.403 146.907 269.356 305.539 346.249 414.114C423.142 522.688 493.709 586.498 493.709 586.498Z" fill="#75BF2A"/>
<path d="M501.104 397.868L510.573 360.823C510.573 360.823 504.891 387.577 601.342 329.952C697.793 272.327 663.839 329.952 601.342 360.823C538.845 391.693 501.104 397.868 501.104 397.868Z" fill="#75BF2A"/>
<path d="M466.739 915.027L456.68 775.16C456.68 775.16 462.715 876.176 360.253 658.605C257.79 441.034 293.86 658.605 360.253 775.16C426.645 891.716 466.739 915.027 466.739 915.027Z" fill="#75BF2A"/>
<path d="M861.146 440.911C908.025 463.667 1083.9 587.561 1078.64 609.455C1073.38 631.349 905.164 636.34 821.007 607.928C736.85 579.515 670.305 527.088 728.484 471.709C786.663 416.329 814.267 418.154 861.146 440.911Z" fill="#269200"/>
<path d="M730.778 504.181C729.832 504.752 729.528 505.981 730.099 506.927C730.67 507.872 731.9 508.176 732.845 507.605L730.778 504.181ZM1034.28 602.108C1035.38 602.025 1036.21 601.065 1036.12 599.964C1036.04 598.862 1035.08 598.036 1033.98 598.119L1034.28 602.108ZM732.845 507.605C761.813 490.114 786.252 487.893 808.788 494.048C831.476 500.244 852.422 514.969 874.284 531.838C917.786 565.405 964.624 607.339 1034.28 602.108L1033.98 598.119C966.16 603.213 920.624 562.542 876.728 528.671C854.89 511.821 833.381 496.618 809.842 490.189C786.153 483.72 760.594 486.178 730.778 504.181L732.845 507.605Z" fill="#75BF2A"/>
<path d="M542.532 510.289C506.422 542.775 379.906 701.095 389.646 720.58C399.385 740.065 549.111 705.48 616.829 658.932C684.547 612.384 731.125 547.231 666.862 508.428C602.598 469.626 578.642 477.804 542.532 510.289Z" fill="#269200"/>
<path d="M672.518 539.64C673.558 539.983 674.113 541.116 673.756 542.171C673.4 543.226 672.268 543.803 671.227 543.459L672.518 539.64ZM427.104 703.318C426.018 703.514 424.994 702.788 424.817 701.696C424.639 700.604 425.375 699.56 426.461 699.364L427.104 703.318ZM671.227 543.459C641.625 533.696 619.609 537.308 601.217 548.35C582.668 559.485 567.616 578.276 552.226 599.352C521.642 641.237 489.971 691.967 427.104 703.318L426.461 699.364C487.411 688.36 518.112 639.348 549.032 597.003C564.394 575.964 579.877 556.518 599.219 544.906C618.716 533.201 641.947 529.557 672.518 539.64L671.227 543.459Z" fill="#75BF2A"/>
<path d="M775.729 291.529C803.46 326.33 894.783 493.496 883.6 512.822C872.418 532.149 744.311 489.613 690.422 438.96C636.534 388.306 603.812 319.782 665.83 283.508C727.848 247.234 747.998 256.728 775.729 291.529Z" fill="#269200"/>
<path d="M656.441 315C655.398 315.321 654.823 316.445 655.159 317.51C655.494 318.576 656.612 319.179 657.656 318.858L656.441 315ZM852.745 493.382C853.809 493.669 854.886 493.031 855.15 491.956C855.413 490.881 854.765 489.776 853.701 489.489L852.745 493.382ZM657.656 318.858C685.087 310.415 703.941 315.179 718.634 327.184C733.53 339.355 744.378 359.133 755.259 381.338C766.066 403.391 776.87 427.754 791.66 448.336C806.501 468.988 825.475 486.019 852.745 493.382L853.701 489.489C827.592 482.439 809.332 466.148 794.853 446C780.324 425.782 769.722 401.868 758.807 379.595C747.967 357.475 736.777 336.881 721.089 324.062C705.197 311.078 684.92 306.235 656.441 315L657.656 318.858Z" fill="#75BF2A"/>
<path d="M526.083 358.69C509.52 397.512 466.431 565.333 480.38 575.047C494.33 584.76 596.612 495.327 632.498 432.793C668.383 370.258 681.942 303.567 620.033 303.618C558.123 303.669 542.646 319.867 526.083 358.69Z" fill="#269200"/>
<path d="M634.555 323.131C635.615 322.892 636.658 323.588 636.884 324.687C637.111 325.786 636.434 326.87 635.374 327.11L634.555 323.131ZM503.369 546.855C502.51 547.544 501.277 547.383 500.616 546.494C499.955 545.606 500.116 544.327 500.975 543.638L503.369 546.855ZM635.374 327.11C609.614 332.921 594.077 345.01 583.791 360.854C573.429 376.814 568.293 396.723 563.664 418.425C554.457 461.595 547.385 511.565 503.369 546.855L500.975 543.638C543.639 509.432 550.529 461.168 559.83 417.562C564.456 395.877 569.711 375.263 580.536 358.59C591.435 341.802 607.88 329.148 634.555 323.131L635.374 327.11Z" fill="#75BF2A"/>
<path d="M468.651 330.87C510.345 353.397 666.771 476.04 662.091 497.712C657.411 519.385 507.801 524.326 432.951 496.2C358.101 468.075 298.915 416.177 350.659 361.357C402.404 306.537 426.956 308.344 468.651 330.87Z" fill="#269200"/>
<path d="M352.504 393.536C351.587 394.152 351.343 395.395 351.959 396.312C352.575 397.228 353.818 397.472 354.735 396.856L352.504 393.536ZM622.67 490.458C623.771 490.366 624.589 489.399 624.497 488.298C624.405 487.198 623.438 486.38 622.337 486.472L622.67 490.458ZM354.735 396.856C380.44 379.582 402.057 377.422 421.97 383.475C442.075 389.586 460.665 404.121 480.119 420.829C518.753 454.008 560.525 495.653 622.67 490.458L622.337 486.472C562.212 491.498 521.825 451.373 482.725 417.794C463.314 401.124 444.143 386.034 423.134 379.648C401.933 373.203 379.081 375.675 352.504 393.536L354.735 396.856Z" fill="#75BF2A"/>
<path d="M201.6 217.029C175.805 230.476 79.0314 303.686 81.9267 316.623C84.822 329.561 177.379 332.51 223.686 315.721C269.992 298.932 306.607 267.952 274.595 235.228C242.583 202.504 227.394 203.582 201.6 217.029Z" fill="#269200"/>
<path d="M273.852 253.75C274.779 254.351 275.043 255.589 274.442 256.516C273.841 257.443 272.602 257.707 271.676 257.106L273.852 253.75ZM106.256 313.097C105.155 313.008 104.335 312.044 104.424 310.943C104.512 309.842 105.477 309.021 106.578 309.11L106.256 313.097ZM271.676 257.106C255.936 246.9 242.778 245.66 230.681 249.208C218.407 252.807 207.015 261.386 194.974 271.363C171.149 291.106 145.056 316.227 106.256 313.097L106.578 309.11C143.421 312.082 168.156 288.391 192.422 268.283C204.426 258.336 216.394 249.229 229.555 245.369C242.893 241.457 257.246 242.982 273.852 253.75L271.676 257.106Z" fill="#75BF2A"/>
<path d="M350.145 265.262C366.535 273.219 428.028 316.537 426.188 324.192C424.349 331.846 365.535 333.592 336.111 323.658C306.686 313.723 283.42 295.393 303.761 276.03C324.103 256.668 333.754 257.306 350.145 265.262Z" fill="#269200"/>
<path d="M303.891 286.271C302.945 286.842 302.642 288.071 303.213 289.017C303.784 289.962 305.013 290.266 305.959 289.695L303.891 286.271ZM410.776 322.92C411.877 322.838 412.703 321.878 412.621 320.776C412.538 319.675 411.578 318.849 410.476 318.932L410.776 322.92ZM305.959 289.695C315.811 283.746 323.991 283.047 331.496 285.096C339.152 287.187 346.292 292.18 353.944 298.084C369.026 309.722 385.825 324.794 410.776 322.92L410.476 318.932C387.361 320.668 371.863 306.859 356.387 294.917C348.76 289.032 341.056 283.561 332.55 281.238C323.892 278.873 314.591 279.81 303.891 286.271L305.959 289.695Z" fill="#75BF2A"/>
<path d="M350.145 265.262C366.535 273.219 428.028 316.537 426.188 324.192C424.349 331.846 365.535 333.592 336.111 323.658C306.686 313.723 283.42 295.393 303.761 276.03C324.103 256.668 333.754 257.306 350.145 265.262Z" fill="#269200"/>
<path d="M303.891 286.271C302.945 286.842 302.642 288.071 303.213 289.017C303.784 289.962 305.013 290.266 305.959 289.695L303.891 286.271ZM410.776 322.92C411.877 322.838 412.703 321.878 412.621 320.776C412.538 319.675 411.578 318.849 410.476 318.932L410.776 322.92ZM305.959 289.695C315.811 283.746 323.991 283.047 331.496 285.096C339.152 287.187 346.292 292.18 353.944 298.084C369.026 309.722 385.825 324.794 410.776 322.92L410.476 318.932C387.361 320.668 371.863 306.859 356.387 294.917C348.76 289.032 341.056 283.561 332.55 281.238C323.892 278.873 314.591 279.81 303.891 286.271L305.959 289.695Z" fill="#75BF2A"/>
<path d="M350.145 265.262C366.535 273.219 428.028 316.537 426.188 324.192C424.349 331.846 365.535 333.592 336.111 323.658C306.686 313.723 283.42 295.393 303.761 276.03C324.103 256.668 333.754 257.306 350.145 265.262Z" fill="#269200"/>
<path d="M303.891 286.271C302.945 286.842 302.642 288.071 303.213 289.017C303.784 289.962 305.013 290.266 305.959 289.695L303.891 286.271ZM410.776 322.92C411.877 322.838 412.703 321.878 412.621 320.776C412.538 319.675 411.578 318.849 410.476 318.932L410.776 322.92ZM305.959 289.695C315.811 283.746 323.991 283.047 331.496 285.096C339.152 287.187 346.292 292.18 353.944 298.084C369.026 309.722 385.825 324.794 410.776 322.92L410.476 318.932C387.361 320.668 371.863 306.859 356.387 294.917C348.76 289.032 341.056 283.561 332.55 281.238C323.892 278.873 314.591 279.81 303.891 286.271L305.959 289.695Z" fill="#75BF2A"/>
<path d="M488.61 672.233C520.992 702.794 636.126 859.154 628.461 882.192C620.795 905.231 490.314 889.382 430.131 847.987C369.949 806.592 327.301 741.423 381.277 688.815C435.252 636.208 456.229 641.672 488.61 672.233Z" fill="#269200"/>
<path d="M377.161 724.529C376.221 725.098 375.928 726.329 376.505 727.277C377.083 728.226 378.312 728.534 379.252 727.965L377.161 724.529ZM595.601 868.455C596.703 868.519 597.637 867.674 597.688 866.57C597.74 865.465 596.888 864.518 595.787 864.455L595.601 868.455ZM379.252 727.965C391.847 720.333 402.844 716.756 412.645 716.216C422.42 715.678 431.142 718.154 439.23 722.857C455.538 732.34 469.196 750.814 483.294 771.883C497.286 792.793 511.646 816.151 529.245 834.594C546.901 853.098 568.007 866.869 595.601 868.455L595.787 864.455C569.548 862.946 549.342 849.893 532.114 831.839C514.829 813.725 500.732 790.792 486.601 769.674C472.576 748.714 458.445 729.421 441.204 719.396C432.517 714.344 423.024 711.63 412.383 712.215C401.768 712.8 390.147 716.66 377.161 724.529L379.252 727.965Z" fill="#75BF2A"/>
<path d="M357.07 500.088C393.138 509.166 536.81 573.995 538.067 592.506C539.324 611.017 428.708 647.661 366.659 641.302C304.611 634.942 249.046 605.98 275.661 550.445C302.277 494.911 321.003 491.009 357.07 500.088Z" fill="#269200"/>
<path d="M283.74 575.871C283.051 576.747 283.185 578.01 284.041 578.692C284.896 579.375 286.149 579.219 286.839 578.343L283.74 575.871ZM507.178 595.556C508.208 595.152 508.733 593.986 508.349 592.952C507.966 591.919 506.82 591.408 505.79 591.812L507.178 595.556ZM286.839 578.343C302.165 558.891 317.675 552.535 333.668 553.066C349.894 553.605 366.875 561.227 385.077 570.471C403.139 579.644 422.339 590.38 442.563 596.573C462.866 602.791 484.382 604.5 507.178 595.556L505.79 591.812C484.063 600.337 463.502 598.766 443.774 592.724C423.967 586.658 405.183 576.153 386.911 566.873C368.778 557.664 351.073 549.62 333.864 549.048C316.421 548.469 299.746 555.557 283.74 575.871L286.839 578.343Z" fill="#75BF2A"/>
<path d="M177.488 588.421C152.36 619.239 69.6378 763.757 79.7891 778.641C89.9404 793.524 206.087 747.952 254.927 701.961C303.766 655.971 333.401 597.126 277.142 572.634C220.883 548.141 202.616 557.603 177.488 588.421Z" fill="#269200"/>
<path d="M285.513 597.271C286.586 597.47 287.282 598.52 287.067 599.617C286.852 600.714 285.808 601.442 284.735 601.243L285.513 597.271ZM107.915 760.498C106.87 760.849 105.759 760.276 105.433 759.219C105.107 758.161 105.69 757.018 106.735 756.667L107.915 760.498ZM284.735 601.243C259.885 596.638 242.756 602.11 229.404 613.2C215.905 624.412 206.09 641.499 196.241 660.577C176.704 698.423 157.252 743.903 107.915 760.498L106.735 756.667C154.192 740.704 172.931 697.125 192.741 658.75C202.565 639.718 212.712 621.903 226.934 610.09C241.303 598.156 259.654 592.479 285.513 597.271L284.735 601.243Z" fill="#75BF2A"/>
<path d="M244.334 312.327C217.85 327.46 118.491 409.847 121.464 424.406C124.436 438.965 219.467 442.284 267.01 423.39C314.553 404.497 352.147 369.634 319.28 332.807C286.413 295.981 270.818 297.194 244.334 312.327Z" fill="#269200"/>
<path d="M318.559 353.909C319.459 354.549 319.67 355.797 319.031 356.698C318.391 357.598 317.142 357.809 316.242 357.169L318.559 353.909ZM146.433 420.186C145.333 420.089 144.52 419.118 144.617 418.018C144.714 416.918 145.685 416.105 146.786 416.202L146.433 420.186ZM316.242 357.169C300.077 345.681 286.603 344.305 274.228 348.284C261.636 352.331 249.937 361.984 237.567 373.22C225.31 384.352 212.444 396.991 197.797 406.348C183.078 415.751 166.41 421.953 146.433 420.186L146.786 416.202C165.641 417.869 181.435 412.054 195.643 402.977C209.922 393.855 222.446 381.55 234.877 370.259C247.194 359.072 259.48 348.823 273.003 344.475C286.743 340.059 301.514 341.795 318.559 353.909L316.242 357.169Z" fill="#75BF2A"/>
<path d="M660.013 63.5411C703.135 81.049 864.917 176.368 860.077 193.212C855.236 210.056 700.503 213.897 623.09 192.037C545.678 170.178 484.465 129.843 537.982 87.2358C591.498 44.629 616.891 46.0331 660.013 63.5411Z" fill="#269200"/>
<path d="M540.141 111.751C539.155 112.249 538.76 113.452 539.258 114.438C539.756 115.424 540.959 115.82 541.945 115.322L540.141 111.751ZM819.259 188.022C820.362 187.953 821.199 187.003 821.13 185.901C821.061 184.798 820.111 183.961 819.008 184.03L819.259 188.022ZM541.945 115.322C568.589 101.866 591.109 100.142 611.891 104.889C632.775 109.659 652.04 120.989 672.137 133.96C712.188 159.808 755.252 192.043 819.259 188.022L819.008 184.03C756.559 187.953 714.65 156.636 674.306 130.599C654.207 117.627 634.419 105.932 612.781 100.989C591.041 96.0234 567.571 97.899 540.141 111.751L541.945 115.322Z" fill="#75BF2A"/>
<path d="M463.242 224.648C479.632 232.604 541.125 275.922 539.285 283.577C537.445 291.232 478.632 292.977 449.208 283.043C419.783 273.109 396.517 254.778 416.858 235.416C437.199 216.053 446.851 216.691 463.242 224.648Z" fill="#269200"/>
<path d="M416.988 245.656C416.042 246.227 415.738 247.456 416.309 248.402C416.88 249.347 418.11 249.651 419.055 249.08L416.988 245.656ZM523.873 282.306C524.974 282.223 525.8 281.263 525.717 280.161C525.635 279.06 524.675 278.234 523.573 278.317L523.873 282.306ZM419.055 249.08C428.908 243.131 437.088 242.432 444.593 244.482C452.249 246.572 459.389 251.565 467.04 257.469C482.122 269.107 498.922 284.18 523.873 282.306L523.573 278.317C500.458 280.053 484.96 266.244 469.484 254.302C461.857 248.417 454.153 242.946 445.647 240.623C436.989 238.258 427.688 239.195 416.988 245.656L419.055 249.08Z" fill="#75BF2A"/>
<path d="M261.529 163.939C241.691 171.206 167.264 210.769 169.49 217.761C171.717 224.752 242.901 226.346 278.515 217.273C314.128 208.2 342.289 191.458 317.669 173.774C293.049 156.089 281.367 156.672 261.529 163.939Z" fill="#269200"/>
<path d="M317.089 182.87C318.094 183.328 318.538 184.514 318.08 185.52C317.622 186.525 316.436 186.968 315.431 186.51L317.089 182.87ZM188.212 216.775C187.109 216.712 186.266 215.768 186.328 214.665C186.391 213.562 187.336 212.719 188.438 212.781L188.212 216.775ZM315.431 186.51C303.363 181.012 293.215 180.324 283.865 182.251C274.433 184.194 265.697 188.818 256.458 194.198C238.088 204.894 218.008 218.464 188.212 216.775L188.438 212.781C216.819 214.39 235.83 201.581 254.445 190.741C263.698 185.354 272.928 180.421 283.058 178.333C293.27 176.228 304.28 177.034 317.089 182.87L315.431 186.51Z" fill="#75BF2A"/>
<path d="M324.239 138.917C340.474 130.624 411.513 107.935 416.12 114.212C420.727 120.489 385.258 169.191 359.384 186.798C333.51 204.405 305.172 211.776 303.33 183.2C301.488 154.623 308.004 147.209 324.239 138.917Z" fill="#269200"/>
<path d="M311.104 189.416C310.943 190.527 311.684 191.568 312.757 191.742C313.83 191.917 314.83 191.159 314.99 190.048L311.104 189.416ZM405.552 125.929C406.164 125.007 405.935 123.739 405.04 123.097C404.144 122.455 402.921 122.683 402.309 123.605L405.552 125.929ZM314.99 190.048C316.68 178.333 321.284 171.239 327.551 166.421C333.929 161.517 342.164 158.857 351.385 156.357C369.592 151.42 391.389 147.251 405.552 125.929L402.309 123.605C389.126 143.451 369.001 147.366 350.362 152.42C341.161 154.915 332.242 157.727 325.193 163.147C318.032 168.652 312.933 176.733 311.104 189.416L314.99 190.048Z" fill="#75BF2A"/>
<path d="M409.17 36.5404C365.175 51.3182 200.01 134.762 204.878 150.877C209.747 166.991 367.367 176.957 446.311 159.472C525.255 141.986 587.763 106.379 533.401 63.9275C479.038 21.4757 453.165 21.7627 409.17 36.5404Z" fill="#269200"/>
<path d="M531.04 86.8766C532.037 87.385 532.464 88.5929 531.992 89.5745C531.52 90.5561 530.329 90.9397 529.331 90.4313L531.04 86.8766ZM246.491 147.755C245.389 147.646 244.552 146.666 244.62 145.566C244.689 144.466 245.637 143.662 246.739 143.771L246.491 147.755ZM529.331 90.4313C502.214 76.6135 479.235 74.0517 458.001 77.6939C436.68 81.3511 416.997 91.2785 396.479 102.709C355.561 125.505 311.615 154.169 246.491 147.755L246.739 143.771C310.413 150.042 353.265 122.133 394.441 99.1939C414.969 87.7572 435.155 77.5268 457.189 73.7474C479.31 69.9531 503.171 72.6761 531.04 86.8766L529.331 90.4313Z" fill="#75BF2A"/>
<defs>
<filter id="filter0_d" x="446.21" y="94.7153" width="109.787" height="1289.06" filterUnits="userSpaceOnUse" color-interpolation-filters="sRGB">
<feFlood flood-opacity="0" result="BackgroundImageFix"/>
<feColorMatrix in="SourceAlpha" type="matrix" values="0 0 0 0 0 0 0 0 0 0 0 0 0 0 0 0 0 0 127 0"/>
<feOffset dy="4"/>
<feGaussianBlur stdDeviation="2"/>
<feColorMatrix type="matrix" values="0 0 0 0 0 0 0 0 0 0 0 0 0 0 0 0 0 0 0.25 0"/>
<feBlend mode="normal" in2="BackgroundImageFix" result="effect1_dropShadow"/>
<feBlend mode="normal" in="SourceGraphic" in2="effect1_dropShadow" result="shape"/>
</filter>
</defs>
</svg>
