<svg width="392" height="296" viewBox="0 0 392 296" fill="none" xmlns="http://www.w3.org/2000/svg">
<path d="M189 130C186.822 115.165 205.742 114.292 204 130C234.306 73.6788 253.417 51.966 289.298 22.9021C320.805 4.1251 334.786 0.585994 356.132 1.08912C387.814 1.75517 393.455 11.5593 391.719 22.9021C389.983 34.2448 363.944 65.2191 365.246 100.12C364.774 138.074 357.586 151.232 326.187 152.907C341.108 161.373 344.285 171.623 346.584 193.479C344.82 244.7 331.829 294.255 291.034 296C257.589 293.157 223.039 260.6 197 186C170.865 260.612 135.568 292.157 102 295C61.0552 293.255 48.7706 244.228 47 193C49.3075 171.141 52.0244 161.468 67 153C35.4854 151.324 28.4733 137.96 28 100C29.3068 65.094 2.74234 34.3444 1 23C-0.74234 11.6556 5.20129 1.66615 37 1C58.424 0.496801 72.4567 4.08101 104.08 22.8608C140.093 51.9292 158.582 73.6703 189 130Z" fill="#959599"/>
</svg>
