<svg width="512" height="512" viewBox="0 0 512 512" fill="none" xmlns="http://www.w3.org/2000/svg">
<path d="M484.138 384H485C487.121 384 489.156 383.157 490.657 381.657C492.157 380.157 493 378.122 493 376V328C493 325.878 492.157 323.843 490.657 322.343C489.156 320.843 487.121 320 485 320H469V304H477C479.121 304 481.156 303.157 482.657 301.657C484.157 300.157 485 298.122 485 296C485 293.878 484.157 291.843 482.657 290.343C481.156 288.843 479.121 288 477 288H413C410.878 288 408.843 288.843 407.343 290.343C405.842 291.843 405 293.878 405 296C405 298.122 405.842 300.157 407.343 301.657C408.843 303.157 410.878 304 413 304H421V326.131C418.002 328.815 415.724 332.208 414.376 336H369.529L325 261.784V216C324.988 206.782 321.799 197.85 315.97 190.71C310.141 183.569 302.028 178.657 293 176.8V104C293 76.4175 282.043 49.9647 262.539 30.4609C243.035 10.9571 216.582 0 189 0C161.417 0 134.964 10.9571 115.461 30.4609C95.9568 49.9647 84.9996 76.4175 84.9996 104V176.8C75.9709 178.657 67.8582 183.569 62.0292 190.71C56.2001 197.85 53.0111 206.782 52.9996 216V263.386L21.0926 470.786C20.9177 471.926 20.9911 473.09 21.3081 474.199C21.6251 475.308 22.178 476.335 22.929 477.21C23.68 478.085 24.6113 478.787 25.6591 479.269C26.7069 479.751 27.8465 480 28.9996 480H285C287.121 480 289.156 479.157 290.657 477.657C292.157 476.157 293 474.122 293 472V377.889L309.845 411.578C310.509 412.907 311.53 414.024 312.794 414.805C314.058 415.586 315.514 416 317 416H389.581C388.203 425.479 389.281 435.153 392.709 444.097C396.138 453.041 401.803 460.956 409.164 467.085C416.525 473.215 425.334 477.353 434.751 479.106C444.168 480.859 453.877 480.167 462.95 477.097C472.023 474.026 480.157 468.68 486.574 461.568C492.991 454.457 497.477 445.819 499.603 436.479C501.728 427.139 501.423 417.41 498.715 408.222C496.007 399.034 490.988 390.695 484.138 384ZM477 368H437C434.879 367.998 432.845 367.154 431.345 365.654C429.846 364.154 429.002 362.121 429 360V344C429.002 341.879 429.846 339.846 431.345 338.346C432.845 336.846 434.879 336.002 437 336H477V368ZM437 304H453V320H437V304ZM309 216V256H221V232.472C231.895 227.053 241.243 218.965 248.173 208.962C255.103 198.959 259.39 187.365 260.635 175.26C266.572 174.107 272.168 171.616 277 167.978V184C277 186.122 277.842 188.157 279.343 189.657C280.843 191.157 282.878 192 285 192C291.363 192.007 297.463 194.538 301.962 199.038C306.461 203.537 308.992 209.637 309 216ZM145.8 281.6L133 272H160.056L181 313.889V352L149 309.333V288C149 286.758 148.71 285.533 148.155 284.422C147.6 283.311 146.793 282.345 145.8 281.6ZM133 112H245V153.223L209.513 159.138L204.155 148.422C203.49 147.093 202.469 145.976 201.205 145.195C199.941 144.414 198.485 144 197 144H181C179.514 144 178.057 144.413 176.794 145.195C175.53 145.976 174.508 147.093 173.844 148.422L168.486 159.138L133 153.223V112ZM261 113.376C265.677 115.032 269.725 118.096 272.589 122.148C275.452 126.199 276.99 131.039 276.99 136C276.99 140.961 275.452 145.801 272.589 149.852C269.725 153.904 265.677 156.968 261 158.624V113.376ZM158.888 96L218.261 66.313L238.052 96H158.888ZM117 158.624C112.323 156.968 108.274 153.904 105.41 149.852C102.547 145.801 101.009 140.961 101.009 136C101.009 131.039 102.547 126.199 105.41 122.148C108.274 118.096 112.323 115.032 117 113.376V158.624ZM171.684 175.892C173.371 176.173 175.105 175.906 176.629 175.13C178.154 174.353 179.39 173.108 180.155 171.578L185.944 160H192.055L197.844 171.578C198.61 173.107 199.845 174.352 201.369 175.128C202.893 175.904 204.626 176.172 206.314 175.892L244.963 169.45C244.592 184.047 238.534 197.921 228.079 208.114C217.624 218.307 203.601 224.011 189 224.011C174.398 224.011 160.375 218.307 149.92 208.114C139.465 197.921 133.407 184.047 133.037 169.45L171.684 175.892ZM189 240C194.384 239.996 199.751 239.387 205 238.186V262.111L189 294.111L173 262.111V238.186C178.248 239.387 183.615 239.996 189 240ZM197 313.889L217.944 272H245L232.2 281.6C231.206 282.345 230.4 283.311 229.844 284.422C229.289 285.533 229 286.758 229 288V309.333L197 352V313.889ZM189 16C212.331 16.0265 234.698 25.3064 251.196 41.8038C267.693 58.3013 276.973 80.6691 277 104V104.022C271.298 99.7251 264.545 97.0419 257.45 96.254L227.656 51.562C226.574 49.9398 224.937 48.7684 223.052 48.2681C221.168 47.7678 219.166 47.9729 217.422 48.845L123.011 96.051C115.04 96.4398 107.371 99.2172 101 104.022V104C101.026 80.6691 110.306 58.3013 126.803 41.8038C143.301 25.3064 165.669 16.0265 189 16ZM92.9996 192C95.1214 192 97.1562 191.157 98.6565 189.657C100.157 188.157 101 186.122 101 184V167.978C105.831 171.616 111.427 174.107 117.365 175.26C118.61 187.365 122.897 198.959 129.826 208.962C136.756 218.965 146.104 227.053 157 232.472V256H68.9996V216C69.0071 209.637 71.538 203.537 76.0373 199.038C80.5365 194.538 86.6367 192.007 92.9996 192ZM67.8626 272H118L140 288V309.333C140 310 140 310 141 311L182 362L181 464H101V344C101 341.878 100.157 339.843 98.6565 338.343C97.1562 336.843 95.1214 336 92.9996 336C90.8779 336 88.8431 336.843 87.3428 338.343C85.8425 339.843 84.9996 341.878 84.9996 344V464H38.3246L67.8626 272ZM321.944 400L292.155 340.422C291.349 338.81 290.022 337.518 288.39 336.754C286.758 335.991 284.915 335.801 283.161 336.215C281.408 336.629 279.845 337.623 278.727 339.036C277.608 340.449 277 342.198 277 344V464H197V362L237 312C238 311 238 311 238 309.333V288L258.5 272H312.467L358.136 348.116C358.847 349.301 359.853 350.282 361.056 350.963C362.259 351.643 363.617 352.001 365 352H413V360C412.996 365.395 414.819 370.632 418.174 374.858C407.815 380.542 399.503 389.336 394.414 400H321.944ZM445 464C437.088 464 429.355 461.654 422.777 457.259C416.199 452.864 411.072 446.616 408.044 439.307C405.017 431.998 404.225 423.956 405.768 416.196C407.312 408.437 411.121 401.31 416.715 395.716C422.309 390.122 429.437 386.312 437.196 384.769C444.955 383.225 452.998 384.017 460.307 387.045C467.616 390.072 473.863 395.199 478.258 401.777C482.654 408.355 485 416.089 485 424C484.988 434.605 480.77 444.772 473.271 452.271C465.772 459.77 455.605 463.988 445 464Z" fill="white"/>
<path d="M186.47 387.922C185.574 381.838 193.359 381.48 192.642 387.922C205.113 364.824 212.976 355.92 227.741 344C240.705 336.3 246.458 334.848 255.241 335.055C268.278 335.328 270.599 339.349 269.884 344C269.17 348.652 258.455 361.355 258.991 375.668C258.797 391.233 255.839 396.629 242.919 397.316C249.059 400.789 250.366 404.992 251.312 413.955C250.587 434.961 245.241 455.284 228.455 456C214.693 454.834 200.477 441.482 189.762 410.888C179.008 441.487 164.484 454.424 150.672 455.59C133.824 454.874 128.769 434.768 128.041 413.759C128.99 404.794 130.108 400.827 136.27 397.355C123.303 396.667 120.417 391.186 120.223 375.619C120.76 361.304 109.83 348.693 109.113 344.04C108.396 339.388 110.841 335.291 123.926 335.018C132.741 334.812 138.515 336.282 151.528 343.983C166.346 355.905 173.954 364.821 186.47 387.922Z" fill="#00AEEF"/>
</svg>
