<svg id="Capa_1"
enable-background="new 0 0 511.974 511.974" 
height="512" 
viewBox="0 0 511.974 511.974" 
width="512" 
xmlns="http://www.w3.org/2000/svg">
<g>
<path d="m390.285 262.37c-6.062 0-11.272 3.604-13.637 8.779l-39.885-6.243 36.746-36.594c.376-.374.727-.769 1.058-1.178l39.276-39.276c21.144-21.144 21.144-55.547 0-76.69l-95.31-95.31c-21.144-21.144-55.547-21.144-76.69 0l-39.272 39.272c-.405.328-.796.676-1.168 1.048l-22.477 22.507-21.213-21.213c-6.61-6.611-15.4-10.251-24.748-10.251-9.349 0-18.139 3.641-24.749 10.251l-81.564 81.563c-6.611 6.61-10.252 15.4-10.252 24.749s3.641 18.139 10.252 24.749l21.301 21.301-26.235 26.27c-5.851 5.859-5.848 15.351.007 21.206l150.668 150.668c2.929 2.929 6.768 4.393 10.606 4.393 3.839 0 7.678-1.464 10.607-4.393l33.335-33.335 149.633-21.873c2.331 5.258 7.588 8.932 13.711 8.932 8.284 0 15-6.716 15-15v-69.332c0-8.284-6.716-15-15-15zm-127.229-225.299c9.447-9.446 24.817-9.446 34.265 0l95.31 95.31c9.446 9.447 9.446 24.818 0 34.265l-29.766 29.766-15.121-15.122 11.584-11.584c2.813-2.813 4.394-6.628 4.394-10.607 0-3.978-1.581-7.793-4.394-10.606l-78.118-78.118c-5.858-5.857-15.355-5.858-21.213 0l-11.584 11.584-15.123-15.123zm-215.192 130.247c-1.274-1.274-1.464-2.762-1.464-3.535s.19-2.261 1.464-3.536l81.564-81.563c1.274-1.274 2.762-1.464 3.535-1.464s2.261.19 3.536 1.464l21.227 21.227-88.576 88.694zm169.817 178.358c-3.195.467-6.154 1.953-8.437 4.236l-26.245 26.245-129.462-129.462 158.487-158.698 25.781 25.781c5.857 5.858 15.355 5.858 21.213 0l11.585-11.584 56.904 56.905-11.584 11.584c-2.813 2.813-4.393 6.628-4.393 10.607 0 3.978 1.581 7.793 4.393 10.606l25.766 25.767-47.056 46.861c-4.004 3.987-5.428 9.887-3.682 15.262s6.364 9.312 11.947 10.186l72.387 11.33v21.336z"
fill="aliceblue"/>
<path d="m233.7 181.212c-.529-.008-13.071-.162-27.481 1.431-32.534 3.596-41.645 12.708-44.64 15.702-19.237 19.237-19.237 50.539 0 69.777 9.619 9.618 22.253 14.427 34.888 14.427s25.27-4.809 34.889-14.427c0-.001 0-.001 0-.001 2.994-2.994 12.105-12.105 15.701-44.64 1.593-14.41 1.438-26.954 1.431-27.481-.113-8.119-6.668-14.674-14.788-14.788zm-23.557 65.696c-7.541 7.54-19.81 7.54-27.35 0-7.541-7.54-7.541-19.81-.001-27.351 3.574-3.573 18.613-6.751 35.265-7.903-1.144 16.634-4.324 31.664-7.914 35.254z"
fill="aliceblue"/>
<path d="m420.575 378.805c-8.284 0-15 6.716-15 15v103.17c0 8.284 6.716 15 15 15s15-6.716 15-15v-103.17c0-8.285-6.716-15-15-15z"
fill="aliceblue"/>
<path d="m450.43 297.035c-8.284 0-15 6.716-15 15s6.716 15 15 15c8.351 0 15.145 6.794 15.145 15.145v154.794c0 8.284 6.716 15 15 15s15-6.716 15-15v-154.794c0-24.893-20.252-45.145-45.145-45.145z"
fill="aliceblue"/>
</g>
</svg>