<?xml version="1.0" encoding="iso-8859-1"?>
<!-- Generator: Adobe Illustrator 19.0.0, SVG Export Plug-In . SVG Version: 6.00 Build 0)  -->
<svg version="1.1" id="Capa_1" xmlns="http://www.w3.org/2000/svg" xmlns:xlink="http://www.w3.org/1999/xlink" x="0px" y="0px"
	 viewBox="0 0 339.456 339.456" style="enable-background:new 0 0 339.456 339.456;" xml:space="preserve">
<g>
	<g>
		<path d="M274.176,23.04H65.792c-3.072,0-5.12,2.048-5.12,5.12v282.624c0,3.072,2.048,5.12,5.12,5.12h208.384
			c3.072,0,5.12-2.048,5.12-5.12V28.16C279.296,25.6,277.248,23.04,274.176,23.04z M70.912,33.28h93.696v83.968H70.912V33.28z
			 M165.12,305.664H70.912v-83.968h94.208V305.664z M165.12,211.456H70.912v-83.968h94.208V211.456z M269.056,305.664h-94.208
			v-83.968h94.208V305.664z M269.056,211.456h-94.208v-83.968h94.208V211.456z M269.056,117.248h-94.208V33.28h94.208V117.248z"
			fill="aliceblue"/>
	</g>
</g>
<g>
	<g>
		<path d="M297.728,0h-256c-3.072,0-5.12,2.048-5.12,5.12v329.216c0,3.072,2.56,5.12,5.12,5.12h256c3.072,0,5.12-2.048,5.12-5.12
			V5.12C302.848,2.048,300.8,0,297.728,0z M292.608,329.216H46.848V10.24h245.76V329.216z"
			fill="aliceblue"/>
	</g>
</g>
<g>
</g>
<g>
</g>
<g>
</g>
<g>
</g>
<g>
</g>
<g>
</g>
<g>
</g>
<g>
</g>
<g>
</g>
<g>
</g>
<g>
</g>
<g>
</g>
<g>
</g>
<g>
</g>
<g>
</g>
</svg>
