<?xml version="1.0" encoding="UTF-8" standalone="no"?>
<!DOCTYPE svg PUBLIC "-//W3C//DTD SVG 1.1//EN" "http://www.w3.org/Graphics/SVG/1.1/DTD/svg11.dtd">
<svg version="1.1" xmlns="http://www.w3.org/2000/svg" xmlns:xlink="http://www.w3.org/1999/xlink" preserveAspectRatio="xMidYMid meet" viewBox="0 0 640 640" width="640" height="640"><defs><path d="M3.14 41.65L41.46 41.65L41.46 605.07L3.14 605.07L3.14 41.65Z" id="a2MW5iHD4o"></path><path d="M45.96 3.34L45.96 46.16L3.14 46.16C3.14 46.16 3.14 46.16 3.14 46.16C3.14 22.51 22.32 3.34 45.96 3.34C45.96 3.34 45.96 3.34 45.96 3.34Z" id="b14j8HSO6l"></path><path d="M3.14 601.69L41.46 601.69L41.46 640C41.46 640 41.46 640 41.46 640C20.3 640 3.14 622.85 3.14 601.69C3.14 601.69 3.14 601.69 3.14 601.69Z" id="e1hyHx4Hfk"></path><path d="M41.46 3.34C57.64 3.34 67.76 3.34 71.81 3.34C78.69 3.34 84.28 8.92 84.28 15.81C84.28 21.88 84.28 26.2 84.28 31.91C84.28 39.78 77.9 46.16 70.03 46.16C66.22 46.16 56.69 46.16 41.46 46.16L41.46 3.34Z" id="a5h0oCbRUg"></path><path d="M38.87 601.69C53.35 601.69 62.4 601.69 66.02 601.69C72.18 601.69 77.18 606.68 77.18 612.84C77.18 618.27 77.18 623.41 77.18 628.84C77.18 635.01 72.18 640 66.02 640C62.4 640 53.35 640 38.87 640L38.87 601.69Z" id="h2I05POsGf"></path></defs><g><g><g><g><use xlink:href="#a2MW5iHD4o" opacity="1" fill="#00aeef" fill-opacity="1"></use></g><g><use xlink:href="#b14j8HSO6l" opacity="1" fill="#00aeef" fill-opacity="1"></use></g><g><use xlink:href="#e1hyHx4Hfk" opacity="1" fill="#00aeef" fill-opacity="1"></use></g><g><use xlink:href="#a5h0oCbRUg" opacity="1" fill="#00aeef" fill-opacity="1"></use></g><g><use xlink:href="#h2I05POsGf" opacity="1" fill="#00aeef" fill-opacity="1"></use></g></g></g></g></svg>