<svg width="100" height="560" viewBox="0 0 100 560" fill="none" xmlns="http://www.w3.org/2000/svg">
<rect width="40" height="480" transform="matrix(-1 0 0 1 100 40)" fill="#00AEEF"/>
<rect y="560" width="40" height="60" transform="rotate(-90 0 560)" fill="#00AEEF"/>
<path d="M60 559.978L20 519.989C50.3163 520.498 59.5451 512.258 60 480L100 519.989C99.5451 552.248 90.3163 560.487 60 559.978Z" fill="#00AEEF"/>
<rect width="40" height="60" transform="matrix(4.37052e-08 1 1 -4.37176e-08 0 0)" fill="#00AEEF"/>
<path d="M60 0.021736L20 40.0109C50.3163 39.5025 59.5451 47.7416 60 79.9999L100 40.0109C99.5451 7.75249 90.3163 -0.486632 60 0.021736Z" fill="#00AEEF"/>
</svg>
