<?xml version="1.0" standalone="no"?>
<!DOCTYPE svg PUBLIC "-//W3C//DTD SVG 20010904//EN"
 "http://www.w3.org/TR/2001/REC-SVG-20010904/DTD/svg10.dtd">
<svg version="1.0" xmlns="http://www.w3.org/2000/svg"
 width="1280.000000pt" height="1280.000000pt" viewBox="0 0 1280.000000 1280.000000"
 preserveAspectRatio="xMidYMid meet">
<metadata>
Created by potrace 1.16, written by Peter Selinger 2001-2019
</metadata>
<g transform="translate(0.000000,1280.000000) scale(0.100000,-0.100000)"
fill="aliceblue" stroke="none">
<path d="M10560 12785 c-352 -44 -672 -173 -968 -391 -49 -37 -645 -624 -1662
-1641 -872 -870 -1589 -1583 -1595 -1583 -5 0 -95 85 -199 189 -227 224 -247
235 -406 236 -86 0 -101 -3 -162 -32 -163 -77 -258 -252 -228 -422 23 -134 30
-143 434 -549 l370 -372 -2520 -2523 c-1958 -1959 -2537 -2543 -2591 -2617
-81 -110 -137 -199 -189 -302 -60 -118 -804 -1878 -822 -1943 -11 -41 -16 -97
-16 -175 1 -98 5 -127 28 -195 117 -342 460 -530 804 -440 64 16 1714 711
1897 799 124 59 240 129 353 212 50 38 951 930 2604 2583 l2528 2526 372 -371
c406 -403 416 -412 548 -434 53 -9 80 -8 139 4 248 52 381 300 291 541 -21 54
-43 80 -211 251 -104 104 -189 194 -189 200 0 5 696 704 1546 1554 850 850
1580 1586 1622 1635 337 400 504 944 452 1466 -71 697 -488 1298 -1115 1605
-345 169 -739 235 -1115 189z m-3560 -6720 l-650 -649 -128 126 c-166 164
-201 183 -352 183 -97 0 -110 -2 -172 -32 -85 -40 -151 -106 -191 -191 -30
-62 -32 -75 -32 -172 0 -147 20 -185 182 -351 68 -69 123 -130 123 -135 0 -12
-1012 -1024 -1024 -1024 -6 0 -67 56 -136 125 -163 161 -200 180 -350 180 -97
0 -110 -2 -172 -32 -85 -40 -151 -106 -191 -191 -30 -62 -32 -75 -32 -172 0
-148 19 -185 186 -355 l128 -131 -517 -517 -517 -517 -125 125 c-166 167 -209
190 -360 190 -97 0 -110 -2 -172 -32 -85 -40 -151 -106 -191 -191 -30 -62 -32
-75 -32 -172 0 -147 20 -186 179 -348 l121 -124 -30 -24 c-59 -47 -209 -116
-888 -403 -826 -350 -738 -316 -728 -288 34 88 610 1436 636 1487 83 163 46
125 2643 2717 l2507 2502 468 -467 467 -467 -650 -650z"/>
</g>
</svg>
