<?xml version="1.0" standalone="no"?>
<!DOCTYPE svg PUBLIC "-//W3C//DTD SVG 20010904//EN"
 "http://www.w3.org/TR/2001/REC-SVG-20010904/DTD/svg10.dtd">
<svg version="1.0" xmlns="http://www.w3.org/2000/svg"
 width="297.000000pt" height="297.000000pt" viewBox="0 0 297.000000 297.000000"
 preserveAspectRatio="xMidYMid meet">
<metadata>
Created by potrace 1.16, written by Peter Selinger 2001-2019
</metadata>
<g transform="translate(0.000000,297.000000) scale(0.100000,-0.100000)"
fill="aliceblue" stroke="none">
<path d="M1444 2961 c-25 -11 -163 -161 -285 -311 -428 -524 -682 -1010 -740
-1419 -27 -195 7 -429 90 -605 317 -678 1206 -837 1733 -311 288 288 383 675
272 1102 -90 347 -312 747 -650 1169 -106 133 -281 333 -316 362 -21 17 -78
24 -104 13z m115 -316 c272 -315 470 -604 616 -900 143 -290 190 -469 182
-700 -4 -121 -8 -152 -34 -232 -103 -311 -352 -534 -672 -599 -112 -22 -294
-15 -401 16 -285 82 -509 298 -602 580 -27 83 -31 113 -35 235 -4 116 -1 158
16 241 67 323 271 709 597 1128 112 145 251 306 262 305 4 0 36 -34 71 -74z"/>
<path d="M786 1368 c-13 -19 -16 -58 -16 -228 0 -233 4 -250 65 -250 50 0 65
28 65 122 l0 78 80 0 80 0 0 -78 c0 -94 15 -122 65 -122 61 0 65 17 65 248 0
231 -5 252 -66 252 -48 0 -64 -29 -64 -112 l0 -68 -80 0 -80 0 0 73 c0 59 -4
77 -18 90 -27 25 -78 22 -96 -5z"/>
<path d="M1634 1371 c-49 -22 -97 -78 -113 -130 -20 -67 -14 -170 13 -227 39
-84 110 -124 218 -124 149 0 228 87 228 250 0 125 -40 196 -132 234 -52 22
-162 20 -214 -3z m189 -122 c46 -62 40 -175 -12 -221 -53 -47 -122 -33 -156
32 -17 33 -20 126 -5 164 22 59 135 75 173 25z"/>
<path d="M2003 964 c-23 -12 -33 -24 -33 -40 0 -28 7 -29 34 -9 26 20 60 19
77 -1 30 -37 13 -63 -49 -73 -28 -5 -37 -11 -37 -26 0 -16 9 -21 40 -25 54 -8
65 -16 65 -50 0 -47 -53 -62 -123 -34 -16 6 -18 3 -15 -17 4 -33 44 -51 101
-46 88 8 135 68 103 133 -8 19 -22 34 -31 34 -20 0 -19 6 5 30 27 27 27 90 0
115 -27 25 -98 29 -137 9z"/>
<path d="M1290 948 c-31 -17 -44 -76 -13 -63 103 45 136 -28 54 -119 -48 -54
-71 -91 -71 -116 0 -19 6 -20 100 -20 l100 0 0 25 c0 24 -2 25 -67 25 l-67 0
45 48 c67 69 79 91 79 143 0 33 -6 51 -20 64 -25 23 -107 30 -140 13z"/>
</g>
</svg>
