<?xml version="1.0" standalone="no"?>
<!DOCTYPE svg PUBLIC "-//W3C//DTD SVG 20010904//EN"
 "http://www.w3.org/TR/2001/REC-SVG-20010904/DTD/svg10.dtd">
<svg version="1.0" xmlns="http://www.w3.org/2000/svg"
 width="297.000000pt" height="297.000000pt" viewBox="0 0 297.000000 297.000000"
 preserveAspectRatio="xMidYMid meet">
<metadata>
Created by potrace 1.16, written by Peter Selinger 2001-2019
</metadata>
<g transform="translate(0.000000,297.000000) scale(0.100000,-0.100000)"
fill="aliceblue" stroke="none">
<path d="M1357 2888 c-206 -217 -480 -582 -631 -840 -85 -146 -190 -369 -235
-499 -121 -355 -117 -648 14 -926 59 -126 105 -193 203 -295 211 -219 468
-328 777 -328 309 0 566 108 777 328 97 102 144 169 203 295 207 439 94 969
-348 1631 -142 213 -347 471 -505 636 -76 79 -78 80 -127 80 -50 0 -51 0 -128
-82z m313 -387 c325 -396 558 -803 644 -1121 54 -204 58 -372 11 -533 -89
-308 -320 -535 -630 -618 -113 -30 -307 -30 -420 0 -130 35 -250 98 -363 190
-114 93 -236 295 -278 456 -25 96 -25 299 0 415 79 368 359 854 760 1321 l91
105 45 -49 c25 -28 88 -103 140 -166z"/>
<path d="M832 1384 c-22 -15 -22 -19 -22 -240 0 -211 1 -225 20 -244 25 -25
61 -26 91 -1 21 17 24 29 28 105 l3 86 74 0 73 0 3 -92 c3 -88 4 -93 30 -107
34 -19 77 -6 95 29 18 35 18 405 0 440 -18 35 -61 48 -95 29 -25 -14 -27 -19
-30 -97 l-3 -82 -73 0 -74 0 -4 76 c-3 65 -7 79 -27 95 -28 23 -59 24 -89 3z"/>
<path d="M1810 1391 c-81 -25 -131 -74 -155 -153 -47 -159 18 -305 151 -344
137 -40 277 25 313 145 16 55 14 160 -5 214 -37 108 -183 174 -304 138z m116
-126 c85 -35 86 -208 1 -248 -88 -42 -169 58 -138 169 14 51 21 60 56 78 37
19 37 19 81 1z"/>
<path d="M1435 1003 c-45 -10 -75 -26 -90 -50 -20 -30 -16 -92 6 -106 27 -17
66 0 78 34 7 21 16 30 28 27 38 -7 23 -37 -53 -111 -66 -63 -77 -79 -77 -107
0 -50 22 -60 133 -60 105 0 140 13 140 54 0 33 -19 46 -68 46 l-45 0 52 54
c47 51 51 58 51 105 0 42 -5 54 -31 80 -17 17 -38 31 -47 31 -9 0 -26 2 -37 4
-11 2 -29 2 -40 -1z"/>
</g>
</svg>
