<?xml version="1.0" standalone="no"?>
<!DOCTYPE svg PUBLIC "-//W3C//DTD SVG 20010904//EN"
 "http://www.w3.org/TR/2001/REC-SVG-20010904/DTD/svg10.dtd">
<svg version="1.0" xmlns="http://www.w3.org/2000/svg"
 width="512.000000pt" height="512.000000pt" viewBox="0 0 512.000000 512.000000"
 preserveAspectRatio="xMidYMid meet">
<metadata>
Created by potrace 1.16, written by Peter Selinger 2001-2019
</metadata>
<g transform="translate(0.000000,512.000000) scale(0.100000,-0.100000)"
fill="#000000" stroke="none">
<path d="M1139 5091 l-29 -29 0 -369 c0 -347 2 -369 20 -393 l19 -25 278 -5
278 -5 3 -212 2 -213 -45 0 c-42 0 -45 2 -45 28 0 43 -43 124 -85 161 -53 46
-99 63 -172 63 -125 1 -229 -88 -249 -211 l-7 -41 -524 0 -525 0 -29 -29 -29
-29 0 -285 0 -284 26 -27 27 -26 527 0 527 0 7 -41 c15 -94 87 -177 177 -203
29 -9 62 -16 74 -16 48 0 128 33 167 68 45 40 88 121 88 165 0 27 2 28 43 25
l42 -3 5 -1230 5 -1230 23 -73 c89 -288 303 -502 587 -588 80 -24 106 -27 235
-27 129 0 155 3 235 27 284 86 498 300 587 588 l23 73 5 1235 5 1235 39 0 c38
0 39 0 52 -52 42 -163 205 -247 349 -179 81 38 135 105 153 193 l8 38 533 5
533 5 19 24 c18 22 19 43 19 307 l0 283 -24 28 -24 28 -529 3 -528 3 -13 52
c-16 68 -56 125 -117 162 -43 27 -57 30 -130 30 -73 0 -87 -3 -131 -30 -59
-37 -110 -109 -120 -170 l-6 -45 -44 0 -44 0 0 210 0 210 275 0 276 0 24 26
25 27 0 369 0 370 -29 29 -29 29 -1392 0 -1392 0 -29 -29z m2701 -396 l0 -255
-1280 0 -1280 0 0 255 0 255 1280 0 1280 0 0 -255z m-600 -2172 c0 -1914 3
-1817 -59 -1949 -84 -180 -229 -309 -418 -372 -113 -37 -293 -37 -406 0 -189
63 -334 192 -418 372 -62 132 -59 35 -59 1949 l0 1747 680 0 680 0 0 -1747z
m555 1401 c42 -16 45 -45 45 -424 l0 -362 -29 -29 c-18 -17 -40 -29 -56 -29
-16 0 -38 12 -56 29 l-29 29 0 370 0 369 25 27 c24 26 63 34 100 20z m-2370
-29 l25 -24 0 -370 0 -370 -24 -27 c-18 -21 -32 -28 -61 -28 -29 0 -43 7 -61
28 l-24 27 0 370 0 370 25 24 c33 34 87 34 120 0z m2075 -385 l0 -170 -45 0
-45 0 0 163 c0 90 3 167 7 170 3 4 24 7 45 7 l38 0 0 -170z m1450 0 l0 -170
-470 0 -470 0 0 170 0 170 470 0 470 0 0 -170z m-3840 -10 l0 -170 -470 0
-470 0 0 170 0 170 470 0 470 0 0 -170z m600 0 l0 -170 -45 0 -45 0 0 170 0
170 45 0 45 0 0 -170z"/>
<path d="M1450 4775 l0 -85 170 0 170 0 0 85 0 85 -170 0 -170 0 0 -85z"/>
<path d="M1962 4778 l3 -83 83 -3 82 -3 0 86 0 85 -85 0 -86 0 3 -82z"/>
<path d="M2422 2786 c-210 -51 -402 -245 -457 -461 -19 -76 -19 -234 0 -310
56 -218 237 -402 455 -460 65 -17 217 -19 292 -4 29 6 89 28 133 49 136 65
229 158 295 295 47 97 60 159 60 275 0 117 -13 177 -62 280 -76 160 -237 290
-413 335 -71 18 -229 18 -303 1z m319 -89 c235 -80 380 -281 380 -527 0 -311
-239 -552 -549 -551 -246 0 -465 169 -527 406 -19 76 -19 214 0 290 23 87 72
172 140 241 112 114 230 163 390 163 77 0 115 -5 166 -22z"/>
<path d="M2710 2250 l-130 -260 -88 92 c-48 51 -114 121 -147 156 -47 50 -64
62 -84 60 -19 -2 -27 -10 -29 -28 -2 -20 21 -51 115 -151 65 -69 144 -153 176
-187 50 -55 60 -61 78 -52 12 7 76 123 164 301 120 239 143 294 135 310 -6 11
-21 19 -35 19 -22 0 -38 -26 -155 -260z"/>
</g>
</svg>
