<?xml version="1.0" standalone="no"?>
<!DOCTYPE svg PUBLIC "-//W3C//DTD SVG 20010904//EN"
 "http://www.w3.org/TR/2001/REC-SVG-20010904/DTD/svg10.dtd">
<svg version="1.0" xmlns="http://www.w3.org/2000/svg"
 width="528.000000pt" height="700.000000pt" viewBox="0 0 528.000000 700.000000"
 preserveAspectRatio="xMidYMid meet">
<metadata>
Created by potrace 1.16, written by Peter Selinger 2001-2019
</metadata>
<g transform="translate(0.000000,700.000000) scale(0.100000,-0.100000)"
fill="#000000" stroke="none">
<path d="M1139 6971 l-29 -29 0 -369 c0 -347 2 -369 20 -393 l19 -25 278 -5
278 -5 5 -1785 5 -1785 23 -73 c68 -219 211 -400 406 -513 58 -33 61 -37 61
-73 0 -38 -1 -39 -52 -52 -163 -42 -247 -205 -179 -349 38 -81 105 -135 193
-153 l38 -8 5 -532 c5 -493 6 -533 23 -549 16 -16 45 -18 306 -21 l289 -3 28
25 29 24 3 529 3 528 52 13 c68 16 125 56 162 117 27 43 30 57 30 130 0 73 -3
87 -30 131 -37 59 -109 110 -170 120 l-45 6 0 44 c0 34 4 44 17 44 26 0 122
57 196 118 125 101 228 259 279 424 l23 73 3 1168 2 1167 45 0 c42 0 45 -2 45
-27 0 -44 43 -125 85 -162 53 -46 99 -63 172 -63 125 -1 229 88 249 211 l7 41
522 0 c513 0 523 0 549 21 l26 20 0 299 c0 295 0 300 -22 320 -21 20 -32 20
-549 20 l-526 0 -7 41 c-15 94 -87 177 -177 203 -29 9 -62 16 -74 16 -48 0
-128 -33 -167 -68 -45 -40 -88 -121 -88 -165 0 -27 -2 -28 -42 -25 l-43 3 0
275 0 275 278 5 278 5 19 25 c18 24 20 46 20 393 l0 369 -29 29 -29 29 -1392
0 -1392 0 -29 -29z m2701 -396 l0 -255 -1280 0 -1280 0 0 255 0 255 1280 0
1280 0 0 -255z m-600 -2172 c0 -1914 3 -1817 -59 -1949 -84 -180 -229 -309
-418 -372 -67 -22 -95 -26 -203 -26 -108 0 -136 4 -203 26 -189 63 -334 192
-418 372 -62 132 -59 35 -59 1949 l0 1747 680 0 680 0 0 -1747z m578 1241 c22
-25 22 -26 22 -395 l0 -370 -25 -24 c-16 -17 -35 -25 -60 -25 -25 0 -44 8 -60
25 l-25 24 0 368 c0 322 2 371 16 391 33 48 92 50 132 6z m-318 -394 l0 -170
-45 0 -45 0 0 170 0 170 45 0 45 0 0 -170z m1450 0 l0 -170 -470 0 -470 0 0
170 0 170 470 0 470 0 0 -170z m-2232 -3337 l3 -43 -170 0 -171 0 0 45 0 45
168 -2 167 -3 3 -42z m226 -238 c17 -15 26 -34 26 -54 0 -90 -4 -91 -430 -91
l-362 0 -29 29 c-17 18 -29 40 -29 56 0 16 12 38 29 56 l29 29 370 0 369 0 27
-25z m-224 -785 l0 -470 -170 0 -170 0 0 470 0 470 170 0 170 0 0 -470z"/>
<path d="M1450 6655 l0 -85 170 0 170 0 0 85 0 85 -170 0 -170 0 0 -85z"/>
<path d="M1962 6658 l3 -83 83 -3 82 -3 0 86 0 85 -85 0 -86 0 3 -82z"/>
<path d="M2524 5026 c-52 -23 -242 -243 -311 -362 -33 -56 -69 -145 -77 -190
-16 -98 40 -249 124 -334 246 -245 672 -103 720 241 10 72 6 103 -23 179 -40
105 -110 208 -240 353 -107 119 -137 137 -193 113z m78 -242 c65 -70 150 -186
182 -249 48 -95 31 -198 -45 -274 -124 -125 -340 -84 -411 77 -43 95 -19 180
93 327 47 63 129 161 136 164 2 1 22 -20 45 -45z"/>
<path d="M2480 3493 l0 -277 -53 52 -53 52 -62 -63 -62 -63 139 -137 c186
-184 168 -184 355 3 l141 139 -60 61 -59 60 -51 -50 c-28 -28 -54 -50 -58 -50
-4 0 -7 124 -7 275 l0 275 -85 0 -85 0 0 -277z"/>
</g>
</svg>
