<?xml version="1.0" standalone="no"?>
<!DOCTYPE svg PUBLIC "-//W3C//DTD SVG 20010904//EN"
 "http://www.w3.org/TR/2001/REC-SVG-20010904/DTD/svg10.dtd">
<svg version="1.0" xmlns="http://www.w3.org/2000/svg"
 width="512.000000pt" height="512.000000pt" viewBox="0 0 512.000000 512.000000"
 preserveAspectRatio="xMidYMid meet">
<metadata>
Created by potrace 1.16, written by Peter Selinger 2001-2019
</metadata>
<g transform="translate(0.000000,512.000000) scale(0.100000,-0.100000)"
fill="aliceblue" stroke="none">
<path d="M1139 5091 l-29 -29 0 -369 c0 -347 2 -369 20 -393 l19 -25 278 -5
278 -5 3 -212 2 -213 -45 0 c-42 0 -45 2 -45 28 0 43 -43 124 -85 161 -53 46
-99 63 -172 63 -125 1 -229 -88 -249 -211 l-7 -41 -524 0 -525 0 -29 -29 -29
-29 0 -285 0 -284 26 -27 27 -26 527 0 527 0 7 -41 c15 -94 87 -177 177 -203
29 -9 62 -16 74 -16 48 0 128 33 167 68 45 40 88 121 88 165 0 27 2 28 43 25
l42 -3 5 -1230 5 -1230 23 -73 c89 -288 303 -502 587 -588 80 -24 106 -27 235
-27 129 0 155 3 235 27 284 86 498 300 587 588 l23 73 5 1235 5 1235 39 0 c38
0 39 0 52 -52 42 -163 205 -247 349 -179 81 38 135 105 153 193 l8 38 533 5
533 5 19 24 c18 22 19 43 19 307 l0 283 -24 28 -24 28 -529 3 -528 3 -13 52
c-16 68 -56 125 -117 162 -43 27 -57 30 -130 30 -73 0 -87 -3 -131 -30 -59
-37 -110 -109 -120 -170 l-6 -45 -44 0 -44 0 0 210 0 210 275 0 276 0 24 26
25 27 0 369 0 370 -29 29 -29 29 -1392 0 -1392 0 -29 -29z m2701 -396 l0 -255
-1280 0 -1280 0 0 255 0 255 1280 0 1280 0 0 -255z m-1708 -2162 c3 -1671 4
-1739 22 -1772 30 -56 108 -126 177 -159 87 -41 168 -55 286 -50 155 7 271 59
351 157 l42 52 0 1754 0 1755 115 0 115 0 0 -1747 c0 -1914 3 -1817 -59 -1949
-84 -180 -229 -309 -418 -372 -67 -22 -95 -26 -203 -26 -108 0 -136 4 -203 26
-189 63 -334 192 -418 372 -62 132 -59 35 -59 1949 l0 1747 125 0 125 0 2
-1737z m798 1672 c0 -45 -4 -65 -12 -65 -7 0 -143 29 -303 64 l-290 65 303 0
302 1 0 -65z m-375 -70 c187 -41 348 -75 357 -75 15 0 18 -9 18 -50 0 -30 -4
-50 -11 -50 -6 0 -166 36 -355 80 -190 44 -347 80 -349 80 -3 0 -5 20 -5 45 0
25 1 45 3 45 1 0 155 -34 342 -75z m16 -179 c180 -42 334 -76 343 -76 12 0 16
-10 16 -45 0 -39 -3 -45 -21 -45 -12 0 -174 39 -360 87 l-339 86 0 39 c0 33 3
38 18 34 9 -3 164 -39 343 -80z m1224 -32 c42 -16 45 -45 45 -424 l0 -362 -29
-29 c-18 -17 -40 -29 -56 -29 -16 0 -38 12 -56 29 l-29 29 0 370 0 369 25 27
c24 26 63 34 100 20z m-2370 -29 l25 -24 0 -370 0 -370 -24 -27 c-18 -21 -32
-28 -61 -28 -29 0 -43 7 -61 28 l-24 27 0 370 0 370 25 24 c33 34 87 34 120 0z
m960 -60 c77 -20 149 -40 160 -45 24 -10 343 -80 368 -80 14 0 17 -9 17 -50 0
-30 -4 -50 -11 -50 -6 0 -166 36 -355 80 -190 44 -347 80 -349 80 -3 0 -5 25
-5 56 0 48 2 55 18 50 9 -2 80 -21 157 -41z m186 -229 c180 -42 334 -76 343
-76 12 0 16 -10 16 -45 0 -29 -4 -45 -12 -45 -16 0 -332 76 -545 131 l-163 41
0 40 c0 33 3 38 18 34 9 -3 164 -39 343 -80z m929 -96 l0 -170 -45 0 -45 0 0
163 c0 90 3 167 7 170 3 4 24 7 45 7 l38 0 0 -170z m1450 0 l0 -170 -470 0
-470 0 0 170 0 170 470 0 470 0 0 -170z m-3840 -10 l0 -170 -470 0 -470 0 0
170 0 170 470 0 470 0 0 -170z m600 0 l0 -170 -45 0 -45 0 0 170 0 170 45 0
45 0 0 -170z m861 -64 c180 -42 334 -76 343 -76 12 0 16 -10 16 -45 0 -39 -3
-45 -21 -45 -12 0 -174 39 -360 87 l-339 86 0 39 c0 33 3 38 18 34 9 -3 164
-39 343 -80z m-166 -127 c213 -56 479 -119 507 -119 15 0 18 -8 18 -50 0 -30
-4 -50 -11 -50 -6 0 -166 36 -355 80 -190 44 -347 80 -349 80 -3 0 -5 25 -5
55 0 30 1 55 3 55 1 0 88 -23 192 -51z m166 -223 c180 -42 334 -76 343 -76 12
0 16 -10 16 -45 0 -29 -4 -45 -12 -45 -16 0 -332 76 -545 131 l-163 41 0 40
c0 33 3 38 18 34 9 -3 164 -39 343 -80z m0 -170 c180 -42 334 -76 343 -76 12
0 16 -10 16 -45 0 -39 -3 -45 -21 -45 -12 0 -174 39 -360 87 l-339 86 0 39 c0
33 3 38 18 34 9 -3 164 -39 343 -80z m-166 -127 c213 -56 479 -119 507 -119
15 0 18 -8 18 -50 0 -30 -4 -50 -11 -50 -6 0 -166 36 -355 80 -190 44 -347 80
-349 80 -3 0 -5 25 -5 55 0 30 1 55 3 55 1 0 88 -23 192 -51z m166 -223 c180
-42 334 -76 343 -76 12 0 16 -10 16 -45 0 -29 -4 -45 -12 -45 -16 0 -332 76
-545 131 l-163 41 0 40 c0 33 3 38 18 34 9 -3 164 -39 343 -80z m0 -170 c180
-42 334 -76 343 -76 12 0 16 -10 16 -45 0 -39 -3 -45 -21 -45 -12 0 -174 39
-360 87 l-339 86 0 39 c0 33 3 38 18 34 9 -3 164 -39 343 -80z m-171 -125
c102 -27 192 -51 200 -54 26 -10 292 -67 311 -67 16 0 19 -8 19 -50 0 -30 -4
-50 -11 -50 -6 0 -166 36 -355 80 -190 44 -347 80 -349 80 -3 0 -5 25 -5 55 0
30 1 55 3 55 1 0 85 -22 187 -49z m171 -225 c180 -42 334 -76 343 -76 12 0 16
-10 16 -45 0 -29 -4 -45 -12 -45 -16 0 -332 76 -545 131 l-163 41 0 40 c0 33
3 38 18 34 9 -3 164 -39 343 -80z m0 -170 c180 -42 334 -76 343 -76 12 0 16
-10 16 -45 0 -39 -3 -45 -21 -45 -12 0 -174 39 -360 87 l-339 86 0 39 c0 33 3
38 18 34 9 -3 164 -39 343 -80z m-166 -127 c213 -56 479 -119 507 -119 15 0
18 -8 18 -50 0 -30 -4 -50 -11 -50 -6 0 -166 36 -355 80 -190 44 -347 80 -349
80 -3 0 -5 25 -5 55 0 30 1 55 3 55 1 0 88 -23 192 -51z m166 -223 c180 -42
334 -76 343 -76 13 0 16 -11 16 -51 0 -43 -2 -50 -17 -45 -10 3 -172 44 -360
92 l-343 87 0 39 c0 33 3 38 18 34 9 -3 164 -39 343 -80z m-166 -127 c213 -56
479 -119 507 -119 15 0 18 -8 18 -50 0 -30 -4 -50 -11 -50 -6 0 -166 36 -355
80 -190 44 -347 80 -349 80 -3 0 -5 25 -5 55 0 30 1 55 3 55 1 0 88 -23 192
-51z m166 -223 c180 -42 334 -76 343 -76 13 0 16 -11 16 -51 0 -43 -2 -50 -17
-45 -10 3 -172 44 -360 92 l-343 87 0 39 c0 33 3 38 18 34 9 -3 164 -39 343
-80z m12 -171 l347 -88 0 -49 c0 -29 -4 -48 -11 -48 -6 0 -166 41 -356 90
-189 50 -346 90 -348 90 -3 0 -5 23 -5 51 0 37 4 50 13 47 6 -3 168 -45 360
-93z m-28 -175 c171 -44 317 -83 325 -86 12 -4 10 -9 -10 -25 -50 -39 -101
-61 -115 -49 -16 13 -491 150 -522 150 -21 0 -23 5 -23 51 0 43 2 50 18 45 9
-3 157 -42 327 -86z"/>
</g>
</svg>
