<?xml version="1.0" standalone="no"?>
<!DOCTYPE svg PUBLIC "-//W3C//DTD SVG 20010904//EN"
 "http://www.w3.org/TR/2001/REC-SVG-20010904/DTD/svg10.dtd">
<svg version="1.0" xmlns="http://www.w3.org/2000/svg"
 width="225.000000pt" height="225.000000pt" viewBox="0 0 225.000000 225.000000"
 preserveAspectRatio="xMidYMid meet">
<metadata>
Created by potrace 1.16, written by Peter Selinger 2001-2019
</metadata>
<g transform="translate(0.000000,225.000000) scale(0.100000,-0.100000)"
fill="aliceblue" stroke="none">
<path d="M805 2231 c-78 -35 -125 -113 -125 -208 l0 -43 -229 0 c-220 0 -229
-1 -262 -23 -19 -12 -44 -42 -57 -67 l-22 -45 2 -861 3 -861 28 -36 c57 -75
34 -72 588 -72 l495 0 42 27 c83 55 77 -16 77 958 l0 865 -23 36 c-44 71 -52
73 -292 79 l-215 5 1 49 c1 89 -17 86 458 86 498 0 456 13 456 -144 l0 -104
-55 -4 c-70 -6 -130 -45 -165 -108 -24 -44 -25 -50 -28 -285 -4 -297 -2 -315
49 -370 l39 -42 0 -340 0 -339 25 -51 c26 -52 71 -95 119 -113 25 -9 26 -12
26 -99 0 -82 2 -91 22 -105 32 -22 55 -20 83 9 22 22 25 32 25 104 l0 81 38
19 c22 11 53 36 70 55 57 65 62 104 62 458 l0 319 39 37 c58 55 63 87 59 371
l-3 246 -28 48 c-40 67 -92 99 -175 106 l-67 6 -5 120 c-5 132 -16 163 -70
208 -17 15 -47 31 -68 37 -23 6 -198 10 -457 10 -385 0 -423 -2 -460 -19z
m405 -401 c7 -13 9 -198 8 -557 l-3 -538 -487 -3 -488 -2 0 548 c0 413 3 551
12 560 9 9 129 12 480 12 453 0 468 -1 478 -20z m771 -116 c24 -25 24 -29 27
-242 2 -119 1 -231 -3 -249 l-6 -33 -189 0 c-189 0 -190 0 -195 23 -4 12 -5
125 -3 249 4 295 -8 278 198 278 145 0 147 0 171 -26z m-87 -660 c24 -9 24
-609 1 -659 -24 -50 -79 -72 -129 -51 -66 28 -66 26 -66 382 0 176 3 324 7
327 8 9 166 9 187 1z m-676 -666 c2 -198 1 -209 -18 -228 -20 -20 -28 -21
-481 -18 -396 3 -461 5 -469 18 -5 8 -10 111 -10 228 l0 212 488 -2 487 -3 3
-207z"/>
<path d="M620 1756 c-122 -33 -225 -117 -281 -231 -26 -53 -33 -82 -37 -146
-7 -129 -42 -119 428 -119 454 0 430 -5 430 86 -1 271 -278 482 -540 410z
m197 -131 c92 -27 164 -97 198 -194 l14 -41 -95 0 -95 0 33 60 c31 56 32 61
18 86 -42 75 -87 58 -150 -56 l-47 -85 -132 -3 -133 -3 7 23 c25 80 69 140
132 179 81 50 159 61 250 34z"/>
<path d="M442 1200 c-44 -10 -94 -46 -123 -88 -20 -29 -24 -48 -24 -107 0 -62
4 -77 28 -112 91 -132 289 -110 351 39 44 105 -17 230 -128 263 -54 16 -56 16
-104 5z m98 -150 c34 -34 25 -82 -21 -105 -66 -35 -127 41 -83 103 20 29 76
30 104 2z"/>
<path d="M922 1200 c-124 -29 -188 -169 -131 -288 58 -120 231 -143 322 -43
34 38 57 93 57 136 0 82 -63 166 -143 190 -55 16 -57 16 -105 5z m84 -138 c20
-13 36 -54 30 -78 -7 -28 -57 -57 -83 -47 -52 18 -68 67 -37 111 15 22 66 30
90 14z"/>
</g>
</svg>
