<?xml version="1.0" standalone="no"?>
<!DOCTYPE svg PUBLIC "-//W3C//DTD SVG 20010904//EN"
 "http://www.w3.org/TR/2001/REC-SVG-20010904/DTD/svg10.dtd">
<svg version="1.0" xmlns="http://www.w3.org/2000/svg"
 width="225.000000pt" height="225.000000pt" viewBox="0 0 225.000000 225.000000"
 preserveAspectRatio="xMidYMid meet">
<metadata>
Created by potrace 1.16, written by Peter Selinger 2001-2019
</metadata>
<g transform="translate(0.000000,225.000000) scale(0.100000,-0.100000)"
fill="aliceblue" stroke="none">
<path d="M660 2232 c-95 -47 -85 -184 16 -227 l34 -14 0 -199 c0 -109 -3 -201
-6 -205 -3 -3 -121 71 -261 164 -140 94 -260 172 -266 175 -15 6 -92 -95 -80
-106 4 -4 138 -94 296 -200 159 -106 295 -199 303 -207 11 -12 14 -55 14 -213
l0 -198 -37 -29 c-21 -16 -158 -112 -305 -212 -148 -100 -268 -186 -268 -190
0 -8 24 -41 59 -83 10 -12 20 -14 37 -8 13 5 130 81 260 170 130 88 240 160
244 160 5 0 10 -114 12 -252 3 -251 3 -254 30 -311 57 -121 179 -214 316 -239
173 -32 365 67 445 231 l32 66 3 268 c2 201 6 267 15 265 7 -2 128 -81 270
-176 142 -94 262 -172 267 -172 16 0 72 79 68 97 -2 11 -131 104 -308 223
l-305 205 -3 182 -2 183 52 37 c29 21 163 113 298 204 172 116 246 172 248
187 5 30 -46 102 -72 102 -11 0 -131 -76 -266 -169 -135 -92 -248 -166 -252
-164 -5 2 -8 96 -8 209 l0 205 34 14 c71 30 102 106 70 172 -36 73 -34 73
-519 73 -389 0 -433 -2 -465 -18z m881 -82 c23 -13 25 -46 3 -54 -20 -8 -818
-8 -838 0 -21 8 -20 40 2 53 24 14 806 15 833 1z m-91 -399 l0 -249 -25 -16
c-21 -14 -62 -16 -291 -16 -253 0 -268 1 -300 21 l-34 21 0 244 0 244 325 0
325 0 0 -249z m-239 -412 c-82 -58 -73 -59 -171 12 l-55 39 150 0 149 0 -73
-51z m-308 -60 c51 -34 96 -65 101 -69 6 -6 -102 -87 -191 -143 -10 -6 -13 21
-13 133 0 77 2 140 5 140 3 0 47 -28 98 -61z m545 -139 l-3 -60 -88 59 -89 59
64 44 c34 25 74 52 88 62 l25 16 3 -60 c2 -33 2 -87 0 -120z m0 -515 c-3 -278
-4 -292 -26 -336 -33 -67 -83 -121 -143 -154 -50 -28 -62 -30 -154 -30 -93 0
-104 2 -155 31 -30 17 -74 54 -97 82 -67 82 -73 116 -73 411 l1 256 172 116
171 116 153 -101 153 -101 -2 -290z"/>
</g>
</svg>
