<?xml version="1.0" encoding="utf-8"?>
<!-- Svg Vector Icons : http://www.onlinewebfonts.com/icon -->
<!DOCTYPE svg PUBLIC "-//W3C//DTD SVG 1.1//EN" "http://www.w3.org/Graphics/SVG/1.1/DTD/svg11.dtd">
<svg version="1.1" xmlns="http://www.w3.org/2000/svg" xmlns:xlink="http://www.w3.org/1999/xlink" x="0px" y="0px" viewBox="0 0 1000 1000" enable-background="new 0 0 1000 1000" xml:space="preserve"
fill="aliceblue">
<g>
    <path d="M487.8,390"/>
    <path d="M555.7,571.6l72.3-166l-17.6-9.2l-97,157c-4.4-0.7-8.9-1.1-13.4-1.1c-49.9,0-90.4,40.5-90.4,90.4c0,49.9,40.5,90.4,90.4,90.4c49.9,0,90.4-40.5,90.4-90.4C590.4,613.8,576.8,588.2,555.7,571.6z"/>
    <path d="M114.3,825.1C93.6,779.2,80.6,729,77.1,676.1l71.4-9.5c-0.1-3.1-0.2-6.1-0.2-9.1c0-12.9,0.7-25.6,2.1-38.1H77.2c3.8-57.4,18.7-111.7,42.7-160.6l71.4,30.2c7.1-13,15.1-25.5,23.7-37.4l-68-40.1c29.5-44.7,67.1-83.4,110.7-114.2l49.7,66c11.6-7.6,23.6-14.5,36-20.7l-41.3-72.7c44.8-23.9,94.4-39.9,146.9-46.3l10.8,84.6c13.2-1.5,26.6-2.4,40.2-2.4v-85.4c53.1,0,103.9,9.9,150.7,27.9L619,326.4c12.9,4.6,25.5,10.1,37.7,16.1l41.3-72.7c46.8,25,88.4,58.5,122.7,98.6l-63.2,49.5c9.9,10.6,19.1,21.8,27.6,33.6l68-40.1c29.9,45.4,51.5,96.9,62.5,152.3l-74,9.8c3.7,14.9,6.4,30.3,8.1,45.9h73.2c0.6,9.5,1,19,1,28.6c0,63.2-13.7,123.1-38.1,177.1c12.5,14.5,24.2,29.6,35,45.4c43.9-73.4,69.2-159.3,69.2-251.1c0-270.6-219.4-490-490-490c-270.6,0-490,219.4-490,490c0,91.8,25.3,177.6,69.2,251.1C90,854.7,101.8,839.6,114.3,825.1z"/></g>
</svg>