<?xml version="1.0" encoding="utf-8"?>
<!-- Svg Vector Icons : http://www.onlinewebfonts.com/icon -->
<!DOCTYPE svg PUBLIC "-//W3C//DTD SVG 1.1//EN" "http://www.w3.org/Graphics/SVG/1.1/DTD/svg11.dtd">
<svg version="1.1" xmlns="http://www.w3.org/2000/svg" xmlns:xlink="http://www.w3.org/1999/xlink" x="0px" y="0px" viewBox="0 0 1000 1000" enable-background="new 0 0 1000 1000" xml:space="preserve">
<metadata> Svg Vector Icons : http://www.onlinewebfonts.com/icon </metadata>
<g><path d="M500,10C229.4,10,10,229.4,10,500c0,83.5,20.9,162.1,57.8,230.8c46.4,86.8,118.2,157.8,205.4,203.5C341,969.8,418.1,990,500,990c84.6,0,164.2-21.4,233.6-59.2c86.4-47,157-119.2,202.1-206.8c34.6-67.2,54.3-143.3,54.3-224C990,229.4,770.6,10,500,10z M855.2,594.2c-2.8,10.5-6.2,20.8-9.9,30.9c-16.3-4.8-33.5-7.4-51.4-7.4c-101.8,0-184.3,82.6-184.3,184.3c0,16.1,2.2,31.6,6.1,46.4c-4.6,1.5-9.1,3.1-13.7,4.5c-32.4,9.4-66.7,14.5-102.1,14.5c-33.3,0-65.7-4.6-96.4-13c-5-1.3-9.9-2.9-14.7-4.5c3.5-14.1,5.4-28.8,5.4-44c0-101.8-82.5-184.3-184.3-184.3c-18.7,0-36.6,2.9-53.5,8c-3.7-9.8-7.2-19.8-10.1-29.9c-9-31.8-13.9-65.2-13.9-99.8c0-202.6,164.9-367.5,367.5-367.5c202.6,0,367.5,164.9,367.5,367.5C867.5,532.5,863.2,564.1,855.2,594.2z M547.2,441.2L389.3,192.1l-24.8,10.3l65.7,286.8c-0.6,3.7-0.9,7.5-0.9,11.2c0,28.9,17.1,56.3,45.4,68.1c9.3,3.9,18.9,5.7,28.4,5.7c28.9,0,56.2-17.1,68.1-45.4c3.9-9.3,5.7-18.9,5.7-28.4C576.9,477.3,566,455.2,547.2,441.2z M523.3,169.2h-45.5v112.2h45.5V169.2z M703.9,256.9l-79.4,79.4l32.2,32.2l79.3-79.4L703.9,256.9z M701.1,480.7h112.2l0-45.5H701.1V480.7z M187.9,480.7h112.2v-45.5H187.9V480.7z M249.8,289.1l79.3,79.4l32.2-32.2L282,256.9L249.8,289.1z"/></g>
</svg>