<?xml version="1.0" standalone="no"?>
<!DOCTYPE svg PUBLIC "-//W3C//DTD SVG 20010904//EN"
 "http://www.w3.org/TR/2001/REC-SVG-20010904/DTD/svg10.dtd">
<svg version="1.0" xmlns="http://www.w3.org/2000/svg"
 width="200.000000pt" height="200.000000pt" viewBox="0 0 200.000000 200.000000"
 preserveAspectRatio="xMidYMid meet">
<metadata>
Created by potrace 1.16, written by Peter Selinger 2001-2019
</metadata>
<g transform="translate(0.000000,200.000000) scale(0.100000,-0.100000)"
fill="aliceblue" stroke="none">
<path d="M888 1608 c-22 -18 -148 -261 -148 -286 0 -16 28 -36 131 -91 72 -39
141 -71 153 -71 28 0 56 29 56 57 0 23 -17 40 -79 75 -35 21 -40 27 -25 32 32
10 134 -12 200 -43 139 -65 234 -216 234 -372 0 -63 -30 -157 -70 -219 -83
-129 -256 -206 -402 -180 -139 26 -244 104 -305 228 -36 71 -38 82 -38 166 1
50 4 114 9 141 7 44 6 52 -13 69 -18 16 -24 17 -51 6 -41 -17 -62 -89 -62
-214 0 -253 170 -459 422 -512 225 -48 468 71 570 279 173 352 -73 756 -462
759 l-87 1 30 58 c34 69 36 82 9 109 -23 23 -49 26 -72 8z"/>
</g>
</svg>
