<?xml version="1.0" standalone="no"?>
<!DOCTYPE svg PUBLIC "-//W3C//DTD SVG 20010904//EN"
 "http://www.w3.org/TR/2001/REC-SVG-20010904/DTD/svg10.dtd">
<svg version="1.0" xmlns="http://www.w3.org/2000/svg"
 width="225.000000pt" height="225.000000pt" viewBox="0 0 225.000000 225.000000"
 preserveAspectRatio="xMidYMid meet">
<metadata>
Created by potrace 1.16, written by Peter Selinger 2001-2019
</metadata>
<g transform="translate(0.000000,225.000000) scale(0.100000,-0.100000)"
fill="aliceblue" stroke="none">
<path d="M970 2239 c-61 -25 -77 -55 -100 -194 l-11 -70 -77 -32 -77 -33 -80
55 c-92 63 -120 71 -170 55 -40 -13 -161 -121 -207 -184 -45 -62 -40 -117 17
-197 72 -102 72 -100 43 -166 -14 -32 -28 -65 -31 -74 -4 -12 -33 -21 -101
-34 -156 -28 -176 -56 -176 -245 0 -189 21 -217 181 -245 51 -9 94 -17 94 -18
0 -1 15 -36 33 -77 l32 -74 -55 -81 c-89 -129 -85 -156 35 -282 103 -109 124
-123 181 -123 39 0 57 7 110 45 102 73 98 72 176 39 37 -15 71 -32 74 -37 3
-4 11 -45 18 -90 24 -154 56 -177 246 -177 191 0 219 21 248 188 8 45 16 84
18 85 2 1 37 17 77 34 l73 32 76 -54 c79 -57 126 -73 173 -59 32 10 180 148
216 202 26 38 31 90 13 125 -7 12 -33 52 -60 89 l-48 66 34 78 34 79 94 16
c109 19 132 31 158 81 16 31 19 59 19 164 0 189 -23 221 -177 245 -45 7 -86
15 -90 18 -9 7 -63 136 -63 151 0 5 25 46 55 90 85 125 77 166 -59 298 -85 84
-115 102 -167 102 -37 0 -54 -9 -140 -72 l-67 -48 -63 29 c-35 16 -71 31 -80
34 -12 4 -20 27 -29 79 -20 129 -39 163 -103 187 -35 14 -263 13 -297 0z m252
-121 c10 -8 20 -45 28 -98 19 -127 28 -144 86 -160 27 -7 81 -28 121 -47 39
-18 81 -33 93 -33 13 0 59 26 104 58 44 32 86 61 92 64 6 4 45 -28 88 -71 l77
-77 -66 -91 c-36 -51 -65 -102 -65 -115 0 -13 14 -50 30 -83 17 -32 37 -82 46
-111 8 -28 22 -58 32 -67 9 -8 64 -23 122 -32 58 -10 108 -23 112 -29 10 -14
10 -188 0 -202 -4 -6 -54 -19 -112 -29 -58 -9 -113 -24 -123 -33 -9 -8 -22
-34 -28 -56 -6 -23 -26 -72 -45 -110 -19 -39 -34 -81 -34 -94 0 -13 29 -64 65
-115 l66 -91 -77 -77 c-43 -43 -82 -75 -88 -71 -6 3 -48 32 -93 64 -45 32 -92
58 -105 58 -13 0 -50 -14 -83 -30 -32 -17 -82 -37 -111 -46 -28 -8 -58 -22
-67 -32 -8 -9 -23 -64 -32 -122 -10 -58 -23 -108 -29 -112 -6 -4 -51 -8 -101
-8 -49 0 -95 4 -101 8 -6 4 -19 54 -29 112 -9 58 -24 113 -32 122 -9 10 -39
24 -67 32 -29 9 -79 29 -111 46 -33 16 -68 30 -78 30 -10 0 -55 -26 -100 -58
-45 -32 -88 -62 -96 -66 -9 -6 -35 14 -87 65 -41 40 -74 77 -74 82 0 5 29 49
65 99 36 50 65 98 65 106 0 8 -11 34 -24 56 -13 23 -36 76 -51 118 -15 43 -33
82 -40 88 -7 6 -53 17 -101 25 -150 26 -134 9 -134 135 0 126 -17 109 134 135
50 8 95 20 102 27 6 7 20 38 29 68 10 30 31 81 46 112 16 32 29 67 29 79 0 12
-30 64 -66 116 l-66 95 73 74 c40 41 78 74 83 74 5 0 46 -27 91 -59 106 -76
116 -78 168 -48 23 14 77 37 119 52 43 15 83 34 89 42 7 7 20 62 30 120 10 59
24 110 31 115 21 13 182 10 200 -4z"/>
<path d="M999 1592 c-183 -48 -325 -208 -352 -397 -48 -330 250 -612 575 -544
221 46 388 251 388 474 0 262 -222 484 -485 484 -33 0 -90 -8 -126 -17z m258
-134 c42 -15 75 -38 119 -82 77 -77 104 -143 104 -251 0 -108 -27 -174 -104
-251 -77 -77 -143 -104 -251 -104 -108 0 -174 27 -251 104 -77 77 -104 143
-104 251 0 108 27 174 104 251 77 77 139 103 248 103 56 1 93 -5 135 -21z"/>
</g>
</svg>
