<?xml version="1.0" standalone="no"?>
<!DOCTYPE svg PUBLIC "-//W3C//DTD SVG 20010904//EN"
 "http://www.w3.org/TR/2001/REC-SVG-20010904/DTD/svg10.dtd">
<svg version="1.0" xmlns="http://www.w3.org/2000/svg"
 width="226.000000pt" height="312.000000pt" viewBox="0 0 226.000000 312.000000"
 preserveAspectRatio="xMidYMid meet">
<metadata>
Created by potrace 1.16, written by Peter Selinger 2001-2019
</metadata>
<g transform="translate(0.000000,312.000000) scale(0.100000,-0.100000)"
fill="aliceblue" stroke="none">
<path d="M1389 2827 c-106 -30 -202 -115 -238 -211 l-19 -51 -566 -3 -566 -2
0 -70 0 -70 565 0 c530 0 566 -1 571 -17 15 -51 70 -146 100 -173 128 -112
318 -121 450 -21 56 42 109 115 124 172 l11 39 214 0 215 0 0 70 0 70 -213 0
-213 0 -24 58 c-65 157 -254 253 -411 209z m180 -153 c123 -61 157 -220 69
-320 -44 -50 -99 -75 -163 -75 -184 0 -277 215 -151 348 71 75 156 91 245 47z"/>
<path d="M652 1832 c-93 -33 -175 -117 -209 -212 l-18 -50 -212 0 -213 0 0
-70 0 -70 213 0 213 0 28 -65 c20 -47 44 -79 85 -117 73 -68 139 -93 242 -93
65 0 85 5 142 33 79 39 148 111 175 185 l20 52 566 3 566 2 0 70 0 70 -565 0
c-530 0 -566 1 -571 18 -32 102 -98 183 -185 228 -72 37 -198 44 -277 16z
m223 -144 c88 -47 130 -159 96 -260 -24 -73 -122 -138 -206 -138 -36 0 -123
39 -147 66 -26 29 -58 105 -58 139 -1 162 172 268 315 193z"/>
<path d="M1369 917 c-106 -30 -202 -115 -238 -211 l-19 -51 -556 -3 -556 -2 0
-70 0 -70 555 0 c521 0 556 -1 561 -17 15 -51 70 -146 100 -173 128 -112 318
-121 450 -21 56 42 109 115 124 172 l11 39 214 0 215 0 0 70 0 70 -213 0 -213
0 -24 58 c-65 157 -254 253 -411 209z m180 -153 c123 -61 157 -220 69 -320
-44 -50 -99 -75 -163 -75 -184 0 -277 215 -151 348 71 75 156 91 245 47z"/>
</g>
</svg>
