<?xml version="1.0" standalone="no"?>
<!DOCTYPE svg PUBLIC "-//W3C//DTD SVG 20010904//EN"
 "http://www.w3.org/TR/2001/REC-SVG-20010904/DTD/svg10.dtd">
<svg version="1.0" xmlns="http://www.w3.org/2000/svg"
 width="225.000000pt" height="225.000000pt" viewBox="0 0 225.000000 225.000000"
 preserveAspectRatio="xMidYMid meet">
<metadata>
Created by potrace 1.16, written by Peter Selinger 2001-2019
</metadata>
<g transform="translate(0.000000,225.000000) scale(0.100000,-0.100000)"
fill="aliceblue" stroke="none">
<path d="M407 2019 c-15 -11 -32 -37 -38 -59 -10 -33 -9 -44 10 -82 20 -43 21
-56 21 -446 l0 -402 -67 0 c-38 0 -74 -4 -82 -9 -10 -7 -31 -110 -67 -338 -29
-180 -56 -342 -59 -360 -5 -31 -8 -32 -57 -35 -58 -3 -81 -25 -62 -55 11 -17
75 -18 1119 -18 1044 0 1108 1 1119 18 19 30 -4 52 -62 55 -49 3 -52 4 -57 35
-3 18 -30 180 -59 360 -36 225 -57 332 -67 338 -8 5 -44 9 -81 9 l-68 0 0 402
c0 390 1 403 21 446 19 38 20 49 10 82 -22 74 -39 80 -243 80 l-180 0 -29 -29
c-24 -25 -29 -37 -29 -78 0 -26 7 -57 15 -67 13 -17 15 -85 15 -428 l0 -408
-50 0 -50 0 0 405 c0 399 0 406 21 435 31 41 22 105 -21 143 l-30 27 -176 0
-176 0 -34 -34 c-41 -41 -47 -97 -14 -139 19 -24 20 -40 20 -431 l0 -406 -50
0 -50 0 0 408 c0 343 2 411 15 428 8 10 15 40 15 66 0 39 -5 52 -31 77 l-31
31 -177 0 c-165 0 -180 -2 -204 -21z m337 -65 c21 -8 21 -40 0 -48 -9 -3 -71
-6 -138 -6 -89 0 -127 4 -141 14 -16 12 -17 16 -6 30 11 13 36 16 141 16 71 0
135 -3 144 -6z m520 0 c24 -9 19 -41 -6 -48 -13 -3 -72 -6 -133 -6 -60 0 -120
3 -132 6 -25 7 -31 39 -10 47 18 8 262 8 281 1z m527 -10 c11 -14 10 -18 -6
-30 -14 -10 -52 -14 -141 -14 -135 0 -154 4 -154 30 0 26 11 28 156 29 109 1
134 -2 145 -15z m-1063 -211 l3 -83 -121 0 -120 0 0 78 c0 43 3 82 7 86 4 3
57 5 117 4 l111 -3 3 -82z m512 -133 l0 -220 -115 0 -115 0 0 220 0 220 115 0
115 0 0 -220z m518 83 l3 -133 -121 0 -120 0 0 128 c0 71 3 132 7 136 4 3 57
5 117 4 l111 -3 3 -132z m-1028 -388 l0 -265 -120 0 -120 0 0 265 0 265 120 0
120 0 0 -265z m1030 -50 l0 -215 -120 0 -120 0 0 215 0 215 120 0 120 0 0
-215z m-520 -85 l0 -130 -115 0 -115 0 0 130 0 130 115 0 115 0 0 -130z m-840
-393 c0 -167 1 -175 26 -226 64 -128 227 -155 327 -54 55 55 67 107 67 295 l0
158 50 0 50 0 0 -175 c0 -136 4 -184 15 -213 70 -166 310 -166 380 0 11 29 15
77 15 213 l0 175 50 0 50 0 0 -158 c0 -188 12 -240 67 -295 100 -100 263 -73
327 54 25 51 26 59 26 226 l0 173 40 0 c24 0 42 -5 45 -12 9 -27 102 -623 98
-630 -6 -10 -1810 -10 -1816 0 -4 7 89 603 98 630 3 7 21 12 45 12 l40 0 0
-173z m330 11 c0 -190 -9 -220 -74 -252 -36 -17 -43 -18 -80 -5 -25 9 -49 27
-63 48 -22 32 -23 44 -23 202 l0 169 120 0 120 0 0 -162z m510 -13 l0 -175
-33 -37 c-49 -53 -115 -53 -164 0 l-33 37 0 175 0 175 115 0 115 0 0 -175z
m520 6 c0 -158 -1 -170 -23 -202 -14 -21 -38 -39 -63 -48 -37 -13 -44 -12 -80
5 -65 32 -74 62 -74 252 l0 162 120 0 120 0 0 -169z"/>
</g>
</svg>
