<?xml version="1.0" standalone="no"?>
<!DOCTYPE svg PUBLIC "-//W3C//DTD SVG 20010904//EN"
 "http://www.w3.org/TR/2001/REC-SVG-20010904/DTD/svg10.dtd">
<svg version="1.0" xmlns="http://www.w3.org/2000/svg"
 width="764.000000pt" height="1028.000000pt" viewBox="0 0 764.000000 1028.000000"
 preserveAspectRatio="xMidYMid meet">
<metadata>
Created by potrace 1.16, written by Peter Selinger 2001-2019
</metadata>
<g transform="translate(0.000000,1028.000000) scale(0.100000,-0.100000)"
fill="aliceblue" stroke="none">
<path d="M511 9969 c-76 -31 -121 -96 -121 -179 0 -114 78 -190 195 -190 117
0 195 76 195 190 0 109 -82 191 -189 189 -31 0 -67 -5 -80 -10z"/>
<path d="M981 9539 c-76 -31 -121 -96 -121 -179 0 -114 78 -190 195 -190 117
0 195 76 195 190 0 109 -82 191 -189 189 -31 0 -67 -5 -80 -10z"/>
<path d="M1980 8930 l0 -500 360 0 360 0 0 500 0 500 -360 0 -360 0 0 -500z"/>
<path d="M2927 9424 c-4 -4 -7 -227 -7 -495 l0 -489 23 -4 c12 -3 49 -10 82
-17 127 -24 385 -130 453 -186 l24 -19 -22 -64 c-106 -322 -348 -543 -672
-614 l-28 -6 0 -94 0 -94 45 -7 c88 -13 308 15 442 56 89 28 231 99 313 157
78 55 206 176 262 249 22 29 43 53 47 53 13 0 114 -173 151 -258 36 -83 81
-220 95 -288 l6 -31 -88 -21 c-281 -69 -489 -264 -584 -547 l-24 -70 -5 -719
-5 -718 -118 -72 c-682 -411 -1143 -1086 -1277 -1870 -36 -211 -42 -394 -38
-1171 5 -805 3 -781 64 -965 120 -362 422 -663 784 -783 195 -65 67 -61 1785
-65 1088 -2 1589 0 1657 8 539 61 957 439 1084 980 16 67 18 154 22 860 2 528
0 827 -8 914 -41 473 -193 902 -461 1296 -213 314 -518 602 -843 797 l-115 68
-3 705 -4 705 -27 90 c-86 277 -302 488 -562 551 -38 9 -80 20 -92 25 l-23 9
0 574 c0 316 3 581 6 590 5 14 60 16 511 16 l506 0 -7 73 c-11 115 -43 234
-90 333 -53 112 -89 165 -169 251 -138 147 -296 238 -507 290 -58 15 -203 17
-1320 20 -691 2 -1259 1 -1263 -3z m2335 -2706 c62 -28 103 -65 134 -120 l29
-53 5 -800 c5 -796 5 -800 27 -840 34 -63 79 -98 211 -165 351 -178 631 -429
852 -765 65 -99 179 -331 219 -447 38 -110 89 -317 97 -395 l7 -60 -144 -47
c-341 -109 -645 -156 -1011 -156 -418 0 -752 49 -1493 215 -639 144 -905 185
-1195 185 -130 0 -308 -17 -382 -35 -25 -6 -28 -4 -28 17 0 14 14 74 31 134
169 601 572 1084 1145 1372 103 52 139 80 177 141 l22 36 5 800 c5 743 6 803
23 840 36 80 116 142 200 155 29 5 273 7 542 7 438 -2 494 -4 527 -19z"/>
<path d="M551 9109 c-76 -31 -121 -96 -121 -179 0 -114 78 -190 195 -190 117
0 195 76 195 190 0 109 -82 191 -189 189 -31 0 -67 -5 -80 -10z"/>
<path d="M1461 9109 c-76 -31 -121 -96 -121 -179 0 -114 78 -190 195 -190 117
0 195 76 195 190 0 109 -82 191 -189 189 -31 0 -67 -5 -80 -10z"/>
<path d="M1051 8669 c-76 -31 -121 -96 -121 -179 0 -114 78 -190 195 -190 117
0 195 76 195 190 0 109 -82 191 -189 189 -31 0 -67 -5 -80 -10z"/>
<path d="M581 8229 c-76 -31 -121 -96 -121 -179 0 -114 78 -190 195 -190 117
0 195 76 195 190 0 109 -82 191 -189 189 -31 0 -67 -5 -80 -10z"/>
</g>
</svg>
