<?xml version="1.0" standalone="no"?>
<!DOCTYPE svg PUBLIC "-//W3C//DTD SVG 20010904//EN"
 "http://www.w3.org/TR/2001/REC-SVG-20010904/DTD/svg10.dtd">
<svg version="1.0" xmlns="http://www.w3.org/2000/svg"
 width="200.000000pt" height="200.000000pt" viewBox="0 0 200.000000 200.000000"
 preserveAspectRatio="xMidYMid meet">
<metadata>
Created by potrace 1.16, written by Peter Selinger 2001-2019
</metadata>
<g transform="translate(0.000000,200.000000) scale(0.100000,-0.100000)"
fill="#000000" stroke="none">
<path d="M410 1875 l0 -115 85 0 85 0 0 115 0 115 -85 0 -85 0 0 -115z"/>
<path d="M620 1880 c0 -97 2 -111 18 -116 9 -3 36 -14 60 -25 l42 -19 -20 -39
c-23 -46 -57 -75 -106 -91 -27 -9 -34 -17 -34 -37 0 -25 1 -26 58 -20 66 6
113 26 158 69 36 33 44 28 68 -39 l14 -41 -32 -6 c-32 -6 -84 -52 -105 -93 -7
-13 -11 -83 -11 -181 l0 -159 -49 -31 c-114 -74 -211 -211 -246 -347 -18 -70
-21 -447 -5 -507 16 -57 70 -120 130 -153 l55 -30 363 -3 c432 -3 446 -1 529
81 78 79 86 118 81 376 -4 190 -6 212 -30 278 -47 131 -121 230 -223 298 l-55
36 0 152 c0 126 -4 159 -19 193 -21 46 -63 83 -103 91 l-28 6 0 123 0 124 111
0 111 0 -6 38 c-12 66 -55 124 -115 155 l-55 27 -278 0 -278 0 0 -110z m511
-490 c18 -10 19 -23 19 -186 0 -96 4 -184 10 -194 5 -10 33 -31 62 -48 104
-58 183 -156 218 -271 17 -53 20 -92 20 -255 0 -213 -6 -235 -72 -276 -32 -20
-48 -20 -393 -18 -342 3 -361 4 -387 23 -55 42 -63 67 -66 232 -4 183 8 275
50 362 38 79 122 168 195 204 28 15 53 33 57 42 3 9 6 92 6 184 0 220 -6 211
146 211 64 0 124 -5 135 -10z"/>
</g>
</svg>
