<?xml version="1.0" standalone="no"?>
<!DOCTYPE svg PUBLIC "-//W3C//DTD SVG 20010904//EN"
 "http://www.w3.org/TR/2001/REC-SVG-20010904/DTD/svg10.dtd">
<svg version="1.0" xmlns="http://www.w3.org/2000/svg"
 width="200.000000pt" height="200.000000pt" viewBox="0 0 200.000000 200.000000"
 preserveAspectRatio="xMidYMid meet">
<metadata>
Created by potrace 1.16, written by Peter Selinger 2001-2019
</metadata>
<g transform="translate(0.000000,200.000000) scale(0.100000,-0.100000)"
fill="#000000" stroke="none">
<path d="M410 1875 l0 -115 85 0 85 0 0 115 0 115 -85 0 -85 0 0 -115z"/>
<path d="M620 1875 c0 -103 2 -115 18 -115 9 0 36 -9 59 -20 41 -18 42 -20 32
-47 -15 -40 -67 -91 -106 -104 -25 -8 -33 -16 -33 -35 0 -21 5 -24 36 -24 59
0 112 21 158 62 49 43 56 40 80 -29 l14 -41 -27 -5 c-16 -3 -42 -18 -60 -33
-56 -47 -61 -67 -61 -242 l0 -160 -50 -32 c-71 -45 -161 -147 -198 -225 -55
-112 -64 -172 -60 -410 3 -238 8 -257 88 -329 80 -72 72 -71 490 -71 360 0
377 1 421 21 66 31 113 77 140 136 23 51 24 62 23 273 0 212 -1 223 -27 298
-45 129 -111 220 -213 293 l-64 46 0 151 c0 127 -4 159 -19 193 -20 44 -60 78
-104 89 l-27 7 0 124 0 124 110 0 110 0 -6 28 c-15 68 -28 93 -68 130 -61 56
-101 62 -401 62 l-255 0 0 -115z m512 -492 c16 -14 18 -34 18 -185 0 -93 4
-178 10 -188 5 -10 33 -31 62 -48 108 -61 200 -184 227 -302 6 -25 11 -126 11
-225 0 -206 -7 -233 -76 -272 -38 -22 -46 -23 -379 -23 -379 0 -387 1 -432 69
-22 32 -23 43 -23 231 0 170 3 207 20 263 34 108 122 213 226 265 23 12 44 28
48 37 3 9 6 93 6 186 0 217 -5 209 152 209 90 0 115 -3 130 -17z"/>
<path d="M917 1152 c-23 -26 -21 -75 3 -97 25 -23 76 -24 97 -2 22 21 21 72
-2 97 -23 25 -76 26 -98 2z"/>
<path d="M993 975 c-27 -19 -38 -70 -24 -108 13 -33 64 -58 104 -50 61 12 87
95 46 147 -16 21 -29 26 -63 26 -23 0 -51 -7 -63 -15z"/>
<path d="M945 711 c-22 -10 -56 -35 -74 -57 -33 -36 -38 -39 -91 -40 -86 0
-147 -42 -177 -119 -15 -38 -16 -202 -2 -243 21 -62 23 -62 404 -62 l347 0 29
29 c29 29 29 30 29 148 0 100 -3 123 -20 151 -26 42 -76 72 -122 72 -31 0 -40
5 -52 28 -50 95 -173 138 -271 93z"/>
</g>
</svg>
