<?xml version="1.0" standalone="no"?>
<!DOCTYPE svg PUBLIC "-//W3C//DTD SVG 20010904//EN"
 "http://www.w3.org/TR/2001/REC-SVG-20010904/DTD/svg10.dtd">
<svg version="1.0" xmlns="http://www.w3.org/2000/svg"
 width="860.000000pt" height="1074.000000pt" viewBox="0 0 860.000000 1074.000000"
 preserveAspectRatio="xMidYMid meet">
<metadata>
Created by potrace 1.16, written by Peter Selinger 2001-2019
</metadata>
<g transform="translate(0.000000,1074.000000) scale(0.100000,-0.100000)"
fill="#000000" stroke="none">
<path d="M1078 10310 c-91 -49 -122 -160 -67 -249 28 -47 833 -646 887 -660
146 -39 269 127 193 263 -16 30 -822 639 -868 657 -39 15 -105 10 -145 -11z"/>
<path d="M2577 9563 c-10 -9 -8 -975 1 -991 7 -9 86 -12 363 -10 l354 3 3 503
2 502 -358 0 c-197 0 -362 -3 -365 -7z"/>
<path d="M3520 9076 l0 -496 23 -4 c131 -28 177 -40 253 -67 97 -34 245 -105
282 -136 l24 -19 -22 -64 c-107 -323 -349 -543 -672 -614 l-28 -6 0 -94 0 -95
55 -6 c73 -10 252 10 369 39 150 38 296 110 421 206 54 42 181 170 232 235 37
47 31 51 109 -79 72 -121 137 -288 168 -432 l7 -32 -75 -17 c-154 -34 -294
-110 -397 -215 -71 -73 -110 -129 -155 -224 -71 -150 -68 -105 -74 -900 l-5
-718 -118 -72 c-188 -113 -348 -238 -507 -396 -231 -229 -374 -425 -516 -705
-135 -268 -217 -525 -266 -838 -22 -139 -23 -160 -23 -982 0 -920 -1 -896 61
-1085 119 -359 424 -665 779 -782 203 -67 80 -63 1860 -63 l1610 0 95 22 c370
84 668 307 840 625 54 100 85 181 118 303 l26 100 4 795 c2 545 0 834 -8 920
-43 474 -194 897 -461 1290 -213 315 -519 603 -844 797 l-115 68 0 655 c0 363
-5 688 -10 730 -46 348 -299 611 -662 685 l-28 5 0 595 0 595 506 0 507 0 -7
73 c-10 113 -43 232 -90 333 -53 112 -89 165 -169 251 -138 147 -295 237 -507
290 -58 15 -201 17 -1327 20 l-1263 4 0 -495z m2345 -2220 c57 -24 100 -63
131 -118 l29 -53 5 -800 c5 -796 5 -800 27 -840 33 -62 78 -98 208 -163 595
-302 1013 -843 1149 -1488 44 -209 47 -297 44 -1114 l-3 -765 -28 -80 c-78
-221 -250 -386 -477 -457 l-75 -23 -1580 0 -1580 0 -80 27 c-261 89 -446 307
-485 573 -8 57 -10 298 -7 845 3 669 6 778 21 870 70 417 239 782 508 1095
187 217 418 395 694 533 109 55 152 92 187 161 l22 46 5 800 5 800 23 37 c28
44 84 96 126 114 47 20 1082 20 1131 0z"/>
<path d="M755 9201 c-44 -11 -70 -27 -99 -61 -73 -88 -51 -210 49 -267 l40
-23 618 0 c596 0 619 1 657 20 100 51 126 184 54 270 -58 68 -25 65 -689 67
-330 1 -613 -2 -630 -6z"/>
<path d="M1890 8618 c-52 -13 -859 -623 -884 -668 -25 -43 -26 -123 -3 -167
38 -71 139 -112 214 -85 46 16 856 626 874 658 38 67 31 147 -17 204 -46 54
-117 76 -184 58z"/>
</g>
</svg>
