<?xml version="1.0" standalone="no"?>
<!DOCTYPE svg PUBLIC "-//W3C//DTD SVG 20010904//EN"
 "http://www.w3.org/TR/2001/REC-SVG-20010904/DTD/svg10.dtd">
<svg version="1.0" xmlns="http://www.w3.org/2000/svg"
 width="225.000000pt" height="225.000000pt" viewBox="0 0 225.000000 225.000000"
 preserveAspectRatio="xMidYMid meet">
<metadata>
Created by potrace 1.16, written by Peter Selinger 2001-2019
</metadata>
<g transform="translate(0.000000,225.000000) scale(0.100000,-0.100000)"
fill="aliceblue" stroke="none">
<path d="M767 2188 l-57 -20 2 -586 3 -587 55 -27 c102 -50 218 -72 375 -72
155 1 245 19 352 71 l58 28 0 584 0 584 -35 12 c-19 7 -45 15 -57 19 l-23 7 0
-556 0 -555 -27 -11 c-158 -60 -395 -61 -546 -1 l-37 14 0 555 c0 306 -1 557
-2 558 -2 1 -29 -7 -61 -17z"/>
<path d="M1015 1770 l-110 -110 42 -42 43 -42 40 39 40 39 0 -177 0 -177 55 0
55 0 0 177 0 177 40 -39 40 -39 43 42 42 42 -110 110 -110 110 -110 -110z"/>
<path d="M960 735 l0 -65 65 0 65 0 0 65 0 65 -65 0 -65 0 0 -65z"/>
<path d="M1170 735 l0 -65 65 0 65 0 0 65 0 65 -65 0 -65 0 0 -65z"/>
<path d="M860 525 l0 -65 65 0 65 0 0 65 0 65 -65 0 -65 0 0 -65z"/>
<path d="M1070 525 l0 -65 65 0 65 0 0 65 0 65 -65 0 -65 0 0 -65z"/>
<path d="M1280 525 l0 -65 65 0 65 0 0 65 0 65 -65 0 -65 0 0 -65z"/>
<path d="M760 315 l0 -65 65 0 65 0 0 65 0 65 -65 0 -65 0 0 -65z"/>
<path d="M970 315 l0 -65 65 0 65 0 0 65 0 65 -65 0 -65 0 0 -65z"/>
<path d="M1190 315 l0 -65 65 0 65 0 0 65 0 65 -65 0 -65 0 0 -65z"/>
<path d="M1390 315 l0 -65 65 0 65 0 0 65 0 65 -65 0 -65 0 0 -65z"/>
</g>
</svg>
