<?xml version="1.0" standalone="no"?>
<!DOCTYPE svg PUBLIC "-//W3C//DTD SVG 20010904//EN"
 "http://www.w3.org/TR/2001/REC-SVG-20010904/DTD/svg10.dtd">
<svg version="1.0" xmlns="http://www.w3.org/2000/svg"
 width="225.000000pt" height="225.000000pt" viewBox="0 0 225.000000 225.000000"
 preserveAspectRatio="xMidYMid meet">
<metadata>
Created by potrace 1.16, written by Peter Selinger 2001-2019
</metadata>
<g transform="translate(0.000000,225.000000) scale(0.100000,-0.100000)"
fill="aliceblue" stroke="none">
<path d="M989 2195 c-160 -27 -339 -97 -339 -133 0 -11 7 -25 15 -32 13 -11
27 -7 83 18 37 17 112 44 167 59 89 24 116 27 250 27 176 -1 281 -24 435 -95
74 -35 95 -41 110 -32 16 10 21 4 48 -57 17 -38 28 -71 24 -74 -3 -3 -36 -6
-74 -6 -63 0 -69 2 -64 18 4 11 -1 25 -11 34 -49 43 -200 100 -316 118 -96 16
-301 8 -387 -15 -87 -23 -238 -94 -314 -149 -69 -50 -169 -151 -210 -213 -28
-42 -29 -42 -56 -28 -16 8 -32 19 -35 25 -14 23 123 185 220 260 73 56 73 104
-1 86 -64 -16 -322 -315 -312 -362 3 -20 140 -104 168 -104 12 0 33 22 57 57
84 126 197 225 340 297 211 105 483 115 701 24 74 -31 80 -36 61 -55 -6 -6 -9
-21 -7 -34 3 -23 6 -24 113 -27 151 -4 219 7 223 34 4 28 -120 289 -142 297
-17 7 -56 -24 -56 -43 0 -6 -17 -2 -37 9 -184 93 -445 131 -654 96z"/>
<path d="M1119 1863 c-69 -79 -149 -224 -149 -271 0 -38 23 -94 51 -127 85
-96 240 -80 305 31 39 67 32 138 -24 231 -53 90 -119 173 -136 173 -8 0 -29
-17 -47 -37z m89 -120 c76 -112 87 -155 57 -212 -15 -31 -69 -61 -107 -61 -37
0 -88 37 -104 76 -12 29 -13 42 -3 72 13 40 100 182 111 182 4 0 25 -26 46
-57z"/>
<path d="M1986 1641 c-38 -22 -73 -46 -78 -55 -6 -10 1 -34 21 -73 16 -32 41
-96 57 -143 25 -77 28 -99 28 -235 1 -159 -8 -214 -58 -337 -53 -131 -156
-266 -264 -347 l-67 -50 -20 25 c-35 44 -53 30 -126 -106 -67 -124 -81 -166
-56 -176 7 -2 80 -11 162 -18 180 -16 193 -11 161 65 -5 11 9 26 51 54 100 66
273 254 273 298 0 21 -26 40 -43 30 -8 -4 -41 -42 -74 -83 -65 -82 -131 -143
-233 -212 -47 -32 -65 -51 -64 -66 0 -21 -3 -21 -75 -15 -42 3 -77 7 -78 8 -2
1 14 32 33 69 26 49 39 65 47 57 19 -19 47 -12 110 31 134 89 261 249 329 410
89 212 89 494 -1 708 -16 40 -28 77 -25 82 3 4 19 15 35 24 l30 15 31 -68 c57
-126 80 -241 81 -398 1 -162 -16 -252 -70 -389 -37 -94 -36 -121 3 -121 42 0
116 213 136 394 21 190 -16 399 -103 579 -47 98 -53 99 -153 43z"/>
<path d="M157 1358 c-56 -77 -149 -211 -154 -224 -8 -21 16 -44 47 -44 27 0
28 -2 34 -72 22 -233 128 -464 291 -637 183 -193 442 -317 705 -337 119 -9
120 -8 120 112 0 108 -5 114 -89 114 -119 0 -290 56 -414 136 -96 62 -211 182
-269 279 -57 97 -107 243 -115 335 l-6 69 34 3 c55 5 49 32 -38 169 -89 140
-106 151 -146 97z m101 -158 c18 -32 20 -40 8 -40 -27 0 -34 -32 -26 -121 15
-162 63 -295 155 -434 147 -221 398 -374 660 -402 l70 -8 3 -42 c4 -49 9 -48
-104 -32 -470 65 -836 457 -871 932 -5 69 -10 91 -24 101 -17 12 -16 16 24 75
l42 61 20 -25 c11 -13 30 -43 43 -65z"/>
<path d="M514 1335 c-3 -8 -4 -90 -2 -182 4 -150 7 -176 30 -241 70 -196 224
-347 418 -412 92 -31 244 -38 344 -15 188 41 361 176 445 345 57 117 72 199
69 373 l-3 142 -30 0 c-27 0 -30 -4 -38 -42 -16 -84 -113 -130 -177 -86 -36
25 -48 43 -57 88 -8 36 -12 40 -38 40 -26 0 -30 -4 -38 -42 -11 -56 -63 -103
-115 -103 -68 0 -108 38 -126 123 -5 21 -12 27 -32 27 -25 0 -28 -4 -38 -53
-10 -46 -56 -88 -102 -94 -73 -10 -120 31 -139 120 -5 23 -10 28 -32 25 -21
-2 -28 -11 -39 -48 -17 -58 -51 -90 -101 -97 -72 -9 -119 32 -138 120 -4 21
-11 27 -31 27 -13 0 -27 -7 -30 -15z m357 -152 c22 -26 90 -53 136 -53 52 0
91 14 124 46 l27 25 45 -32 c76 -53 178 -51 239 6 l27 25 46 -32 c59 -42 140
-50 199 -19 l39 20 -6 -82 c-5 -71 -41 -204 -61 -224 -3 -3 -25 -8 -49 -10
-39 -5 -48 -1 -80 27 -25 22 -39 44 -44 73 -8 38 -12 42 -38 42 -26 0 -30 -4
-37 -41 -11 -53 -53 -94 -106 -101 -68 -9 -119 36 -137 120 -4 21 -11 27 -31
27 -25 0 -28 -4 -38 -53 -10 -46 -56 -88 -102 -94 -73 -10 -120 31 -139 120
-5 23 -10 28 -31 25 -21 -2 -29 -12 -42 -53 -20 -57 -66 -95 -117 -95 -45 0
-62 17 -86 85 -19 54 -39 225 -27 225 3 0 23 -7 44 -16 59 -25 135 -15 182 24
44 37 45 37 63 15z m25 -365 c41 -29 53 -33 114 -33 62 0 72 3 109 33 l40 32
44 -31 c75 -52 170 -52 232 2 l34 30 42 -31 c23 -17 60 -33 81 -36 21 -4 38
-10 38 -14 0 -19 -133 -129 -196 -162 -226 -119 -502 -77 -682 103 -57 57 -62
69 -32 69 26 0 92 33 109 54 17 20 13 21 67 -16z"/>
</g>
</svg>
