<?xml version="1.0" standalone="no"?>
<!DOCTYPE svg PUBLIC "-//W3C//DTD SVG 20010904//EN"
 "http://www.w3.org/TR/2001/REC-SVG-20010904/DTD/svg10.dtd">
<svg version="1.0" xmlns="http://www.w3.org/2000/svg"
 width="1840.000000pt" height="1548.000000pt" viewBox="0 0 1840.000000 1548.000000"
 preserveAspectRatio="xMidYMid meet">
<metadata>
Created by potrace 1.16, written by Peter Selinger 2001-2019
</metadata>
<g transform="translate(0.000000,1548.000000) scale(0.100000,-0.100000)"
fill="#000000" stroke="none">
<path d="M13516 13839 c-42 -6 -65 -15 -81 -33 -12 -13 -33 -26 -46 -28 -13
-1 -28 -13 -34 -25 -5 -13 -15 -23 -22 -23 -18 0 -53 -37 -53 -56 0 -9 -9 -18
-20 -21 -12 -3 -20 -14 -20 -27 0 -12 -9 -27 -20 -34 -11 -7 -20 -23 -20 -37
0 -17 -8 -29 -25 -37 -15 -7 -25 -20 -25 -32 0 -41 -12 -66 -31 -66 -12 0 -19
-7 -19 -18 0 -10 -7 -27 -15 -38 -8 -10 -15 -29 -15 -40 0 -12 -14 -36 -30
-54 -17 -18 -33 -44 -37 -59 -3 -14 -16 -36 -29 -49 -12 -13 -25 -41 -29 -63
-5 -28 -12 -39 -25 -39 -11 0 -20 -10 -24 -27 -8 -36 -38 -93 -48 -93 -5 0 -8
-9 -8 -20 0 -11 -7 -20 -15 -20 -10 0 -17 -14 -21 -40 -4 -25 -14 -45 -25 -51
-11 -5 -19 -18 -19 -27 0 -10 -7 -27 -15 -38 -8 -10 -15 -27 -15 -36 0 -10 -6
-18 -14 -18 -7 0 -23 -22 -34 -50 -12 -27 -26 -50 -31 -50 -6 0 -11 -9 -11
-19 0 -11 -4 -23 -10 -26 -5 -3 -10 -17 -10 -31 0 -15 -6 -24 -15 -24 -22 0
-18 -38 4 -45 11 -3 22 -12 25 -20 3 -8 14 -15 23 -15 10 0 25 -9 33 -20 8
-12 26 -20 42 -20 21 0 28 -5 28 -19 0 -12 10 -21 28 -25 46 -12 82 -30 82
-43 0 -7 15 -16 33 -21 18 -4 36 -17 42 -30 5 -12 17 -22 25 -22 8 0 24 -7 34
-15 11 -8 30 -15 43 -15 16 0 23 -6 23 -20 0 -14 9 -21 34 -26 41 -7 56 0 56
28 0 11 8 22 20 25 14 4 20 14 20 32 0 15 9 33 20 41 11 8 20 25 20 37 0 13 5
23 11 23 5 0 17 17 25 38 25 62 38 86 57 104 10 9 23 32 28 52 5 20 16 36 23
36 7 0 19 23 26 51 8 28 20 53 27 56 7 3 13 11 13 19 0 8 3 14 8 14 7 0 21 27
41 83 6 15 15 27 21 27 5 0 13 12 16 27 7 27 14 37 46 73 9 10 22 37 29 60 9
28 17 39 27 35 7 -3 18 -5 23 -5 5 0 12 -18 15 -39 4 -22 13 -42 20 -45 8 -3
14 -15 14 -26 0 -11 5 -20 10 -20 6 0 10 -9 10 -20 0 -11 6 -20 13 -20 8 0 19
-18 26 -40 6 -22 16 -40 21 -40 6 0 10 -10 10 -23 0 -12 9 -30 20 -40 11 -9
20 -27 20 -40 0 -14 9 -26 23 -32 12 -6 23 -21 25 -35 2 -14 8 -29 13 -35 5
-5 9 -17 9 -26 0 -10 4 -19 10 -21 5 -1 11 -19 12 -38 2 -27 -1 -35 -17 -38
-11 -3 -27 -13 -36 -23 -9 -11 -28 -19 -43 -19 -18 0 -26 -5 -26 -18 0 -13
-15 -23 -50 -36 -67 -24 -69 -51 -5 -68 25 -7 45 -17 45 -24 0 -7 17 -14 38
-17 146 -21 206 -35 217 -50 7 -11 33 -19 71 -23 65 -6 114 -22 114 -35 0 -5
20 -9 45 -9 25 0 45 -4 45 -8 0 -13 94 -32 156 -32 64 0 84 14 84 59 0 17 5
31 10 31 6 0 10 11 10 25 0 14 4 25 9 25 5 0 11 15 14 33 22 129 41 212 48
215 5 2 9 23 9 47 0 28 5 47 14 52 9 5 19 40 26 97 7 50 19 96 26 104 9 8 14
35 14 67 0 30 5 57 10 60 17 11 11 33 -12 41 -16 5 -26 1 -36 -15 -8 -11 -25
-21 -38 -21 -23 0 -54 -23 -54 -41 0 -5 -10 -9 -22 -9 -13 0 -32 -7 -42 -15
-26 -19 -56 -19 -56 0 0 8 -7 15 -15 15 -8 0 -15 9 -15 20 0 11 -7 23 -15 26
-8 4 -15 15 -15 25 0 10 -4 19 -10 19 -5 0 -13 18 -16 40 -4 25 -13 41 -24 45
-10 3 -23 24 -30 51 -7 24 -17 47 -21 50 -5 3 -9 16 -9 30 0 13 -5 24 -11 24
-17 0 -38 32 -39 57 0 12 -8 24 -19 28 -17 5 -42 59 -58 122 -3 12 -13 25 -23
28 -9 3 -22 24 -29 46 -7 22 -18 42 -25 45 -7 3 -19 24 -26 47 -8 23 -23 51
-34 62 -12 11 -32 41 -44 68 -13 26 -30 47 -38 47 -8 0 -14 4 -14 9 0 5 -9 13
-20 16 -11 3 -20 12 -20 20 0 7 -20 21 -45 32 -25 10 -47 25 -50 34 -10 31
-189 47 -319 28z"/>
<path d="M8400 11240 l0 -2400 -1195 0 c-657 0 -1195 -3 -1195 -6 0 -10 2981
-3584 2990 -3584 9 0 2990 3574 2990 3584 0 3 -538 6 -1195 6 l-1195 0 0 2400
0 2400 -600 0 -600 0 0 -2400z"/>
<path d="M12620 11985 c-7 -8 -28 -15 -46 -15 -19 0 -34 -4 -34 -10 0 -5 -22
-10 -49 -10 -28 0 -53 -4 -56 -10 -3 -5 -15 -10 -25 -10 -10 0 -20 -5 -22 -10
-2 -6 -37 -16 -78 -21 -51 -7 -79 -16 -91 -30 -9 -10 -29 -19 -45 -19 -16 0
-51 -7 -78 -15 -27 -8 -68 -15 -92 -15 -31 0 -47 -5 -56 -19 -7 -10 -22 -20
-33 -22 -27 -6 -35 -59 -8 -59 10 0 32 -9 48 -20 17 -11 37 -20 46 -20 9 0 19
-8 21 -18 3 -10 23 -24 49 -32 65 -21 72 -36 36 -72 -13 -13 -32 -43 -42 -66
-10 -23 -22 -42 -26 -42 -4 0 -13 -21 -20 -46 -8 -26 -20 -49 -26 -51 -7 -3
-13 -13 -13 -24 0 -10 -11 -30 -25 -45 -14 -15 -25 -35 -25 -46 0 -10 -6 -21
-14 -24 -8 -3 -18 -19 -21 -35 -4 -16 -11 -29 -16 -29 -5 0 -9 -7 -9 -15 0 -8
-4 -15 -10 -15 -5 0 -10 -9 -10 -20 0 -11 -4 -20 -8 -20 -5 0 -20 -27 -33 -59
-13 -33 -30 -62 -39 -64 -8 -2 -21 -25 -28 -50 -8 -25 -20 -51 -28 -58 -8 -6
-14 -20 -14 -30 0 -11 -7 -19 -15 -19 -8 0 -15 -9 -15 -21 0 -20 -17 -60 -30
-69 -4 -3 -12 -51 -19 -108 -10 -82 -10 -123 0 -198 7 -51 16 -94 20 -94 5 0
14 -18 20 -40 7 -22 16 -40 21 -40 15 0 38 -27 38 -44 0 -9 6 -16 14 -16 8 0
17 -11 20 -25 4 -17 13 -25 27 -25 12 0 34 -13 49 -30 15 -16 35 -30 43 -30 9
0 19 -4 22 -10 3 -5 15 -10 25 -10 10 0 20 -6 22 -12 4 -10 152 -14 686 -16
l682 -3 0 330 0 331 -475 0 c-456 0 -475 1 -475 19 0 10 14 28 30 41 17 13 30
31 30 41 0 10 5 21 10 24 6 3 10 14 10 24 0 10 9 26 19 35 11 10 23 36 26 58
4 23 14 42 23 45 22 9 32 23 32 51 0 12 5 22 10 22 6 0 10 7 10 15 0 8 7 15
15 15 9 0 15 9 15 25 0 14 6 28 14 31 8 3 19 25 26 49 7 24 18 46 26 49 8 3
14 15 14 26 0 11 7 20 15 20 8 0 15 -8 15 -19 0 -14 10 -20 42 -24 23 -3 47
-13 54 -21 6 -9 19 -16 28 -16 9 0 16 -6 16 -14 0 -8 11 -17 25 -20 14 -4 25
-11 25 -16 0 -6 11 -10 25 -10 22 0 25 4 25 38 0 62 -12 112 -26 112 -12 0
-17 16 -28 100 -8 61 -27 130 -37 130 -5 0 -9 22 -9 49 0 29 -6 55 -14 64 -8
7 -17 40 -21 73 -4 32 -14 73 -21 89 -8 17 -20 64 -27 104 -9 56 -17 77 -32
85 -11 6 -24 17 -28 24 -11 17 -62 15 -77 -3z"/>
<path d="M14945 11902 c-11 -2 -30 -15 -41 -28 -12 -13 -28 -24 -36 -24 -9 0
-21 -7 -28 -15 -7 -8 -25 -15 -41 -15 -22 0 -29 -5 -29 -20 0 -15 -9 -22 -30
-27 -17 -3 -39 -16 -49 -29 -10 -13 -26 -24 -34 -24 -9 0 -19 -5 -22 -10 -3
-6 -26 -15 -51 -21 -31 -8 -44 -17 -44 -29 0 -19 -39 -40 -75 -40 -18 0 -25
-5 -25 -20 0 -11 -5 -20 -12 -20 -9 0 -9 -3 0 -12 7 -7 12 -22 12 -35 0 -13 7
-26 15 -29 8 -4 15 -12 15 -20 0 -8 7 -14 15 -14 10 0 15 -10 15 -28 0 -16 9
-37 19 -49 11 -11 27 -43 37 -72 11 -29 26 -54 36 -57 10 -3 18 -14 18 -25 0
-10 4 -19 8 -19 5 0 14 -18 21 -40 6 -22 16 -40 21 -40 6 0 10 -9 10 -20 0
-10 9 -24 20 -30 11 -6 20 -21 20 -34 0 -13 9 -33 20 -46 11 -13 20 -31 20
-42 0 -10 5 -18 10 -18 6 0 10 -7 10 -16 0 -9 9 -18 20 -21 13 -3 20 -14 20
-29 0 -13 4 -24 10 -24 5 0 14 -18 20 -40 6 -22 15 -40 20 -40 4 0 11 -14 15
-31 4 -17 13 -33 21 -36 8 -3 14 -14 14 -24 0 -18 -13 -19 -310 -19 l-310 0 0
138 c0 151 -5 182 -28 182 -18 0 -62 -46 -62 -66 0 -7 -8 -14 -17 -14 -10 0
-26 -14 -35 -30 -9 -17 -24 -30 -33 -30 -8 0 -15 -9 -15 -20 0 -11 -8 -24 -17
-27 -20 -8 -43 -28 -43 -38 0 -10 -34 -41 -52 -48 -10 -4 -18 -16 -18 -27 0
-11 -7 -20 -15 -20 -19 0 -55 -35 -74 -72 -8 -16 -20 -28 -27 -28 -6 0 -14 -9
-17 -20 -3 -11 -12 -20 -21 -20 -9 0 -16 -6 -16 -14 0 -8 -9 -18 -20 -21 -11
-3 -20 -14 -20 -24 0 -10 -11 -24 -25 -31 -13 -7 -27 -21 -31 -32 -3 -10 -10
-18 -15 -18 -16 0 -11 -90 6 -96 8 -4 15 -15 15 -25 0 -12 9 -21 25 -25 14 -3
25 -12 25 -20 0 -8 5 -14 10 -14 6 0 10 -6 10 -13 0 -8 11 -20 25 -27 13 -7
27 -21 31 -32 3 -10 10 -18 15 -18 15 0 39 -27 39 -44 0 -8 9 -18 20 -21 11
-3 20 -12 20 -20 0 -8 9 -17 20 -20 11 -3 20 -13 20 -21 0 -8 6 -14 13 -14 7
0 24 -18 37 -40 14 -22 35 -43 48 -46 12 -3 25 -16 28 -29 3 -12 19 -32 35
-44 16 -12 29 -28 29 -36 0 -8 7 -15 15 -15 8 0 24 -9 35 -20 11 -11 20 -27
20 -35 0 -9 9 -15 24 -15 30 0 36 27 36 176 l0 114 430 0 c238 0 430 4 430 9
0 5 40 12 89 15 57 5 103 14 127 27 21 10 46 19 55 19 10 0 21 9 24 20 3 11
12 20 18 20 7 0 19 9 27 20 8 11 20 20 27 20 7 0 13 7 13 15 0 8 6 15 14 15 8
0 21 18 30 39 8 22 24 42 34 45 13 4 23 27 36 74 28 110 10 422 -25 422 -5 0
-9 9 -9 19 0 10 -7 21 -15 25 -8 3 -15 12 -15 19 0 20 -30 77 -41 77 -5 0 -9
9 -9 20 0 11 -4 20 -10 20 -5 0 -15 19 -22 41 -6 23 -20 46 -30 53 -10 6 -18
21 -18 33 0 12 -8 28 -18 35 -10 7 -22 28 -25 46 -4 18 -16 42 -27 54 -11 12
-20 32 -20 44 0 12 -13 32 -30 45 -16 13 -30 32 -30 41 0 9 -4 20 -10 23 -5 3
-10 17 -10 30 0 13 -8 29 -18 34 -10 5 -24 28 -32 50 -7 23 -17 41 -22 41 -4
0 -8 7 -8 15 0 8 -4 15 -10 15 -5 0 -10 6 -10 14 0 7 -7 19 -15 26 -8 7 -15
23 -15 37 0 13 -6 26 -14 29 -8 3 -17 20 -20 39 -4 21 -13 35 -26 38 -12 3
-20 14 -20 26 0 12 -4 21 -10 21 -5 0 -10 8 -10 18 0 9 -9 31 -20 47 -11 17
-20 37 -20 45 0 18 -38 37 -65 32z"/>
<path d="M1203 4693 c3 -1579 3 -1589 24 -1673 117 -472 453 -802 930 -916 62
-15 385 -17 3603 -25 1944 -4 4849 -9 6455 -11 2819 -3 2923 -2 3005 16 420
92 762 393 894 788 64 190 60 57 63 1801 l4 1587 -601 0 -600 0 0 -1502 0
-1501 -2422 6 c-1333 4 -4163 10 -6290 14 l-3868 6 0 1499 0 1498 -600 0 -600
0 3 -1587z"/>
</g>
</svg>
