<svg width="218" height="171" viewBox="0 0 218 171" fill="none" xmlns="http://www.w3.org/2000/svg">
<path d="M7.55273 164.01C7.55273 164.846 7.41211 165.576 7.13086 166.201C6.84961 166.822 6.45117 167.297 5.93555 167.625C5.41992 167.953 4.81836 168.117 4.13086 168.117C3.45898 168.117 2.86328 167.953 2.34375 167.625C1.82422 167.293 1.41992 166.822 1.13086 166.213C0.845703 165.6 0.699219 164.891 0.691406 164.086V163.471C0.691406 162.65 0.833984 161.926 1.11914 161.297C1.4043 160.668 1.80664 160.188 2.32617 159.855C2.84961 159.52 3.44727 159.352 4.11914 159.352C4.80273 159.352 5.4043 159.518 5.92383 159.85C6.44727 160.178 6.84961 160.656 7.13086 161.285C7.41211 161.91 7.55273 162.639 7.55273 163.471V164.01ZM6.43359 163.459C6.43359 162.447 6.23047 161.672 5.82422 161.133C5.41797 160.59 4.84961 160.318 4.11914 160.318C3.4082 160.318 2.84766 160.59 2.4375 161.133C2.03125 161.672 1.82227 162.422 1.81055 163.383V164.01C1.81055 164.99 2.01562 165.762 2.42578 166.324C2.83984 166.883 3.4082 167.162 4.13086 167.162C4.85742 167.162 5.41992 166.898 5.81836 166.371C6.2168 165.84 6.42188 165.08 6.43359 164.092V163.459ZM8.7832 164.771C8.7832 164.15 8.9043 163.592 9.14648 163.096C9.39258 162.6 9.73242 162.217 10.166 161.947C10.6035 161.678 11.1016 161.543 11.6602 161.543C12.5234 161.543 13.2207 161.842 13.752 162.439C14.2871 163.037 14.5547 163.832 14.5547 164.824V164.9C14.5547 165.518 14.4355 166.072 14.1973 166.564C13.9629 167.053 13.625 167.434 13.1836 167.707C12.7461 167.98 12.2422 168.117 11.6719 168.117C10.8125 168.117 10.1152 167.818 9.58008 167.221C9.04883 166.623 8.7832 165.832 8.7832 164.848V164.771ZM9.87305 164.9C9.87305 165.604 10.0352 166.168 10.3594 166.594C10.6875 167.02 11.125 167.232 11.6719 167.232C12.2227 167.232 12.6602 167.018 12.9844 166.588C13.3086 166.154 13.4707 165.549 13.4707 164.771C13.4707 164.076 13.3047 163.514 12.9727 163.084C12.6445 162.65 12.207 162.434 11.6602 162.434C11.125 162.434 10.6934 162.646 10.3652 163.072C10.0371 163.498 9.87305 164.107 9.87305 164.9ZM15.627 164.771C15.627 164.15 15.748 163.592 15.9902 163.096C16.2363 162.6 16.5762 162.217 17.0098 161.947C17.4473 161.678 17.9453 161.543 18.5039 161.543C19.3672 161.543 20.0645 161.842 20.5957 162.439C21.1309 163.037 21.3984 163.832 21.3984 164.824V164.9C21.3984 165.518 21.2793 166.072 21.041 166.564C20.8066 167.053 20.4688 167.434 20.0273 167.707C19.5898 167.98 19.0859 168.117 18.5156 168.117C17.6562 168.117 16.959 167.818 16.4238 167.221C15.8926 166.623 15.627 165.832 15.627 164.848V164.771ZM16.7168 164.9C16.7168 165.604 16.8789 166.168 17.2031 166.594C17.5312 167.02 17.9688 167.232 18.5156 167.232C19.0664 167.232 19.5039 167.018 19.8281 166.588C20.1523 166.154 20.3145 165.549 20.3145 164.771C20.3145 164.076 20.1484 163.514 19.8164 163.084C19.4883 162.65 19.0508 162.434 18.5039 162.434C17.9688 162.434 17.5371 162.646 17.209 163.072C16.8809 163.498 16.7168 164.107 16.7168 164.9ZM22.4707 164.771C22.4707 164.15 22.5918 163.592 22.834 163.096C23.0801 162.6 23.4199 162.217 23.8535 161.947C24.291 161.678 24.7891 161.543 25.3477 161.543C26.2109 161.543 26.9082 161.842 27.4395 162.439C27.9746 163.037 28.2422 163.832 28.2422 164.824V164.9C28.2422 165.518 28.123 166.072 27.8848 166.564C27.6504 167.053 27.3125 167.434 26.8711 167.707C26.4336 167.98 25.9297 168.117 25.3594 168.117C24.5 168.117 23.8027 167.818 23.2676 167.221C22.7363 166.623 22.4707 165.832 22.4707 164.848V164.771ZM23.5605 164.9C23.5605 165.604 23.7227 166.168 24.0469 166.594C24.375 167.02 24.8125 167.232 25.3594 167.232C25.9102 167.232 26.3477 167.018 26.6719 166.588C26.9961 166.154 27.1582 165.549 27.1582 164.771C27.1582 164.076 26.9922 163.514 26.6602 163.084C26.332 162.65 25.8945 162.434 25.3477 162.434C24.8125 162.434 24.3809 162.646 24.0527 163.072C23.7246 163.498 23.5605 164.107 23.5605 164.9ZM29.3145 164.771C29.3145 164.15 29.4355 163.592 29.6777 163.096C29.9238 162.6 30.2637 162.217 30.6973 161.947C31.1348 161.678 31.6328 161.543 32.1914 161.543C33.0547 161.543 33.752 161.842 34.2832 162.439C34.8184 163.037 35.0859 163.832 35.0859 164.824V164.9C35.0859 165.518 34.9668 166.072 34.7285 166.564C34.4941 167.053 34.1562 167.434 33.7148 167.707C33.2773 167.98 32.7734 168.117 32.2031 168.117C31.3438 168.117 30.6465 167.818 30.1113 167.221C29.5801 166.623 29.3145 165.832 29.3145 164.848V164.771ZM30.4043 164.9C30.4043 165.604 30.5664 166.168 30.8906 166.594C31.2188 167.02 31.6562 167.232 32.2031 167.232C32.7539 167.232 33.1914 167.018 33.5156 166.588C33.8398 166.154 34.002 165.549 34.002 164.771C34.002 164.076 33.8359 163.514 33.5039 163.084C33.1758 162.65 32.7383 162.434 32.1914 162.434C31.6562 162.434 31.2246 162.646 30.8965 163.072C30.5684 163.498 30.4043 164.107 30.4043 164.9ZM36.1582 164.771C36.1582 164.15 36.2793 163.592 36.5215 163.096C36.7676 162.6 37.1074 162.217 37.541 161.947C37.9785 161.678 38.4766 161.543 39.0352 161.543C39.8984 161.543 40.5957 161.842 41.127 162.439C41.6621 163.037 41.9297 163.832 41.9297 164.824V164.9C41.9297 165.518 41.8105 166.072 41.5723 166.564C41.3379 167.053 41 167.434 40.5586 167.707C40.1211 167.98 39.6172 168.117 39.0469 168.117C38.1875 168.117 37.4902 167.818 36.9551 167.221C36.4238 166.623 36.1582 165.832 36.1582 164.848V164.771ZM37.248 164.9C37.248 165.604 37.4102 166.168 37.7344 166.594C38.0625 167.02 38.5 167.232 39.0469 167.232C39.5977 167.232 40.0352 167.018 40.3594 166.588C40.6836 166.154 40.8457 165.549 40.8457 164.771C40.8457 164.076 40.6797 163.514 40.3477 163.084C40.0195 162.65 39.582 162.434 39.0352 162.434C38.5 162.434 38.0684 162.646 37.7402 163.072C37.4121 163.498 37.248 164.107 37.248 164.9ZM48.6445 164.9C48.6445 165.865 48.4238 166.643 47.9824 167.232C47.541 167.822 46.9434 168.117 46.1895 168.117C45.4199 168.117 44.8145 167.873 44.373 167.385V170.438H43.2891V161.66H44.2793L44.332 162.363C44.7734 161.816 45.3867 161.543 46.1719 161.543C46.9336 161.543 47.5352 161.83 47.9766 162.404C48.4219 162.979 48.6445 163.777 48.6445 164.801V164.9ZM47.5605 164.777C47.5605 164.062 47.4082 163.498 47.1035 163.084C46.7988 162.67 46.3809 162.463 45.8496 162.463C45.1934 162.463 44.7012 162.754 44.373 163.336V166.365C44.6973 166.943 45.1934 167.232 45.8613 167.232C46.3809 167.232 46.793 167.027 47.0977 166.617C47.4062 166.203 47.5605 165.59 47.5605 164.777ZM53.7188 166.318C53.7188 166.025 53.6074 165.799 53.3848 165.639C53.166 165.475 52.7812 165.334 52.2305 165.217C51.6836 165.1 51.248 164.959 50.9238 164.795C50.6035 164.631 50.3652 164.436 50.209 164.209C50.0566 163.982 49.9805 163.713 49.9805 163.4C49.9805 162.881 50.1992 162.441 50.6367 162.082C51.0781 161.723 51.6406 161.543 52.3242 161.543C53.043 161.543 53.625 161.729 54.0703 162.1C54.5195 162.471 54.7441 162.945 54.7441 163.523H53.6543C53.6543 163.227 53.5273 162.971 53.2734 162.756C53.0234 162.541 52.707 162.434 52.3242 162.434C51.9297 162.434 51.6211 162.52 51.3984 162.691C51.1758 162.863 51.0645 163.088 51.0645 163.365C51.0645 163.627 51.168 163.824 51.375 163.957C51.582 164.09 51.9551 164.217 52.4941 164.338C53.0371 164.459 53.4766 164.604 53.8125 164.771C54.1484 164.939 54.3965 165.143 54.5566 165.381C54.7207 165.615 54.8027 165.902 54.8027 166.242C54.8027 166.809 54.5762 167.264 54.123 167.607C53.6699 167.947 53.082 168.117 52.3594 168.117C51.8516 168.117 51.4023 168.027 51.0117 167.848C50.6211 167.668 50.3145 167.418 50.0918 167.098C49.873 166.773 49.7637 166.424 49.7637 166.049H50.8477C50.8672 166.412 51.0117 166.701 51.2812 166.916C51.5547 167.127 51.9141 167.232 52.3594 167.232C52.7695 167.232 53.0977 167.15 53.3438 166.986C53.5938 166.818 53.7188 166.596 53.7188 166.318ZM59.2148 167.432C59.2148 167.244 59.2695 167.088 59.3789 166.963C59.4922 166.838 59.6602 166.775 59.8828 166.775C60.1055 166.775 60.2734 166.838 60.3867 166.963C60.5039 167.088 60.5625 167.244 60.5625 167.432C60.5625 167.611 60.5039 167.762 60.3867 167.883C60.2734 168.004 60.1055 168.064 59.8828 168.064C59.6602 168.064 59.4922 168.004 59.3789 167.883C59.2695 167.762 59.2148 167.611 59.2148 167.432ZM62.3789 167.432C62.3789 167.244 62.4336 167.088 62.543 166.963C62.6562 166.838 62.8242 166.775 63.0469 166.775C63.2695 166.775 63.4375 166.838 63.5508 166.963C63.668 167.088 63.7266 167.244 63.7266 167.432C63.7266 167.611 63.668 167.762 63.5508 167.883C63.4375 168.004 63.2695 168.064 63.0469 168.064C62.8242 168.064 62.6562 168.004 62.543 167.883C62.4336 167.762 62.3789 167.611 62.3789 167.432ZM65.543 167.432C65.543 167.244 65.5977 167.088 65.707 166.963C65.8203 166.838 65.9883 166.775 66.2109 166.775C66.4336 166.775 66.6016 166.838 66.7148 166.963C66.832 167.088 66.8906 167.244 66.8906 167.432C66.8906 167.611 66.832 167.762 66.7148 167.883C66.6016 168.004 66.4336 168.064 66.2109 168.064C65.9883 168.064 65.8203 168.004 65.707 167.883C65.5977 167.762 65.543 167.611 65.543 167.432ZM78.3867 168H77.2559L72.9609 161.426V168H71.8301V159.469H72.9609L77.2676 166.072V159.469H78.3867V168ZM79.9277 164.771C79.9277 164.15 80.0488 163.592 80.291 163.096C80.5371 162.6 80.877 162.217 81.3105 161.947C81.748 161.678 82.2461 161.543 82.8047 161.543C83.668 161.543 84.3652 161.842 84.8965 162.439C85.4316 163.037 85.6992 163.832 85.6992 164.824V164.9C85.6992 165.518 85.5801 166.072 85.3418 166.564C85.1074 167.053 84.7695 167.434 84.3281 167.707C83.8906 167.98 83.3867 168.117 82.8164 168.117C81.957 168.117 81.2598 167.818 80.7246 167.221C80.1934 166.623 79.9277 165.832 79.9277 164.848V164.771ZM81.0176 164.9C81.0176 165.604 81.1797 166.168 81.5039 166.594C81.832 167.02 82.2695 167.232 82.8164 167.232C83.3672 167.232 83.8047 167.018 84.1289 166.588C84.4531 166.154 84.6152 165.549 84.6152 164.771C84.6152 164.076 84.4492 163.514 84.1172 163.084C83.7891 162.65 83.3516 162.434 82.8047 162.434C82.2695 162.434 81.8379 162.646 81.5098 163.072C81.1816 163.498 81.0176 164.107 81.0176 164.9ZM91.4121 168H90.2871V159.469H91.4121V168ZM94.3242 161.66L94.3535 162.363C94.8184 161.816 95.4453 161.543 96.2344 161.543C97.1211 161.543 97.7246 161.883 98.0449 162.562C98.2559 162.258 98.5293 162.012 98.8652 161.824C99.2051 161.637 99.6055 161.543 100.066 161.543C101.457 161.543 102.164 162.279 102.188 163.752V168H101.104V163.816C101.104 163.363 101 163.025 100.793 162.803C100.586 162.576 100.238 162.463 99.75 162.463C99.3477 162.463 99.0137 162.584 98.748 162.826C98.4824 163.064 98.3281 163.387 98.2852 163.793V168H97.1953V163.846C97.1953 162.924 96.7441 162.463 95.8418 162.463C95.1309 162.463 94.6445 162.766 94.3828 163.371V168H93.2988V161.66H94.3242ZM107.742 168C107.68 167.875 107.629 167.652 107.59 167.332C107.086 167.855 106.484 168.117 105.785 168.117C105.16 168.117 104.646 167.941 104.244 167.59C103.846 167.234 103.646 166.785 103.646 166.242C103.646 165.582 103.896 165.07 104.396 164.707C104.9 164.34 105.607 164.156 106.518 164.156H107.572V163.658C107.572 163.279 107.459 162.979 107.232 162.756C107.006 162.529 106.672 162.416 106.23 162.416C105.844 162.416 105.52 162.514 105.258 162.709C104.996 162.904 104.865 163.141 104.865 163.418H103.775C103.775 163.102 103.887 162.797 104.109 162.504C104.336 162.207 104.641 161.973 105.023 161.801C105.41 161.629 105.834 161.543 106.295 161.543C107.025 161.543 107.598 161.727 108.012 162.094C108.426 162.457 108.641 162.959 108.656 163.6V166.518C108.656 167.1 108.73 167.562 108.879 167.906V168H107.742ZM105.943 167.174C106.283 167.174 106.605 167.086 106.91 166.91C107.215 166.734 107.436 166.506 107.572 166.225V164.924H106.723C105.395 164.924 104.73 165.312 104.73 166.09C104.73 166.43 104.844 166.695 105.07 166.887C105.297 167.078 105.588 167.174 105.943 167.174ZM110.098 164.777C110.098 163.789 110.326 163.004 110.783 162.422C111.24 161.836 111.846 161.543 112.6 161.543C113.373 161.543 113.977 161.816 114.41 162.363L114.463 161.66H115.453V167.848C115.453 168.668 115.209 169.314 114.721 169.787C114.236 170.26 113.584 170.496 112.764 170.496C112.307 170.496 111.859 170.398 111.422 170.203C110.984 170.008 110.65 169.74 110.42 169.4L110.982 168.75C111.447 169.324 112.016 169.611 112.688 169.611C113.215 169.611 113.625 169.463 113.918 169.166C114.215 168.869 114.363 168.451 114.363 167.912V167.367C113.93 167.867 113.338 168.117 112.588 168.117C111.846 168.117 111.244 167.818 110.783 167.221C110.326 166.623 110.098 165.809 110.098 164.777ZM111.188 164.9C111.188 165.615 111.334 166.178 111.627 166.588C111.92 166.994 112.33 167.197 112.857 167.197C113.541 167.197 114.043 166.887 114.363 166.266V163.371C114.031 162.766 113.533 162.463 112.869 162.463C112.342 162.463 111.93 162.668 111.633 163.078C111.336 163.488 111.188 164.096 111.188 164.9ZM119.725 168.117C118.865 168.117 118.166 167.836 117.627 167.273C117.088 166.707 116.818 165.951 116.818 165.006V164.807C116.818 164.178 116.938 163.617 117.176 163.125C117.418 162.629 117.754 162.242 118.184 161.965C118.617 161.684 119.086 161.543 119.59 161.543C120.414 161.543 121.055 161.814 121.512 162.357C121.969 162.9 122.197 163.678 122.197 164.689V165.141H117.902C117.918 165.766 118.1 166.271 118.447 166.658C118.799 167.041 119.244 167.232 119.783 167.232C120.166 167.232 120.49 167.154 120.756 166.998C121.021 166.842 121.254 166.635 121.453 166.377L122.115 166.893C121.584 167.709 120.787 168.117 119.725 168.117ZM119.59 162.434C119.152 162.434 118.785 162.594 118.488 162.914C118.191 163.23 118.008 163.676 117.938 164.25H121.113V164.168C121.082 163.617 120.934 163.191 120.668 162.891C120.402 162.586 120.043 162.434 119.59 162.434ZM127.518 162.428C127.998 161.838 128.623 161.543 129.393 161.543C130.732 161.543 131.408 162.299 131.42 163.811V168H130.336V163.805C130.332 163.348 130.227 163.01 130.02 162.791C129.816 162.572 129.498 162.463 129.064 162.463C128.713 162.463 128.404 162.557 128.139 162.744C127.873 162.932 127.666 163.178 127.518 163.482V168H126.434V159H127.518V162.428ZM136.957 168C136.895 167.875 136.844 167.652 136.805 167.332C136.301 167.855 135.699 168.117 135 168.117C134.375 168.117 133.861 167.941 133.459 167.59C133.061 167.234 132.861 166.785 132.861 166.242C132.861 165.582 133.111 165.07 133.611 164.707C134.115 164.34 134.822 164.156 135.732 164.156H136.787V163.658C136.787 163.279 136.674 162.979 136.447 162.756C136.221 162.529 135.887 162.416 135.445 162.416C135.059 162.416 134.734 162.514 134.473 162.709C134.211 162.904 134.08 163.141 134.08 163.418H132.99C132.99 163.102 133.102 162.797 133.324 162.504C133.551 162.207 133.855 161.973 134.238 161.801C134.625 161.629 135.049 161.543 135.51 161.543C136.24 161.543 136.812 161.727 137.227 162.094C137.641 162.457 137.855 162.959 137.871 163.6V166.518C137.871 167.1 137.945 167.562 138.094 167.906V168H136.957ZM135.158 167.174C135.498 167.174 135.82 167.086 136.125 166.91C136.43 166.734 136.65 166.506 136.787 166.225V164.924H135.938C134.609 164.924 133.945 165.312 133.945 166.09C133.945 166.43 134.059 166.695 134.285 166.887C134.512 167.078 134.803 167.174 135.158 167.174ZM143.262 166.318C143.262 166.025 143.15 165.799 142.928 165.639C142.709 165.475 142.324 165.334 141.773 165.217C141.227 165.1 140.791 164.959 140.467 164.795C140.146 164.631 139.908 164.436 139.752 164.209C139.6 163.982 139.523 163.713 139.523 163.4C139.523 162.881 139.742 162.441 140.18 162.082C140.621 161.723 141.184 161.543 141.867 161.543C142.586 161.543 143.168 161.729 143.613 162.1C144.062 162.471 144.287 162.945 144.287 163.523H143.197C143.197 163.227 143.07 162.971 142.816 162.756C142.566 162.541 142.25 162.434 141.867 162.434C141.473 162.434 141.164 162.52 140.941 162.691C140.719 162.863 140.607 163.088 140.607 163.365C140.607 163.627 140.711 163.824 140.918 163.957C141.125 164.09 141.498 164.217 142.037 164.338C142.58 164.459 143.02 164.604 143.355 164.771C143.691 164.939 143.939 165.143 144.1 165.381C144.264 165.615 144.346 165.902 144.346 166.242C144.346 166.809 144.119 167.264 143.666 167.607C143.213 167.947 142.625 168.117 141.902 168.117C141.395 168.117 140.945 168.027 140.555 167.848C140.164 167.668 139.857 167.418 139.635 167.098C139.416 166.773 139.307 166.424 139.307 166.049H140.391C140.41 166.412 140.555 166.701 140.824 166.916C141.098 167.127 141.457 167.232 141.902 167.232C142.312 167.232 142.641 167.15 142.887 166.986C143.137 166.818 143.262 166.596 143.262 166.318ZM154.102 164.9C154.102 165.869 153.879 166.648 153.434 167.238C152.988 167.824 152.391 168.117 151.641 168.117C150.84 168.117 150.221 167.834 149.783 167.268L149.73 168H148.734V159H149.818V162.357C150.256 161.814 150.859 161.543 151.629 161.543C152.398 161.543 153.002 161.834 153.439 162.416C153.881 162.998 154.102 163.795 154.102 164.807V164.9ZM153.018 164.777C153.018 164.039 152.875 163.469 152.59 163.066C152.305 162.664 151.895 162.463 151.359 162.463C150.645 162.463 150.131 162.795 149.818 163.459V166.201C150.15 166.865 150.668 167.197 151.371 167.197C151.891 167.197 152.295 166.996 152.584 166.594C152.873 166.191 153.018 165.586 153.018 164.777ZM158.104 168.117C157.244 168.117 156.545 167.836 156.006 167.273C155.467 166.707 155.197 165.951 155.197 165.006V164.807C155.197 164.178 155.316 163.617 155.555 163.125C155.797 162.629 156.133 162.242 156.562 161.965C156.996 161.684 157.465 161.543 157.969 161.543C158.793 161.543 159.434 161.814 159.891 162.357C160.348 162.9 160.576 163.678 160.576 164.689V165.141H156.281C156.297 165.766 156.479 166.271 156.826 166.658C157.178 167.041 157.623 167.232 158.162 167.232C158.545 167.232 158.869 167.154 159.135 166.998C159.4 166.842 159.633 166.635 159.832 166.377L160.494 166.893C159.963 167.709 159.166 168.117 158.104 168.117ZM157.969 162.434C157.531 162.434 157.164 162.594 156.867 162.914C156.57 163.23 156.387 163.676 156.316 164.25H159.492V164.168C159.461 163.617 159.312 163.191 159.047 162.891C158.781 162.586 158.422 162.434 157.969 162.434ZM164.467 168.117C163.607 168.117 162.908 167.836 162.369 167.273C161.83 166.707 161.561 165.951 161.561 165.006V164.807C161.561 164.178 161.68 163.617 161.918 163.125C162.16 162.629 162.496 162.242 162.926 161.965C163.359 161.684 163.828 161.543 164.332 161.543C165.156 161.543 165.797 161.814 166.254 162.357C166.711 162.9 166.939 163.678 166.939 164.689V165.141H162.645C162.66 165.766 162.842 166.271 163.189 166.658C163.541 167.041 163.986 167.232 164.525 167.232C164.908 167.232 165.232 167.154 165.498 166.998C165.764 166.842 165.996 166.635 166.195 166.377L166.857 166.893C166.326 167.709 165.529 168.117 164.467 168.117ZM164.332 162.434C163.895 162.434 163.527 162.594 163.23 162.914C162.934 163.23 162.75 163.676 162.68 164.25H165.855V164.168C165.824 163.617 165.676 163.191 165.41 162.891C165.145 162.586 164.785 162.434 164.332 162.434ZM169.225 161.66L169.26 162.457C169.744 161.848 170.377 161.543 171.158 161.543C172.498 161.543 173.174 162.299 173.186 163.811V168H172.102V163.805C172.098 163.348 171.992 163.01 171.785 162.791C171.582 162.572 171.264 162.463 170.83 162.463C170.479 162.463 170.17 162.557 169.904 162.744C169.639 162.932 169.432 163.178 169.283 163.482V168H168.199V161.66H169.225ZM178.33 168V162.498H177.328V161.66H178.33V161.01C178.33 160.33 178.512 159.805 178.875 159.434C179.238 159.062 179.752 158.877 180.416 158.877C180.666 158.877 180.914 158.91 181.16 158.977L181.102 159.855C180.918 159.82 180.723 159.803 180.516 159.803C180.164 159.803 179.893 159.906 179.701 160.113C179.51 160.316 179.414 160.609 179.414 160.992V161.66H180.768V162.498H179.414V168H178.33ZM181.682 164.771C181.682 164.15 181.803 163.592 182.045 163.096C182.291 162.6 182.631 162.217 183.064 161.947C183.502 161.678 184 161.543 184.559 161.543C185.422 161.543 186.119 161.842 186.65 162.439C187.186 163.037 187.453 163.832 187.453 164.824V164.9C187.453 165.518 187.334 166.072 187.096 166.564C186.861 167.053 186.523 167.434 186.082 167.707C185.645 167.98 185.141 168.117 184.57 168.117C183.711 168.117 183.014 167.818 182.479 167.221C181.947 166.623 181.682 165.832 181.682 164.848V164.771ZM182.771 164.9C182.771 165.604 182.934 166.168 183.258 166.594C183.586 167.02 184.023 167.232 184.57 167.232C185.121 167.232 185.559 167.018 185.883 166.588C186.207 166.154 186.369 165.549 186.369 164.771C186.369 164.076 186.203 163.514 185.871 163.084C185.543 162.65 185.105 162.434 184.559 162.434C184.023 162.434 183.592 162.646 183.264 163.072C182.936 163.498 182.771 164.107 182.771 164.9ZM192.727 167.373C192.305 167.869 191.686 168.117 190.869 168.117C190.193 168.117 189.678 167.922 189.322 167.531C188.971 167.137 188.793 166.555 188.789 165.785V161.66H189.873V165.756C189.873 166.717 190.264 167.197 191.045 167.197C191.873 167.197 192.424 166.889 192.697 166.271V161.66H193.781V168H192.75L192.727 167.373ZM196.459 161.66L196.494 162.457C196.979 161.848 197.611 161.543 198.393 161.543C199.732 161.543 200.408 162.299 200.42 163.811V168H199.336V163.805C199.332 163.348 199.227 163.01 199.02 162.791C198.816 162.572 198.498 162.463 198.064 162.463C197.713 162.463 197.404 162.557 197.139 162.744C196.873 162.932 196.666 163.178 196.518 163.482V168H195.434V161.66H196.459ZM201.791 164.777C201.791 163.805 202.021 163.023 202.482 162.434C202.943 161.84 203.547 161.543 204.293 161.543C205.035 161.543 205.623 161.797 206.057 162.305V159H207.141V168H206.145L206.092 167.32C205.658 167.852 205.055 168.117 204.281 168.117C203.547 168.117 202.947 167.816 202.482 167.215C202.021 166.613 201.791 165.828 201.791 164.859V164.777ZM202.875 164.9C202.875 165.619 203.023 166.182 203.32 166.588C203.617 166.994 204.027 167.197 204.551 167.197C205.238 167.197 205.74 166.889 206.057 166.271V163.359C205.732 162.762 205.234 162.463 204.562 162.463C204.031 162.463 203.617 162.668 203.32 163.078C203.023 163.488 202.875 164.096 202.875 164.9ZM213.018 165.592H212.039L211.963 159.469H213.1L213.018 165.592ZM211.922 167.455C211.922 167.279 211.975 167.133 212.08 167.016C212.189 166.895 212.35 166.834 212.561 166.834C212.771 166.834 212.932 166.895 213.041 167.016C213.15 167.133 213.205 167.279 213.205 167.455C213.205 167.631 213.15 167.777 213.041 167.895C212.932 168.008 212.771 168.064 212.561 168.064C212.35 168.064 212.189 168.008 212.08 167.895C211.975 167.777 211.922 167.631 211.922 167.455ZM216.111 165.592H215.133L215.057 159.469H216.193L216.111 165.592ZM215.016 167.455C215.016 167.279 215.068 167.133 215.174 167.016C215.283 166.895 215.443 166.834 215.654 166.834C215.865 166.834 216.025 166.895 216.135 167.016C216.244 167.133 216.299 167.279 216.299 167.455C216.299 167.631 216.244 167.777 216.135 167.895C216.025 168.008 215.865 168.064 215.654 168.064C215.443 168.064 215.283 168.008 215.174 167.895C215.068 167.777 215.016 167.631 215.016 167.455Z" fill="#646C76"/>
<path d="M121 118.8H89M121 118.8L140.5 117.5L124.5 150.5L103 151H85L63.5 118.8H89M121 118.8C121 118.8 116.5 86.9858 123.5 81.6191C130.5 76.2524 139.5 79.3191 147.5 73.5691C155.5 67.819 155.5 42.518 152.5 36.3827C149.5 30.2473 140.5 29.4807 137 37.5327C133.5 45.5847 141.5 69.3527 121 70.1193C100.5 70.886 127.5 56.7037 123.5 27.569C119.5 -1.5657 84 2.27 78.5 26.4195C73 50.5689 98 72.0356 85 72.0356C72 72.0356 70.5 44.818 67 37.5327C63.5 30.2473 56 30.6353 56 41.3687C56 52.1021 56 55.1669 63.5 67.0522C71 78.9375 84 79.7007 89 83.9182C94 88.1358 89 118.8 89 118.8M88 47.1192C87.1104 39.8316 92.4364 36.7118 99.5 36.3827C106.948 36.0356 113.41 39.5366 112.5 47.1192C103.687 42.7471 98.5933 41.1738 88 47.1192Z" stroke="#646C76"/>
<ellipse cx="91" cy="27" rx="4" ry="5" fill="#646C76"/>
<ellipse cx="108" cy="27" rx="4" ry="5" fill="#646C76"/>
<path d="M104.5 7L106.5 0.5M88.5 11.5L85 5M115.5 11.5L118 8" stroke="#646C76"/>
<path d="M77.5 31.5L72 28M120 52H126M139 34.5L135.5 28M145 31.5V24.5M150 33.5L154.5 29.5M58.5 33.5L54.5 28M61.5 32.5V29.5M66 34.5L69 31.5M56 42.5L51.5 40M56 52H51.5M59.5 60.5L54.5 62.5M68 42.5L72 40M136 45L132.5 42M128 68L126 65M75.5 64.5L77.5 62.7434M87.5 71.5L85.5 69M91 95L88 92.5M121 86.5H124.5M133 78L135 81M120 106L123 104M78 79L74 80.5" stroke="#646C76"/>
<path d="M68 72.5L65 75M154.5 50.5H157M154 43L159 42M134.5 59L133 57M152 66.5L157.5 66M154 58L160.5 57M147 74L150.5 78.5M119.5 97.5H121.5M90 112.5L87 108M86.5 82L83 83.5" stroke="#646C76"/>
</svg>
