<svg width="1039" height="1332" viewBox="0 0 1039 1332" fill="none" xmlns="http://www.w3.org/2000/svg">
<path d="M471.771 562.999L261.045 638.962C244.048 957.427 190.681 1102.01 39.2453 1315.25C149.952 1231.82 164.999 1249.5 261.045 1114.5C277.999 1184.5 301.499 1236 290.999 1329C442.277 1115.42 454.956 882.083 471.771 562.999Z" fill="#00AEEF"/>
<path d="M567.583 562.999L778.309 638.962C795.307 957.427 848.673 1102.01 1000.11 1315.25C889.402 1231.82 874.355 1249.5 778.309 1114.5C761.355 1184.5 737.855 1236 748.355 1329C597.077 1115.42 584.398 882.083 567.583 562.999Z" fill="#00AEEF"/>
<path d="M471.771 562.999L261.045 638.962C244.048 957.427 190.681 1102.01 39.2453 1315.25C149.952 1231.82 164.999 1249.5 261.045 1114.5C277.999 1184.5 301.499 1236 290.999 1329C442.277 1115.42 454.956 882.083 471.771 562.999Z" stroke="white" stroke-width="10"/>
<path d="M567.583 562.999L778.309 638.962C795.307 957.427 848.673 1102.01 1000.11 1315.25C889.402 1231.82 874.355 1249.5 778.309 1114.5C761.355 1184.5 737.855 1236 748.355 1329C597.077 1115.42 584.398 882.083 567.583 562.999Z" stroke="white" stroke-width="10"/>
<path d="M599.191 78.9352L601.47 80.9991L604.34 79.8976L704.728 41.3706L752.96 137.473L754.339 140.221L757.413 140.231L864.94 140.57L875.198 247.606L875.492 250.666L878.355 251.786L978.498 290.945L949.398 394.46L948.566 397.419L950.831 399.497L1030.07 472.188L965.537 558.2L963.692 560.659L965.054 563.416L1012.68 659.821L921.437 716.714L918.828 718.341L919.102 721.403L928.686 828.502L823.052 848.593L820.032 849.167L819.182 852.122L789.43 955.451L683.672 936.026L680.648 935.471L678.788 937.918L613.718 1023.52L522.119 967.204L519.5 965.594L516.881 967.204L425.282 1023.52L360.212 937.918L358.351 935.471L355.328 936.026L249.57 955.451L219.818 852.122L218.967 849.167L215.947 848.593L110.314 828.502L119.897 721.403L120.171 718.341L117.563 716.714L26.3204 659.821L73.9457 563.416L75.3073 560.659L73.4624 558.2L8.93369 472.188L88.1685 399.497L90.4337 397.419L89.6018 394.46L60.5017 290.945L160.645 251.786L163.508 250.666L163.801 247.606L174.06 140.57L281.587 140.231L284.661 140.221L286.04 137.473L334.272 41.3706L434.66 79.8976L437.53 80.9991L439.808 78.9352L519.5 6.74548L599.191 78.9352Z" fill="#00AEEF" stroke="white" stroke-width="10"/>
<path d="M588.101 140.436L590.379 142.5L593.249 141.399L679.037 108.475L720.255 190.601L721.634 193.349L724.708 193.358L816.596 193.648L825.363 285.118L825.656 288.178L828.519 289.297L914.098 322.761L889.23 411.221L888.398 414.181L890.663 416.259L958.375 478.378L903.231 551.881L901.386 554.34L902.747 557.096L943.446 639.48L865.474 688.1L862.865 689.726L863.139 692.788L871.329 784.311L781.059 801.48L778.039 802.055L777.188 805.009L751.763 893.31L661.386 876.711L658.362 876.155L656.502 878.603L600.896 951.756L522.618 903.63L519.999 902.02L517.381 903.63L439.103 951.756L383.497 878.603L381.636 876.155L378.613 876.711L288.236 893.31L262.811 805.009L261.96 802.055L258.94 801.48L168.669 784.311L176.859 692.788L177.133 689.726L174.525 688.1L96.5522 639.48L137.251 557.096L138.613 554.34L136.768 551.881L81.6239 478.378L149.335 416.259L151.6 414.181L150.768 411.221L125.901 322.761L211.479 289.297L214.342 288.178L214.636 285.118L223.402 193.648L315.291 193.358L318.365 193.349L319.744 190.601L360.961 108.475L446.749 141.399L449.619 142.5L451.898 140.436L519.999 78.7457L588.101 140.436Z" fill="#00AEEF" stroke="white" stroke-width="10"/>
<path d="M509.905 518.445C506.771 497.126 533.995 495.872 531.488 518.445C575.095 437.507 602.594 406.304 654.222 364.537C699.558 337.553 719.675 332.468 750.389 333.191C795.976 334.148 804.092 348.237 801.595 364.537C799.097 380.838 761.629 425.35 763.503 475.505C762.824 530.047 752.481 548.956 707.301 551.364C728.771 563.531 733.343 578.261 736.651 609.669C734.113 683.277 715.419 754.491 656.72 756.999C608.597 752.914 558.883 706.127 521.416 598.921C483.811 706.143 433.022 751.476 384.721 755.562C325.806 753.054 308.13 682.599 305.582 608.98C308.903 577.567 312.812 563.666 334.36 551.498C289.014 549.089 278.925 529.883 278.244 475.333C280.124 425.17 241.901 380.981 239.394 364.678C236.887 348.375 245.439 334.02 291.194 333.062C322.02 332.339 342.212 337.49 387.714 364.478C439.532 406.251 466.137 437.495 509.905 518.445Z" fill="white"/>
</svg>
