<svg width="562" height="552" viewBox="0 0 562 552" fill="none" xmlns="http://www.w3.org/2000/svg">
<path d="M282.843 27.4894C284.938 21.0402 294.062 21.0402 296.157 27.4894L349.108 190.456C350.046 193.34 352.733 195.293 355.766 195.293H527.119C533.9 195.293 536.72 203.97 531.234 207.956L392.606 308.675C390.153 310.457 389.126 313.617 390.063 316.501L443.014 479.468C445.11 485.917 437.728 491.28 432.242 487.294L293.614 386.575C291.161 384.793 287.839 384.793 285.386 386.575L146.758 487.294C141.272 491.28 133.89 485.917 135.986 479.468L188.937 316.501C189.874 313.617 188.847 310.457 186.394 308.675L47.7664 207.956C42.2804 203.97 45.0998 195.293 51.8809 195.293H223.234C226.267 195.293 228.954 193.34 229.892 190.456L282.843 27.4894Z" fill="#FFB800"/>
<path d="M265.843 20.4894C267.938 14.0402 277.062 14.0402 279.157 20.4894L332.108 183.456C333.046 186.34 335.733 188.293 338.766 188.293H510.119C516.9 188.293 519.72 196.97 514.234 200.956L375.606 301.675C373.153 303.457 372.126 306.617 373.063 309.501L426.014 472.468C428.11 478.917 420.728 484.28 415.242 480.294L276.614 379.575C274.161 377.793 270.839 377.793 268.386 379.575L129.758 480.294C124.272 484.28 116.89 478.917 118.986 472.468L171.937 309.501C172.874 306.617 171.847 303.457 169.394 301.675L30.7664 200.956C25.2804 196.97 28.0998 188.293 34.8809 188.293H206.234C209.267 188.293 211.954 186.34 212.892 183.456L265.843 20.4894Z" fill="#FFE600"/>
</svg>
