<svg id="Capa_1" enable-background="new 0 0 511.997 511.997" height="512" viewBox="0 0 511.997 511.997" width="512" xmlns="http://www.w3.org/2000/svg"><g><path d="m487.064 248.437c0 87.123-71.838 158.56-160.11 158.56-86.65 0-158.02-70.02-158.02-158.56 0-36.16 25.07-88.43 74.5-155.37 35.88-48.56 71.16-86.68 72.65-88.28 5.905-6.366 15.985-6.377 21.91-.07 47.884 50.9 149.07 173.058 149.07 243.72z" fill="#7fa6fb"/><path d="m487.064 248.437c0 85.118-69.313 157.72-159.13 158.56v-406.97c3.83.22 7.43 1.89 10.06 4.69 47.884 50.9 149.07 173.058 149.07 243.72z" fill="#6693fb"/><path d="m390.934 327.997c0 101.46-82.09 184-183 184s-183-82.54-183-184c0-41.78 29.26-102.26 86.97-179.75 42.02-56.44 83.35-100.65 85.09-102.51 5.92-6.317 15.961-6.317 21.88 0 1.74 1.86 43.07 46.07 85.09 102.51 57.71 77.49 86.97 137.97 86.97 179.75z" fill="#eef4ff"/><path d="m390.934 327.997c0 101.46-82.09 184-183 184v-471c4.15 0 8.11 1.72 10.94 4.74 1.74 1.86 43.07 46.07 85.09 102.51 57.71 77.49 86.97 137.97 86.97 179.75z" fill="#d9e6fc"/><path d="m167.934 294.997c-8.218 0-15-6.712-15-15 0-8.605 7.372-15.765 16.48-14.93 8.364.872 14.281 8.314 13.45 16.41-.811 7.815-7.344 13.52-14.93 13.52z" fill="#7fa6fb"/><path d="m247.934 374.997c-8.218 0-15-6.712-15-15 0-8.944 7.823-15.812 16.48-14.93 8.263.862 14.282 8.226 13.45 16.41-.804 7.747-7.283 13.52-14.93 13.52z" fill="#6693fb"/><path d="m266.544 282.607-96 96c-2.93 2.93-6.77 4.39-10.61 4.39-13.24 0-20.08-16.13-10.61-25.61 16.049-16.049 85.703-85.703 96-96 5.86-5.85 15.36-5.85 21.22 0 5.85 5.86 5.85 15.36 0 21.22z" fill="#7fa6fb"/><path d="m266.544 282.607-58.61 58.61v-42.44l37.39-37.39c5.86-5.85 15.36-5.85 21.22 0 5.85 5.86 5.85 15.36 0 21.22z" fill="#6693fb"/></g></svg>