<svg width="102" height="100" viewBox="0 0 102 100" fill="none" xmlns="http://www.w3.org/2000/svg">
<path d="M48.1958 11.7082C49.3932 8.02295 54.6068 8.02296 55.8042 11.7082L62.3276 31.7852C62.8631 33.4333 64.399 34.5491 66.1319 34.5491H87.2421C91.117 34.5491 92.7281 39.5076 89.5932 41.7852L72.5147 54.1935C71.1128 55.2121 70.5261 57.0175 71.0616 58.6656L77.585 78.7427C78.7825 82.4279 74.5645 85.4924 71.4297 83.2148L54.3511 70.8065C52.9492 69.7879 51.0508 69.7879 49.6489 70.8065L32.5703 83.2148C29.4355 85.4924 25.2176 82.4279 26.415 78.7426L32.9384 58.6656C33.4739 57.0175 32.8872 55.2121 31.4853 54.1935L14.4068 41.7852C11.2719 39.5076 12.883 34.5491 16.7579 34.5491H37.8681C39.601 34.5491 41.1369 33.4333 41.6724 31.7852L48.1958 11.7082Z" fill="#FFB800"/>
<path d="M46.1958 11.7082C47.3932 8.02295 52.6068 8.02296 53.8042 11.7082L60.3276 31.7852C60.8631 33.4333 62.399 34.5491 64.1319 34.5491H85.2421C89.117 34.5491 90.7281 39.5076 87.5932 41.7852L70.5147 54.1935C69.1128 55.2121 68.5261 57.0175 69.0616 58.6656L75.585 78.7427C76.7825 82.4279 72.5645 85.4924 69.4297 83.2148L52.3511 70.8065C50.9492 69.7879 49.0508 69.7879 47.6489 70.8065L30.5703 83.2148C27.4355 85.4924 23.2176 82.4279 24.415 78.7426L30.9384 58.6656C31.4739 57.0175 30.8872 55.2121 29.4853 54.1935L12.4068 41.7852C9.27191 39.5076 10.883 34.5491 14.7579 34.5491H35.8681C37.601 34.5491 39.1369 33.4333 39.6724 31.7852L46.1958 11.7082Z" fill="#FFE600"/>
</svg>
