<svg width="100" height="100" viewBox="0 0 100 100" fill="none" xmlns="http://www.w3.org/2000/svg">
<path d="M46.1958 11.7082C47.3932 8.02295 52.6068 8.02296 53.8042 11.7082L60.3276 31.7852C60.8631 33.4333 62.399 34.5491 64.1319 34.5491H85.2421C89.117 34.5491 90.7281 39.5076 87.5932 41.7852L70.5147 54.1935C69.1128 55.2121 68.5261 57.0175 69.0616 58.6656L75.585 78.7427C76.7825 82.4279 72.5645 85.4924 69.4297 83.2148L52.3511 70.8065C50.9492 69.7879 49.0508 69.7879 47.6489 70.8065L30.5703 83.2148C27.4355 85.4924 23.2176 82.4279 24.415 78.7426L30.9384 58.6656C31.4739 57.0175 30.8872 55.2121 29.4853 54.1935L12.4068 41.7852C9.27191 39.5076 10.883 34.5491 14.7579 34.5491H35.8681C37.601 34.5491 39.1369 33.4333 39.6724 31.7852L46.1958 11.7082Z" fill="#D9D9D9"/>
<path d="M31.9384 58.6656L25.415 78.7426C24.2176 82.4279 28.4355 85.4924 31.5703 83.2148L36.3054 79.7746L49.5 70.1881C50.2461 69.6461 51 68.789 51 67.8668V13C51 10.7909 48.8473 9.00129 47.6427 10.8531C47.4238 11.1896 47.2401 11.5719 47.101 12L40.6724 31.7852C40.1369 33.4333 38.5981 34.5491 36.8652 34.5491H15.7594C11.8846 34.5491 10.2732 39.5085 13.408 41.7861L30.4829 54.1918C31.8849 55.2103 32.4739 57.0175 31.9384 58.6656Z" fill="#FFB800"/>
<path d="M30.4912 58.6656L23.9678 78.7426C22.7704 82.4279 26.9883 85.4924 30.1232 83.2148L34.8582 79.7746L48.0528 70.1881C48.7989 69.6461 49.5528 68.789 49.5528 67.8668V13C49.5528 10.7909 47.4001 9.00129 46.1955 10.8531C45.9767 11.1896 45.7929 11.5719 45.6538 12L39.2252 31.7852C38.6897 33.4333 37.1509 34.5491 35.418 34.5491H14.3123C10.4374 34.5491 8.82599 39.5085 11.9608 41.7861L29.0357 54.1918C30.4377 55.2103 31.0267 57.0175 30.4912 58.6656Z" fill="#FFE600"/>
</svg>
