<svg width="301" height="301" viewBox="0 0 301 301" fill="none" xmlns="http://www.w3.org/2000/svg">
<rect x="10" y="48" width="281" height="18" fill="#EB8A8A"/>
<path d="M262.909 55.5843L240 274L222 272L244.998 53.6955L262.909 55.5843Z" fill="#EB8A8A"/>
<rect x="198" y="89" width="173" height="12" transform="rotate(90 198 89)" fill="#EB8A8A"/>
<path d="M37 57.2585L60 274L78 272L54.7329 55.3885L37 57.2585Z" fill="#EB8A8A"/>
<rect x="91" y="283" width="118" height="18" fill="#EB8A8A"/>
<rect x="135" width="30" height="18" fill="#EB8A8A"/>
<rect x="204" y="36" width="12" height="18" transform="rotate(90 204 36)" fill="#EB8A8A"/>
<rect x="114" y="36" width="12" height="18" transform="rotate(90 114 36)" fill="#EB8A8A"/>
<path d="M301 57C301 61.9706 296.971 66 292 66C287.029 66 283 61.9706 283 57C283 52.0294 287.029 48 292 48C296.971 48 301 52.0294 301 57Z" fill="#EB8A8A"/>
<path d="M198 262C198 265.314 195.314 268 192 268C188.686 268 186 265.314 186 262C186 258.686 188.686 256 192 256C195.314 256 198 258.686 198 262Z" fill="#EB8A8A"/>
<path d="M198 89C198 92.3137 195.314 95 192 95C188.686 95 186 92.3137 186 89C186 85.6863 188.686 83 192 83C195.314 83 198 85.6863 198 89Z" fill="#EB8A8A"/>
<rect x="114" y="89" width="173" height="12" transform="rotate(90 114 89)" fill="#EB8A8A"/>
<path d="M114 262C114 265.314 111.314 268 108 268C104.686 268 102 265.314 102 262C102 258.686 104.686 256 108 256C111.314 256 114 258.686 114 262Z" fill="#EB8A8A"/>
<path d="M114 89C114 92.3137 111.314 95 108 95C104.686 95 102 92.3137 102 89C102 85.6863 104.686 83 108 83C111.314 83 114 85.6863 114 89Z" fill="#EB8A8A"/>
<rect x="156" y="89" width="173" height="12" transform="rotate(90 156 89)" fill="#EB8A8A"/>
<path d="M156 262C156 265.314 153.314 268 150 268C146.686 268 144 265.314 144 262C144 258.686 146.686 256 150 256C153.314 256 156 258.686 156 262Z" fill="#EB8A8A"/>
<path d="M156 89C156 92.3137 153.314 95 150 95C146.686 95 144 92.3137 144 89C144 85.6863 146.686 83 150 83C153.314 83 156 85.6863 156 89Z" fill="#EB8A8A"/>
<path d="M18 57C18 61.9706 13.9706 66 9 66C4.02944 66 0 61.9706 0 57C0 52.0294 4.02944 48 9 48C13.9706 48 18 52.0294 18 57Z" fill="#EB8A8A"/>
<path d="M96 36C96.3881 9.53191 104.548 1.33054 135 0V18C117.345 18.244 113.765 22.9159 114 36H96Z" fill="#EB8A8A"/>
<path d="M96 36C96.3881 9.53191 104.548 1.33054 135 0V18C117.345 18.244 113.765 22.9159 114 36H96Z" fill="#EB8A8A"/>
<path d="M204 36C203.612 9.53191 195.452 1.33054 165 0V18C182.655 18.244 186.235 22.9159 186 36H204Z" fill="#EB8A8A"/>
<path d="M204 36C203.612 9.53191 195.452 1.33054 165 0V18C182.655 18.244 186.235 22.9159 186 36H204Z" fill="#EB8A8A"/>
<path d="M222 272C220.794 279.369 218.019 281.802 209 283V301C229.494 300.629 236.085 293.963 240 274L222 272Z" fill="#EB8A8A"/>
<path d="M78 272C79.2057 279.369 81.9808 281.802 91 283V301C70.5056 300.629 63.9149 293.963 60 274L78 272Z" fill="#EB8A8A"/>
</svg>
