<svg width="1039" height="1332" viewBox="0 0 1039 1332" fill="none" xmlns="http://www.w3.org/2000/svg">
<path d="M471.772 563L261.045 638.963C244.048 957.428 190.682 1102.01 39.2454 1315.25C149.952 1231.82 164.999 1249.5 261.045 1114.5C277.999 1184.5 301.499 1236 290.999 1329C442.277 1115.42 454.956 882.084 471.772 563Z" fill="#C4C4C4"/>
<path d="M567.583 563L778.309 638.963C795.307 957.428 848.673 1102.01 1000.11 1315.25C889.402 1231.82 874.355 1249.5 778.309 1114.5C761.355 1184.5 737.855 1236 748.355 1329C597.078 1115.42 584.398 882.084 567.583 563Z" fill="#C4C4C4"/>
<path d="M471.772 563L261.045 638.963C244.048 957.428 190.682 1102.01 39.2454 1315.25C149.952 1231.82 164.999 1249.5 261.045 1114.5C277.999 1184.5 301.499 1236 290.999 1329C442.277 1115.42 454.956 882.084 471.772 563Z" stroke="white" stroke-width="10"/>
<path d="M567.583 563L778.309 638.963C795.307 957.428 848.673 1102.01 1000.11 1315.25C889.402 1231.82 874.355 1249.5 778.309 1114.5C761.355 1184.5 737.855 1236 748.355 1329C597.078 1115.42 584.398 882.084 567.583 563Z" stroke="white" stroke-width="10"/>
<path d="M599.192 78.9362L601.47 81L604.34 79.8986L704.728 41.3716L752.96 137.474L754.339 140.222L757.413 140.232L864.94 140.571L875.199 247.607L875.492 250.667L878.355 251.787L978.498 290.946L949.398 394.461L948.566 397.42L950.831 399.498L1030.07 472.189L965.537 558.201L963.693 560.661L965.054 563.417L1012.68 659.822L921.437 716.715L918.828 718.342L919.102 721.404L928.686 828.503L823.053 848.594L820.033 849.169L819.182 852.123L789.43 955.452L683.672 936.027L680.648 935.472L678.788 937.919L613.718 1023.52L522.119 967.206L519.5 965.596L516.881 967.206L425.282 1023.52L360.212 937.919L358.352 935.472L355.328 936.027L249.57 955.452L219.818 852.123L218.967 849.169L215.947 848.594L110.314 828.503L119.898 721.404L120.172 718.342L117.563 716.715L26.3205 659.822L73.9458 563.417L75.3074 560.661L73.4626 558.202L8.93381 472.189L88.1686 399.498L90.4338 397.42L89.6019 394.461L60.5019 290.946L160.645 251.787L163.508 250.667L163.801 247.607L174.06 140.571L281.587 140.232L284.661 140.222L286.04 137.474L334.272 41.3716L434.66 79.8986L437.53 81L439.808 78.9362L519.5 6.74646L599.192 78.9362Z" fill="#C4C4C4" stroke="white" stroke-width="10"/>
<path d="M588.101 140.437L590.379 142.501L593.249 141.4L679.037 108.476L720.255 190.602L721.634 193.35L724.708 193.359L816.596 193.649L825.363 285.119L825.657 288.179L828.52 289.298L914.098 322.762L889.23 411.222L888.398 414.182L890.664 416.26L958.375 478.379L903.231 551.882L901.386 554.341L902.748 557.097L943.447 639.481L865.474 688.101L862.865 689.727L863.139 692.789L871.329 784.312L781.059 801.482L778.039 802.056L777.188 805.01L751.763 893.311L661.386 876.712L658.362 876.156L656.502 878.604L600.896 951.758L522.618 903.631L520 902.021L517.381 903.631L439.103 951.758L383.497 878.604L381.637 876.156L378.613 876.712L288.236 893.311L262.811 805.01L261.96 802.056L258.94 801.482L168.67 784.312L176.86 692.789L177.134 689.727L174.525 688.101L96.5524 639.481L137.251 557.097L138.613 554.341L136.768 551.882L81.624 478.379L149.335 416.26L151.601 414.182L150.769 411.222L125.901 322.762L211.479 289.298L214.342 288.179L214.636 285.119L223.403 193.649L315.291 193.359L318.365 193.35L319.744 190.602L360.962 108.476L446.75 141.4L449.62 142.501L451.898 140.437L520 78.7467L588.101 140.437Z" fill="#C4C4C4" stroke="white" stroke-width="10"/>
<path d="M509.905 518.446C506.771 497.127 533.995 495.873 531.488 518.446C575.096 437.508 602.594 406.305 654.223 364.538C699.558 337.554 719.675 332.468 750.389 333.192C795.976 334.149 804.093 348.238 801.595 364.538C799.097 380.839 761.629 425.351 763.503 475.506C762.824 530.048 752.481 548.957 707.302 551.365C728.771 563.532 733.343 578.262 736.651 609.67C734.113 683.278 715.42 754.492 656.721 757C608.597 752.915 558.884 706.128 521.416 598.922C483.811 706.144 433.022 751.477 384.722 755.563C325.807 753.055 308.13 682.6 305.583 608.981C308.903 577.568 312.812 563.667 334.36 551.499C289.014 549.09 278.925 529.884 278.244 475.334C280.124 425.171 241.901 380.982 239.394 364.679C236.887 348.376 245.439 334.021 291.194 333.063C322.021 332.34 342.212 337.491 387.714 364.479C439.533 406.252 466.137 437.496 509.905 518.446Z" fill="white"/>
</svg>
